if (_typeface_js && _typeface_js.loadFace) _typeface_js.loadFace({"glyphs":{"0":{"ha":871,"x_min":79,"x_max":811,"o":"m 503 976 q 779 860 708 976 q 811 471 850 743 q 679 91 774 200 q 386 -18 585 -18 q 113 99 186 -18 q 79 488 40 215 q 211 867 117 758 q 503 976 306 976 m 496 808 q 355 740 399 808 q 285 476 311 672 q 278 215 257 281 q 393 150 300 150 q 535 218 492 150 q 606 482 579 286 q 610 743 632 678 q 496 808 588 808 z "},"1":{"ha":596,"x_min":75,"x_max":544,"o":"m 410 0 l 199 0 l 296 679 q 317 782 303 739 l 86 721 l 75 861 l 336 958 l 544 958 l 410 0 z "},"2":{"ha":794,"x_min":3,"x_max":754,"o":"m 136 782 l 138 943 q 453 975 300 975 q 587 965 532 975 q 685 931 642 956 q 744 860 728 906 q 754 744 761 814 q 703 594 744 663 q 564 435 663 526 l 285 178 q 425 190 343 190 l 707 190 l 682 0 l 3 0 l 21 122 q 56 208 31 182 l 326 460 q 488 622 440 564 q 542 731 535 681 q 522 783 547 771 q 432 794 497 794 q 136 782 278 794 z "},"3":{"ha":776,"x_min":6,"x_max":731,"o":"m 144 799 l 144 951 q 438 976 299 976 q 672 922 601 976 q 731 746 742 867 q 680 585 724 656 q 554 507 636 515 l 553 501 q 694 269 724 475 q 583 58 676 132 q 303 -18 490 -15 q 6 7 189 -22 l 25 163 q 281 156 221 153 q 488 301 464 164 q 472 394 499 364 q 369 426 446 425 l 182 429 l 201 571 l 383 571 q 493 605 463 571 q 531 707 524 639 q 513 785 536 765 q 399 804 489 804 q 144 799 286 804 z "},"4":{"ha":876,"x_min":36,"x_max":828,"o":"m 828 361 l 810 231 l 696 211 l 693 211 l 663 0 l 468 0 l 496 211 l 143 211 q 36 265 68 211 q 39 378 4 318 l 367 958 l 572 958 l 265 403 q 281 361 240 361 l 517 361 l 553 619 l 610 772 l 771 772 l 714 361 l 828 361 z "},"5":{"ha":757,"x_min":4,"x_max":749,"o":"m 717 794 l 335 794 l 299 617 l 408 604 q 685 304 717 569 q 311 -17 646 1 q 4 14 175 -24 l 36 178 q 268 161 168 154 q 418 205 368 167 q 479 318 468 243 q 451 410 488 383 q 308 446 415 436 l 176 461 q 122 491 140 465 q 108 551 103 517 l 189 958 l 749 958 l 717 794 z "},"6":{"ha":811,"x_min":79,"x_max":765,"o":"m 765 949 l 746 811 q 538 814 674 814 q 374 765 421 814 q 297 557 328 715 q 508 632 393 632 q 710 560 651 632 q 744 319 768 489 q 635 63 718 142 q 365 -17 553 -17 q 100 92 161 -17 q 79 476 39 201 q 126 695 97 606 q 189 840 154 785 q 276 924 224 894 q 385 965 329 954 q 524 975 440 975 q 765 949 635 975 m 547 332 q 542 449 560 419 q 451 478 524 478 q 271 403 365 478 q 265 194 246 243 q 375 146 285 146 q 498 188 464 146 q 547 332 532 229 z "},"7":{"ha":732,"x_min":96,"x_max":763,"o":"m 111 958 l 683 958 q 763 926 742 958 q 760 842 783 893 l 347 0 l 138 0 l 481 699 q 536 786 503 746 l 96 786 l 111 958 z "},"8":{"ha":856,"x_min":46,"x_max":800,"o":"m 247 497 l 249 503 q 138 728 110 522 q 231 919 156 863 q 492 975 307 976 q 753 913 686 975 q 800 711 819 851 q 626 499 771 517 l 625 493 q 756 231 790 476 q 660 40 738 96 q 383 -18 582 -17 q 106 47 183 -18 q 46 247 29 111 q 107 424 61 358 q 247 497 153 489 m 596 800 q 584 812 596 800 q 483 824 572 824 q 365 797 394 824 q 324 686 335 769 q 338 594 314 617 q 453 571 363 571 q 567 597 538 571 q 608 703 597 624 q 596 800 619 776 m 425 424 q 297 396 332 424 q 250 274 263 368 q 267 172 239 197 q 393 146 294 146 q 518 175 483 146 q 564 289 553 204 q 550 398 576 372 q 425 424 524 424 z "},"9":{"ha":811,"x_min":46,"x_max":764,"o":"m 46 10 l 67 149 q 294 146 138 146 q 459 203 410 149 q 536 403 508 257 q 328 325 449 325 q 195 353 249 325 q 119 425 142 381 q 89 527 97 469 q 92 643 81 585 q 198 901 114 828 q 471 974 282 974 q 676 931 608 974 q 764 779 743 889 q 753 481 785 669 q 697 233 731 328 q 609 81 664 138 q 483 3 554 24 q 304 -18 413 -18 q 46 10 171 -18 m 286 642 q 294 514 275 550 q 383 478 314 478 q 472 494 433 478 q 560 551 511 510 q 566 763 585 713 q 453 813 547 813 q 331 776 365 813 q 286 642 297 739 z "}," ":{"ha":301,"x_min":0,"x_max":0,"o":""},"!":{"ha":414,"x_min":64,"x_max":386,"o":"m 333 590 l 274 304 l 113 304 l 131 590 l 183 965 l 386 965 l 333 590 m 151 210 l 196 210 q 264 135 276 210 l 256 68 q 176 0 247 0 l 132 0 q 64 76 54 0 l 74 143 q 151 210 82 210 z "},"\"":{"ha":519,"x_min":118,"x_max":524,"o":"m 244 651 l 118 651 l 149 958 l 300 958 l 244 651 m 469 651 l 342 651 l 374 958 l 524 958 l 469 651 z "},"#":{"ha":988,"x_min":25,"x_max":986,"o":"m 792 592 l 731 397 l 883 397 l 842 274 l 692 274 l 606 0 l 449 0 l 536 274 l 343 274 l 257 0 l 100 0 l 188 274 l 25 274 l 65 397 l 225 397 l 286 592 l 128 592 l 169 714 l 325 714 l 401 958 l 558 958 l 482 714 l 674 714 l 750 958 l 907 958 l 831 714 l 986 714 l 944 592 l 792 592 m 635 592 l 443 592 l 382 397 l 574 397 l 635 592 z "},"$":{"ha":794,"x_min":21,"x_max":781,"o":"m 781 938 l 760 794 q 465 799 636 799 q 353 785 383 800 q 314 707 322 769 q 322 641 307 660 q 389 601 336 622 l 558 535 q 701 426 667 490 q 721 250 735 361 q 625 40 701 96 q 368 -18 549 -15 l 335 -165 l 181 -165 l 217 -11 q 21 19 119 -4 l 43 171 q 339 164 332 164 q 467 183 433 164 q 510 263 501 201 q 503 328 517 310 q 443 364 489 347 l 264 438 q 126 549 161 481 q 103 719 90 617 q 204 922 122 869 q 457 976 286 974 l 489 1103 l 643 1103 l 610 969 q 781 938 697 961 z "},"%":{"ha":1260,"x_min":86,"x_max":1194,"o":"m 349 976 q 533 910 485 976 q 558 683 581 844 q 478 467 536 526 q 293 407 421 407 q 112 473 160 407 q 86 700 64 539 q 165 917 108 857 q 349 976 222 976 m 354 0 l 214 0 l 924 958 l 1063 958 l 354 0 m 350 863 q 271 828 292 863 q 235 683 250 793 q 233 553 221 586 q 293 521 244 521 q 373 556 351 521 q 410 700 394 590 q 410 830 422 797 q 350 863 399 863 m 985 554 q 1168 488 1119 554 q 1194 261 1217 421 q 1114 44 1171 104 q 928 -17 1057 -17 q 747 50 794 -17 q 721 276 699 117 q 801 494 744 433 q 985 554 858 554 m 985 439 q 907 405 928 439 q 871 261 886 371 q 868 131 857 163 q 928 99 879 99 q 1009 133 988 99 q 1044 276 1031 167 q 1046 407 1057 375 q 985 439 1035 439 z "},"&":{"ha":1039,"x_min":43,"x_max":1022,"o":"m 1001 422 l 882 422 q 814 218 863 303 q 344 -17 685 -17 q 98 47 169 -17 q 43 251 26 111 q 264 494 68 481 l 265 501 q 156 569 189 507 q 139 731 122 632 q 174 838 150 793 q 228 908 197 882 q 308 950 260 935 q 404 970 356 965 q 521 975 453 975 q 761 944 653 975 l 728 799 q 529 817 640 817 q 394 792 432 817 q 346 689 357 768 q 360 591 336 617 q 457 565 383 565 l 721 565 q 724 713 724 611 l 900 713 q 897 565 901 644 l 1022 565 l 1001 422 m 703 422 l 436 422 q 317 391 356 422 q 268 278 279 360 q 284 181 258 208 q 386 153 310 153 q 649 285 569 153 q 703 422 685 336 z "},"'":{"ha":296,"x_min":118,"x_max":300,"o":"m 244 651 l 118 651 l 149 958 l 300 958 l 244 651 z "},"(":{"ha":506,"x_min":58,"x_max":569,"o":"m 546 1099 l 569 1006 q 256 426 321 901 q 254 65 221 213 q 399 -140 288 -82 l 372 -225 q 97 5 174 -160 q 58 442 19 169 q 214 875 97 717 q 546 1099 331 1033 z "},")":{"ha":506,"x_min":-56,"x_max":456,"o":"m 115 1008 l 142 1094 q 417 865 340 1029 q 456 425 494 701 q 300 -6 417 153 q -32 -231 183 -164 l -56 -137 q 258 443 193 -26 q 261 808 294 661 q 115 1008 228 954 z "},"*":{"ha":628,"x_min":99,"x_max":622,"o":"m 399 728 l 522 549 l 428 481 l 353 650 l 232 482 l 146 549 l 319 726 l 335 960 l 450 960 l 399 728 m 301 782 l 296 733 l 267 703 l 99 743 l 144 850 l 301 782 m 622 739 l 449 701 l 426 732 l 433 782 l 600 850 l 622 739 z "},"+":{"ha":744,"x_min":47,"x_max":700,"o":"m 679 343 l 439 343 l 407 111 l 256 111 l 288 343 l 47 343 l 69 493 l 308 493 l 342 726 l 494 726 l 461 493 l 700 493 l 679 343 z "},",":{"ha":339,"x_min":22,"x_max":231,"o":"m 119 210 l 165 210 q 221 192 206 210 q 231 135 236 175 l 218 46 q 117 -207 200 -87 l 26 -175 q 79 4 64 -67 q 22 67 15 0 l 33 140 q 59 195 40 181 q 119 210 78 210 z "},"-":{"ha":575,"x_min":64,"x_max":496,"o":"m 478 286 l 64 286 l 83 421 l 496 421 l 478 286 z "},".":{"ha":335,"x_min":22,"x_max":231,"o":"m 111 210 l 163 210 q 231 135 242 210 l 221 68 q 143 0 213 0 l 92 0 q 22 76 14 0 l 32 143 q 111 210 42 210 z "},"/":{"ha":776,"x_min":-40,"x_max":822,"o":"m 128 -100 l -40 -100 l 654 958 l 822 958 l 128 -100 z "},":":{"ha":357,"x_min":14,"x_max":281,"o":"m 161 626 l 213 626 q 281 550 290 626 l 271 485 q 193 417 263 417 l 142 417 q 72 492 64 417 l 82 560 q 161 626 92 626 m 103 211 l 154 211 q 222 135 232 211 l 213 68 q 135 0 204 0 l 83 0 q 14 76 6 0 l 24 143 q 103 211 33 211 z "},";":{"ha":361,"x_min":35,"x_max":300,"o":"m 181 626 l 232 626 q 300 550 310 626 l 290 485 q 213 417 282 417 l 161 417 q 92 492 81 417 l 101 560 q 181 626 111 626 m 132 210 l 178 210 q 233 192 218 210 q 243 135 249 175 l 231 46 q 129 -207 213 -87 l 39 -175 q 92 4 76 -67 q 35 67 28 0 l 46 140 q 72 195 53 181 q 132 210 90 210 z "},"<":{"ha":715,"x_min":43,"x_max":681,"o":"m 658 560 l 228 417 l 617 265 l 594 108 l 43 339 l 65 497 l 681 725 l 658 560 z "},"=":{"ha":804,"x_min":53,"x_max":753,"o":"m 731 483 l 94 483 l 115 633 l 753 633 l 731 483 m 690 190 l 53 190 l 75 340 l 713 340 l 690 190 z "},">":{"ha":714,"x_min":38,"x_max":674,"o":"m 674 497 l 651 339 l 38 110 l 60 275 l 489 425 l 103 575 l 124 726 l 674 497 z "},"?":{"ha":717,"x_min":111,"x_max":722,"o":"m 111 815 l 111 956 q 153 964 122 958 q 195 971 185 969 q 232 976 206 972 q 276 982 258 981 q 321 985 293 983 q 379 988 349 988 q 446 989 410 989 q 666 933 594 989 q 722 765 738 878 q 684 663 714 710 q 614 581 654 617 q 533 509 574 546 q 456 419 492 472 q 406 303 419 367 l 242 303 q 288 454 250 383 q 369 566 326 525 q 450 653 411 607 q 497 735 489 700 q 486 805 508 788 q 397 822 464 822 q 111 815 268 822 m 285 210 l 329 210 q 399 135 408 210 l 389 68 q 311 0 381 0 l 267 0 q 197 76 189 0 l 207 142 q 285 210 215 210 z "},"@":{"ha":1110,"x_min":60,"x_max":1054,"o":"m 131 756 l 143 894 q 600 908 350 906 q 778 904 708 910 q 907 880 849 899 q 994 831 965 861 q 1040 747 1024 800 q 1054 622 1056 693 q 1038 444 1053 550 q 933 78 1001 169 q 683 -14 865 -14 q 485 115 514 -14 q 247 -17 385 -17 q 60 321 4 -17 q 105 485 76 421 q 178 580 133 549 q 271 622 224 611 q 390 632 318 632 q 733 593 519 632 l 669 192 q 706 136 664 136 q 799 197 774 136 q 854 456 825 258 q 869 554 864 515 q 871 628 874 593 q 865 681 868 663 q 844 717 863 700 q 811 740 825 733 q 758 750 797 746 q 688 755 718 754 q 596 756 658 756 l 131 756 m 526 488 l 433 489 q 302 459 336 489 q 249 311 268 429 q 244 169 232 197 q 306 142 256 142 q 397 172 356 142 q 490 275 438 203 l 526 488 z "},"A":{"ha":899,"x_min":-54,"x_max":843,"o":"m 600 250 l 269 250 l 167 0 l -54 0 l 349 907 q 425 958 368 958 l 625 958 q 672 941 651 958 q 693 899 692 924 l 843 0 l 632 0 l 600 250 m 578 418 l 540 708 q 533 801 536 739 l 493 801 q 460 710 468 731 l 339 418 l 578 418 z "},"B":{"ha":882,"x_min":39,"x_max":832,"o":"m 39 0 l 174 958 q 522 969 297 969 q 779 914 707 969 q 832 711 851 858 q 772 558 817 608 q 638 500 728 508 l 636 492 q 800 231 836 476 q 703 38 779 88 q 451 -11 626 -11 q 39 0 179 -11 m 326 568 l 472 568 q 585 595 551 568 q 628 699 618 622 q 614 787 638 765 q 514 808 590 808 l 360 808 l 326 568 m 267 150 l 415 150 q 544 177 508 150 q 592 288 579 204 q 577 397 603 369 q 467 425 551 424 l 306 425 l 267 150 z "},"C":{"ha":810,"x_min":75,"x_max":822,"o":"m 717 179 l 725 21 q 419 -17 600 -17 q 117 101 197 -17 q 75 488 38 218 q 214 870 114 765 q 536 975 314 975 q 822 942 696 975 l 794 785 q 528 792 682 792 q 413 768 454 792 q 342 676 371 744 q 296 471 314 607 q 297 229 271 292 q 426 167 324 167 q 717 179 592 165 z "},"D":{"ha":942,"x_min":39,"x_max":886,"o":"m 39 0 l 174 958 q 517 971 354 971 q 763 926 675 971 q 881 772 850 882 q 886 471 913 663 q 830 221 864 315 q 735 74 796 126 q 600 5 675 22 q 401 -12 525 -12 q 39 0 244 -12 m 364 804 l 272 156 q 339 155 296 156 q 399 154 382 154 q 505 166 465 154 q 578 213 544 178 q 630 314 611 249 q 664 488 649 379 q 680 651 679 592 q 662 747 681 711 q 608 794 643 783 q 510 806 574 806 l 364 804 z "},"E":{"ha":794,"x_min":63,"x_max":810,"o":"m 783 792 l 425 792 q 367 776 385 792 q 344 717 350 760 l 324 572 l 701 572 l 682 422 l 303 422 l 278 238 q 287 183 272 199 q 340 167 301 167 l 694 167 l 689 10 q 274 -4 567 -4 q 103 58 157 -4 q 63 226 49 119 l 139 774 q 210 913 151 863 q 368 963 269 963 q 810 947 671 963 l 783 792 z "},"F":{"ha":765,"x_min":36,"x_max":801,"o":"m 775 792 l 440 792 q 374 776 393 792 q 349 717 354 761 l 326 554 l 692 554 l 671 404 l 306 404 l 249 0 l 36 0 l 143 768 q 217 912 157 861 q 372 963 276 963 q 801 946 668 963 l 775 792 z "},"G":{"ha":893,"x_min":76,"x_max":858,"o":"m 639 554 l 842 554 l 764 0 l 610 0 l 604 118 q 315 -18 479 -18 q 106 103 168 -18 q 76 488 44 224 q 134 735 96 638 q 235 885 172 832 q 375 957 299 938 q 565 976 451 976 q 858 942 738 976 l 832 788 q 568 794 675 794 q 378 731 433 794 q 297 471 324 668 q 297 230 275 294 q 403 165 319 165 q 503 188 461 165 q 599 261 544 211 l 639 554 z "},"H":{"ha":950,"x_min":39,"x_max":931,"o":"m 931 958 l 796 0 l 585 0 l 644 426 l 313 426 l 251 0 l 39 0 l 174 958 l 386 958 l 335 592 l 668 592 l 719 958 l 931 958 z "},"I":{"ha":406,"x_min":39,"x_max":386,"o":"m 251 0 l 39 0 l 174 958 l 386 958 l 251 0 z "},"J":{"ha":507,"x_min":-22,"x_max":492,"o":"m 492 958 l 385 197 q 310 38 371 93 q 154 -17 250 -17 q -22 13 42 -17 l 14 153 l 71 153 q 176 231 165 153 l 279 958 l 492 958 z "},"K":{"ha":875,"x_min":39,"x_max":932,"o":"m 550 490 l 549 485 q 611 397 582 457 l 810 0 l 576 0 l 379 422 l 300 422 q 297 326 304 376 l 251 0 l 39 0 l 174 958 l 386 958 l 346 676 q 324 574 339 624 l 401 574 l 688 958 l 932 958 l 633 564 q 550 490 600 518 z "},"L":{"ha":733,"x_min":68,"x_max":671,"o":"m 382 958 l 281 243 q 290 190 276 207 q 343 172 303 172 l 671 172 l 667 10 q 264 -4 531 -4 q 107 55 161 -4 q 68 217 53 114 l 169 958 l 382 958 z "},"M":{"ha":1263,"x_min":22,"x_max":1213,"o":"m 935 958 l 1139 958 q 1197 936 1178 958 q 1213 876 1217 914 l 1126 0 l 926 0 l 1010 793 l 986 793 l 760 196 q 669 132 739 132 l 531 132 q 451 203 458 132 l 383 793 l 360 793 l 222 0 l 22 0 l 182 883 q 208 940 189 922 q 265 958 228 958 l 464 958 q 539 886 532 958 l 593 408 q 600 272 600 351 l 619 272 q 664 404 639 336 l 844 893 q 935 958 865 957 z "},"N":{"ha":996,"x_min":39,"x_max":978,"o":"m 978 958 l 853 72 q 774 0 843 0 l 656 0 q 608 15 624 0 q 576 67 592 31 l 386 578 q 344 722 360 647 l 331 722 q 319 572 328 638 l 240 0 l 39 0 l 164 886 q 244 958 174 958 l 361 958 q 408 942 392 958 q 439 892 425 926 l 624 397 q 674 242 656 313 l 690 242 q 700 396 690 324 l 776 958 l 978 958 z "},"O":{"ha":944,"x_min":75,"x_max":890,"o":"m 216 870 q 267 923 216 870 q 539 976 318 976 q 844 863 760 976 q 890 471 929 750 q 751 86 853 190 q 429 -18 649 -18 q 121 93 204 -18 q 75 488 38 204 q 216 870 114 764 m 532 806 q 374 738 421 806 q 297 471 326 671 q 299 218 271 283 q 433 153 326 153 q 592 222 543 153 q 669 488 640 290 q 669 742 697 678 q 532 806 640 806 z "},"P":{"ha":846,"x_min":39,"x_max":839,"o":"m 39 0 l 174 958 q 526 971 301 971 q 792 899 719 971 q 839 650 864 828 q 738 406 814 467 q 479 344 661 344 q 300 357 383 344 l 250 0 l 39 0 m 321 507 l 465 507 q 584 538 551 507 q 631 665 617 568 q 619 778 643 749 q 521 808 596 808 l 364 807 l 321 507 z "},"Q":{"ha":944,"x_min":75,"x_max":890,"o":"m 216 870 q 267 923 216 870 q 539 976 318 976 q 844 863 760 976 q 890 471 929 750 q 751 86 853 190 q 429 -18 649 -18 q 121 93 204 -18 q 75 488 38 204 q 216 870 114 764 m 532 806 q 374 738 421 806 q 297 471 326 671 q 299 218 271 283 q 433 153 326 153 q 592 222 543 153 q 669 488 640 290 q 669 742 697 678 q 532 806 640 806 m 265 -161 l 333 -50 q 739 -153 496 -115 l 658 -342 q 265 -161 435 -279 z "},"R":{"ha":890,"x_min":39,"x_max":850,"o":"m 39 0 l 174 958 q 528 971 301 971 q 790 905 707 971 q 850 679 872 839 q 787 520 836 578 q 635 450 738 463 l 633 442 q 749 294 729 419 l 799 0 l 582 0 l 538 297 q 514 358 532 342 q 457 374 496 374 l 299 375 l 246 0 l 39 0 m 322 538 l 472 538 q 591 568 556 538 q 639 682 626 599 q 625 781 650 754 q 524 808 600 808 l 360 807 l 322 538 z "},"S":{"ha":803,"x_min":21,"x_max":788,"o":"m 449 364 l 267 438 q 126 549 163 481 q 103 719 90 617 q 209 924 124 872 q 475 976 294 976 q 788 938 654 976 l 767 794 q 469 799 642 799 q 354 785 385 800 q 314 707 324 771 q 322 641 307 660 q 390 601 336 622 l 563 535 q 707 427 672 492 q 728 250 742 363 q 626 37 707 92 q 350 -18 544 -18 q 21 19 189 -18 l 43 171 q 342 164 338 164 q 474 183 439 164 q 518 263 508 201 q 510 328 524 310 q 449 364 496 346 z "},"T":{"ha":825,"x_min":75,"x_max":881,"o":"m 857 786 l 571 786 l 461 0 l 249 0 l 360 786 l 75 786 l 99 958 l 881 958 l 857 786 z "},"U":{"ha":940,"x_min":85,"x_max":931,"o":"m 931 958 l 847 378 q 722 70 815 158 q 429 -18 629 -18 q 140 76 225 -18 q 85 386 56 171 l 165 958 l 378 958 l 296 378 q 304 200 276 247 q 429 153 332 153 q 574 203 529 153 q 638 386 618 253 l 718 958 l 931 958 z "},"V":{"ha":879,"x_min":85,"x_max":947,"o":"m 947 958 l 557 54 q 481 0 535 0 l 289 0 q 243 18 263 0 q 221 61 224 36 l 85 958 l 299 958 l 374 269 q 382 157 379 214 l 417 157 q 454 271 429 207 l 724 958 l 947 958 z "},"W":{"ha":1343,"x_min":110,"x_max":1386,"o":"m 1386 958 l 1106 54 q 1028 0 1089 0 l 828 0 q 779 19 800 0 q 757 64 758 38 l 739 683 l 739 806 l 713 806 q 681 682 694 729 l 490 56 q 411 0 474 0 l 210 0 q 160 18 182 0 q 139 63 139 36 l 110 958 l 321 958 l 321 289 q 319 215 321 265 q 317 150 317 164 l 344 150 q 385 297 351 179 l 569 897 q 650 958 588 958 l 829 958 q 877 938 858 958 q 896 889 896 918 l 922 288 q 924 150 925 197 l 953 150 q 988 294 974 244 l 1171 958 l 1386 958 z "},"X":{"ha":886,"x_min":-44,"x_max":933,"o":"m 636 492 l 815 0 l 603 0 l 464 426 l 449 426 l 189 0 l -44 0 l 275 492 l 113 958 l 322 958 l 447 563 l 465 563 l 711 958 l 933 958 l 636 492 z "},"Y":{"ha":840,"x_min":76,"x_max":917,"o":"m 510 313 l 467 0 l 253 0 l 299 324 l 76 958 l 289 958 l 397 603 q 415 479 413 542 l 431 479 q 481 606 444 543 l 689 958 l 917 958 l 510 313 z "},"Z":{"ha":803,"x_min":-1,"x_max":817,"o":"m 260 163 l 715 163 l 693 0 l -1 0 l 19 163 l 554 796 l 121 796 l 143 958 l 817 958 l 793 796 l 260 163 z "},"[":{"ha":478,"x_min":31,"x_max":526,"o":"m 508 939 l 403 939 q 367 908 371 939 l 228 -76 q 247 -101 225 -101 l 363 -101 l 344 -229 l 128 -229 q 31 -118 15 -229 l 182 964 q 220 1040 189 1013 q 299 1067 251 1067 l 526 1067 l 508 939 z "},"\\":{"ha":754,"x_min":103,"x_max":658,"o":"m 658 -100 l 504 -100 l 103 958 l 257 958 l 658 -100 z "},"]":{"ha":478,"x_min":-44,"x_max":451,"o":"m 138 1067 l 353 1067 q 429 1035 400 1067 q 451 956 458 1003 l 299 -126 q 260 -201 292 -174 q 182 -229 229 -229 l -44 -229 l -28 -101 l 78 -101 q 114 -71 110 -101 l 253 914 q 233 939 257 939 l 119 939 l 138 1067 z "},"^":{"ha":640,"x_min":71,"x_max":629,"o":"m 629 558 l 546 514 l 389 744 l 378 744 l 149 514 l 71 558 l 317 871 l 465 871 l 629 558 z "},"_":{"ha":775,"x_min":3,"x_max":639,"o":"m 619 -135 l 3 -135 l 22 0 l 639 0 l 619 -135 z "},"`":{"ha":490,"x_min":103,"x_max":478,"o":"m 478 815 l 410 728 l 103 886 l 194 1021 l 478 815 z "},"a":{"ha":819,"x_min":51,"x_max":774,"o":"m 681 0 l 521 0 l 522 124 q 242 -17 417 -12 q 67 67 113 -21 q 51 356 22 156 q 90 515 65 450 q 146 617 115 579 q 225 674 176 654 q 319 699 274 693 q 433 704 364 704 q 610 692 507 704 q 774 663 713 679 l 681 0 m 554 553 l 449 553 q 313 518 349 553 q 258 353 276 483 q 250 184 240 221 q 310 150 260 147 q 515 279 401 151 l 554 553 z "},"b":{"ha":822,"x_min":29,"x_max":754,"o":"m 365 972 l 335 735 q 296 572 324 646 q 567 703 432 703 q 738 619 692 703 q 754 336 783 536 q 646 62 728 142 q 397 -18 564 -18 q 203 -3 314 -18 q 29 36 93 13 l 161 972 l 365 972 m 292 435 l 250 136 q 357 133 339 133 q 493 174 458 135 q 547 350 528 213 q 552 503 563 469 q 493 536 542 536 q 292 435 413 536 z "},"c":{"ha":704,"x_min":46,"x_max":686,"o":"m 604 163 l 618 28 q 351 -17 513 -17 q 92 69 165 -17 q 46 351 18 156 q 157 624 74 544 q 424 704 240 704 q 686 660 586 704 l 658 535 q 451 538 497 538 q 315 498 356 538 q 260 342 274 458 q 270 185 244 221 q 388 150 296 150 q 604 163 517 150 z "},"d":{"ha":822,"x_min":50,"x_max":819,"o":"m 819 972 l 682 0 l 521 0 l 521 125 q 236 -17 382 -17 q 72 71 121 -17 q 50 356 24 158 q 93 536 65 465 q 163 642 121 607 q 251 691 206 678 q 358 704 296 704 q 579 686 468 704 q 589 821 582 772 l 614 972 l 819 972 m 554 560 l 444 560 q 310 524 343 560 q 258 353 276 489 q 251 197 242 238 q 311 157 261 156 q 406 183 361 158 q 513 261 451 207 l 554 560 z "},"e":{"ha":778,"x_min":47,"x_max":738,"o":"m 656 163 l 669 32 q 368 -17 554 -17 q 99 75 172 -17 q 47 357 25 167 q 161 631 72 557 q 444 704 250 704 q 690 644 625 704 q 738 468 754 585 q 658 329 724 371 q 457 278 593 288 l 254 263 q 288 171 256 194 q 392 147 321 147 q 656 163 526 147 m 267 383 l 426 399 q 508 421 482 403 q 539 488 533 439 q 522 544 543 533 q 431 554 500 556 q 317 520 350 554 q 267 383 285 486 z "},"f":{"ha":557,"x_min":-150,"x_max":665,"o":"m 632 850 l 510 850 q 431 831 456 850 q 399 758 407 813 l 389 685 l 576 685 l 558 547 l 368 547 l 281 -62 q 40 -271 251 -271 q -150 -256 -19 -271 l -118 -119 l -29 -119 q 51 -101 26 -119 q 83 -28 75 -82 l 165 547 l 47 547 l 64 678 l 185 685 l 200 792 q 440 1000 229 1000 q 665 986 578 1000 l 632 850 z "},"g":{"ha":824,"x_min":13,"x_max":778,"o":"m 778 663 l 693 61 q 565 -205 671 -124 q 268 -286 458 -286 q 13 -249 106 -286 l 28 -128 q 224 -129 75 -129 q 488 -3 446 -129 q 502 45 493 13 q 521 105 511 78 q 546 154 531 132 q 416 35 494 79 q 242 -11 338 -10 q 70 72 117 -14 q 53 356 24 158 q 91 515 67 450 q 143 617 115 581 q 214 674 171 654 q 296 699 257 694 q 394 704 335 704 q 778 663 608 704 m 558 553 l 447 553 q 313 517 346 553 q 261 353 281 482 q 252 185 242 222 q 313 150 263 147 q 518 279 406 154 l 558 553 z "},"h":{"ha":828,"x_min":26,"x_max":764,"o":"m 368 972 l 335 731 q 299 563 322 644 q 590 704 457 704 q 731 653 685 704 q 764 510 778 603 l 692 0 l 488 0 l 551 454 q 548 515 557 500 q 508 531 539 531 q 413 505 463 531 q 289 421 364 479 l 232 0 l 26 0 l 163 972 l 368 972 z "},"i":{"ha":382,"x_min":32,"x_max":369,"o":"m 225 988 l 311 988 q 369 924 376 988 l 360 849 q 293 793 351 793 l 206 793 q 150 857 142 793 l 160 931 q 225 988 165 988 m 236 0 l 32 0 l 128 685 l 332 685 l 236 0 z "},"j":{"ha":383,"x_min":-79,"x_max":368,"o":"m 225 988 l 311 988 q 368 924 376 988 l 358 849 q 292 793 350 793 l 206 793 q 149 857 140 793 l 160 931 q 225 988 165 988 m 333 685 l 240 28 q 173 -150 228 -68 q 33 -275 118 -232 l -79 -181 q 36 36 21 -83 l 129 685 l 333 685 z "},"k":{"ha":782,"x_min":26,"x_max":760,"o":"m 550 685 l 760 685 q 535 369 708 490 q 592 283 567 336 l 718 0 l 504 0 l 383 283 q 265 233 332 260 l 232 0 l 26 0 l 163 972 l 368 972 l 311 554 q 261 385 300 472 q 448 519 368 440 q 550 685 528 597 z "},"l":{"ha":451,"x_min":51,"x_max":394,"o":"m 368 972 l 261 219 q 269 168 256 182 q 325 154 282 154 l 385 154 l 394 8 q 235 -17 346 -17 q 90 35 139 -17 q 51 176 40 86 l 164 972 l 368 972 z "},"m":{"ha":1217,"x_min":26,"x_max":1153,"o":"m 282 685 l 282 561 q 422 670 357 636 q 557 704 486 704 q 675 671 632 704 q 725 576 718 638 q 983 704 854 704 q 1122 652 1078 704 q 1153 510 1165 600 l 1082 0 l 878 0 l 942 454 q 935 514 947 497 q 892 531 922 531 q 818 508 857 531 q 713 426 779 486 l 653 0 l 456 0 l 518 454 q 514 513 525 496 q 469 531 503 531 q 394 509 433 531 q 290 432 354 488 l 231 0 l 26 0 l 122 685 l 282 685 z "},"n":{"ha":828,"x_min":26,"x_max":764,"o":"m 283 685 l 283 549 q 596 704 443 704 q 731 653 683 704 q 764 510 778 603 l 692 0 l 488 0 l 550 449 q 547 515 557 497 q 504 531 538 532 q 290 422 426 529 l 232 0 l 26 0 l 122 685 l 283 685 z "},"o":{"ha":814,"x_min":46,"x_max":750,"o":"m 438 704 q 703 618 628 704 q 750 333 778 532 q 635 61 724 140 q 361 -18 547 -18 q 95 68 172 -18 q 46 350 18 154 q 161 624 74 544 q 438 704 249 704 m 436 550 q 315 507 351 550 q 260 333 278 464 q 264 175 243 214 q 365 136 285 136 q 485 180 449 136 q 539 350 521 224 q 535 510 557 469 q 436 550 514 550 z "},"p":{"ha":824,"x_min":-11,"x_max":754,"o":"m 285 685 l 282 553 q 419 658 343 615 q 569 701 496 701 q 736 617 690 701 q 754 329 782 532 q 720 177 742 240 q 671 76 699 114 q 603 17 643 39 q 524 -11 564 -4 q 431 -18 485 -18 q 226 0 329 -18 q 217 -129 226 -65 l 194 -264 l -11 -264 l 122 685 l 285 685 m 251 125 l 357 125 q 495 160 463 125 q 546 332 528 196 q 552 499 563 463 q 494 536 542 536 q 403 506 458 536 q 292 424 347 475 l 251 125 z "},"q":{"ha":818,"x_min":49,"x_max":772,"o":"m 438 -264 l 468 -53 q 506 108 479 40 q 240 -17 375 -17 q 71 68 121 -17 q 49 350 21 153 q 156 628 78 551 q 400 704 233 704 q 599 689 489 704 q 772 650 708 674 l 642 -264 l 438 -264 m 513 260 l 553 550 q 443 553 507 553 q 310 515 344 550 q 257 347 276 479 q 251 195 240 233 q 313 157 263 157 q 405 181 361 157 q 513 260 449 206 z "},"r":{"ha":588,"x_min":26,"x_max":615,"o":"m 615 704 l 569 514 l 519 514 q 428 495 476 514 q 290 429 381 476 l 232 0 l 26 0 l 122 685 l 282 685 l 282 556 q 574 704 439 704 l 615 704 z "},"s":{"ha":728,"x_min":13,"x_max":690,"o":"m 372 246 l 207 314 q 90 399 124 347 q 67 528 57 450 q 149 664 78 622 q 374 704 221 706 q 690 676 563 701 l 671 546 q 400 550 404 550 q 293 544 319 550 q 263 514 267 538 q 276 478 260 490 q 338 449 292 467 l 506 382 q 625 301 590 349 q 650 175 660 254 q 617 75 642 114 q 547 17 593 36 q 449 -9 501 -3 q 314 -15 396 -15 q 13 10 189 -15 l 32 142 q 250 139 82 139 q 408 147 369 139 q 453 183 447 156 q 442 214 456 204 q 390 239 429 224 q 372 246 379 243 z "},"t":{"ha":569,"x_min":44,"x_max":579,"o":"m 369 547 l 324 219 q 330 167 318 181 q 383 154 342 154 l 475 154 l 485 10 q 293 -17 411 -17 q 149 37 196 -17 q 115 185 101 90 l 168 547 l 44 547 l 61 678 l 188 685 l 215 876 l 417 876 l 390 685 l 579 685 l 560 547 l 369 547 z "},"u":{"ha":815,"x_min":47,"x_max":771,"o":"m 771 685 l 676 0 l 518 0 l 518 129 q 222 -18 365 -18 q 78 33 124 -18 q 47 175 33 85 l 118 685 l 324 685 l 258 231 q 265 172 253 189 q 310 154 276 154 q 397 178 354 154 q 510 261 439 201 l 568 685 l 771 685 z "},"v":{"ha":788,"x_min":51,"x_max":781,"o":"m 561 685 l 781 685 q 685 335 751 513 q 578 108 635 199 q 496 24 539 47 q 376 0 453 0 l 219 0 q 178 15 196 0 q 158 53 161 29 l 51 685 l 271 685 l 326 139 l 343 139 q 387 151 371 139 q 424 200 403 163 q 497 389 460 268 q 561 685 533 500 z "},"w":{"ha":1233,"x_min":56,"x_max":1222,"o":"m 314 142 l 329 142 q 396 211 369 142 q 442 371 419 267 q 485 635 460 450 q 543 685 493 685 l 736 685 q 773 671 758 685 q 789 636 788 657 l 826 142 l 840 142 q 872 160 860 142 q 896 213 883 178 q 960 390 928 281 q 1014 685 997 526 l 1222 685 q 1135 339 1188 492 q 1040 118 1088 197 q 963 26 1006 53 q 838 0 919 0 l 736 0 q 694 15 711 0 q 676 54 678 31 l 644 560 l 628 560 q 592 331 619 464 q 532 144 564 214 q 447 28 499 57 q 313 0 394 0 l 201 0 q 160 15 176 0 q 140 54 143 31 l 56 686 l 267 686 l 314 142 z "},"x":{"ha":781,"x_min":-44,"x_max":793,"o":"m 550 351 l 710 0 l 511 0 l 389 288 l 378 288 l 174 0 l -44 0 l 217 353 l 71 685 l 267 685 l 375 421 l 392 421 l 581 685 l 793 685 l 550 351 z "},"y":{"ha":803,"x_min":49,"x_max":796,"o":"m 579 685 l 796 685 q 709 362 767 526 q 588 79 651 197 q 365 -191 483 -110 q 82 -285 246 -272 l 57 -158 q 213 -102 153 -133 q 329 0 274 -71 l 247 0 q 191 19 214 0 q 161 69 168 39 l 49 685 l 269 685 l 335 161 q 358 139 338 139 l 414 139 l 419 151 q 579 685 529 379 z "},"z":{"ha":725,"x_min":-1,"x_max":701,"o":"m 683 539 l 258 147 l 633 147 l 614 0 l -1 0 l 18 147 l 17 147 l 443 539 l 81 539 l 100 685 l 701 685 l 683 539 z "},"{":{"ha":474,"x_min":44,"x_max":510,"o":"m 510 1067 l 499 940 q 412 922 439 940 q 379 851 385 903 l 349 640 q 304 508 338 549 q 182 454 271 468 q 287 387 260 429 q 303 269 314 344 l 263 -18 q 274 -84 256 -65 q 353 -103 293 -103 l 346 -229 q 121 -194 192 -249 q 67 -32 50 -139 l 113 300 q 114 318 114 310 q 115 333 114 326 q 113 344 115 339 q 109 353 110 350 q 103 361 108 357 q 96 367 97 365 q 85 374 94 369 q 74 378 76 378 q 60 384 72 379 q 44 390 47 389 l 61 524 q 101 536 90 532 q 124 551 111 540 q 143 579 138 563 q 153 625 149 596 l 188 876 q 510 1067 219 1103 z "},"|":{"ha":361,"x_min":18,"x_max":349,"o":"m 163 -235 l 18 -235 l 203 1085 l 349 1085 l 163 -235 z "},"}":{"ha":475,"x_min":-39,"x_max":444,"o":"m 129 940 l 136 1067 q 362 1031 293 1088 q 417 869 431 975 l 382 617 q 380 595 381 604 q 378 578 379 586 q 379 564 378 569 q 381 554 381 558 q 387 546 382 550 q 393 540 392 542 q 402 535 394 538 q 413 531 410 532 q 428 526 417 529 q 444 521 439 522 l 426 388 q 375 367 389 374 q 348 342 361 361 q 331 292 335 324 l 283 -39 q 192 -199 268 -149 q -39 -229 117 -249 l -28 -103 q 59 -85 33 -103 q 92 -15 85 -67 l 132 276 q 180 394 144 354 q 306 457 215 433 q 202 515 228 471 q 190 647 176 558 l 221 858 q 209 923 228 906 q 129 940 190 940 z "},"~":{"ha":710,"x_min":71,"x_max":638,"o":"m 163 297 l 71 306 q 106 456 69 406 q 199 504 143 506 q 353 469 247 503 q 475 433 458 436 q 525 444 510 428 q 546 500 540 460 l 638 493 q 603 344 639 394 q 510 296 568 293 q 353 331 457 297 q 232 367 249 364 q 183 356 197 372 q 163 297 168 339 z "}," ":{"ha":301,"x_min":0,"x_max":0,"o":""},"¡":{"ha":393,"x_min":3,"x_max":324,"o":"m 211 704 l 256 704 q 324 628 333 704 l 314 561 q 236 493 306 493 l 192 493 q 124 568 113 493 l 132 635 q 211 704 142 704 m 257 114 l 206 -257 l 3 -257 l 54 114 l 115 400 l 276 400 l 257 114 z "},"¢":{"ha":719,"x_min":67,"x_max":701,"o":"m 701 799 l 672 674 q 468 676 514 676 q 334 637 374 676 q 279 481 294 597 q 290 324 264 360 q 406 289 315 289 q 621 301 533 289 l 633 167 q 403 124 540 129 l 372 0 l 219 0 l 253 133 q 89 243 135 157 q 67 490 43 329 q 172 759 93 679 q 422 843 251 839 l 451 958 l 606 958 l 574 833 q 701 799 651 821 z "},"£":{"ha":807,"x_min":13,"x_max":794,"o":"m 794 961 l 774 803 q 528 804 714 804 q 435 783 463 804 q 403 704 408 763 l 394 560 l 642 560 l 621 451 l 388 451 l 383 389 q 347 253 378 303 q 251 158 315 204 q 353 171 286 171 l 719 171 l 696 0 l 13 0 l 33 174 q 176 397 164 229 l 181 451 l 74 451 l 88 560 l 188 560 l 199 719 q 282 924 211 872 q 506 975 353 975 q 794 961 638 975 z "},"¤":{"ha":813,"x_min":50,"x_max":785,"o":"m 785 729 l 676 633 q 696 481 708 565 q 636 329 686 396 l 729 229 l 638 146 l 544 249 q 388 208 476 208 q 235 253 299 208 l 132 161 l 50 253 l 156 347 q 136 497 124 417 q 197 651 146 583 l 107 751 l 199 836 l 290 732 q 443 771 360 771 q 597 728 533 771 l 703 822 l 785 729 m 253 488 q 283 367 243 411 q 393 322 322 322 q 520 368 469 322 q 579 493 571 414 q 549 613 589 568 q 438 657 510 657 q 312 611 361 657 q 253 488 263 565 z "},"¥":{"ha":907,"x_min":93,"x_max":947,"o":"m 647 486 l 788 486 l 769 356 l 117 356 l 133 486 l 276 486 l 110 958 l 322 958 l 429 610 q 447 486 444 556 l 464 486 q 513 613 474 540 l 721 958 l 947 958 l 647 486 m 110 315 l 765 315 l 747 185 l 524 185 l 499 0 l 285 0 l 313 185 l 93 185 l 110 315 z "},"¦":{"ha":363,"x_min":19,"x_max":350,"o":"m 271 529 l 126 529 l 206 1085 l 350 1085 l 271 529 m 164 -235 l 19 -235 l 97 321 l 242 321 l 164 -235 z "},"§":{"ha":754,"x_min":-4,"x_max":747,"o":"m 424 431 l 229 556 q 165 606 189 582 q 125 674 140 629 q 118 779 110 719 q 211 936 133 896 q 435 976 289 976 q 747 960 608 976 l 724 813 q 489 817 661 817 q 374 807 407 818 q 336 758 342 796 q 346 708 332 729 q 394 667 360 688 l 560 568 q 676 427 660 510 q 636 226 692 344 l 493 231 q 495 352 508 311 q 424 431 482 393 m 106 499 l 250 494 q 247 374 235 413 q 318 299 258 336 l 514 178 q 575 133 553 153 q 615 64 597 113 q 624 -51 633 15 q 591 -153 615 -114 q 524 -214 567 -193 q 431 -242 481 -235 q 307 -249 382 -249 q -4 -232 139 -249 l 19 -85 q 243 -90 164 -90 q 363 -79 326 -90 q 406 -28 399 -68 q 399 22 411 3 q 354 58 386 40 l 185 160 q 67 297 83 215 q 106 499 50 379 z "},"¨":{"ha":588,"x_min":165,"x_max":581,"o":"m 471 983 l 542 983 q 581 940 586 983 l 567 853 q 521 811 563 811 l 447 811 q 408 853 403 811 l 422 940 q 471 983 428 983 m 229 983 l 299 983 q 338 940 343 983 l 324 853 q 278 811 319 811 l 204 811 q 165 853 161 811 l 179 939 q 229 983 185 983 z "},"©":{"ha":1126,"x_min":72,"x_max":1075,"o":"m 619 976 q 974 837 847 976 q 1075 471 1101 697 q 901 117 1050 253 q 525 -18 751 -18 q 170 122 296 -18 q 72 488 44 263 q 247 841 99 706 q 619 976 396 976 m 625 882 q 317 769 440 882 q 174 471 193 656 q 249 184 154 292 q 522 76 344 76 q 828 189 704 76 q 974 488 953 301 q 899 773 993 664 q 625 882 806 882 m 743 328 l 751 217 q 564 192 667 192 q 344 258 400 192 q 311 489 289 324 q 401 709 332 649 q 625 769 469 769 q 801 749 718 769 l 785 639 q 624 642 663 642 q 509 613 540 642 q 465 479 478 583 q 471 353 453 385 q 554 322 489 322 q 743 328 667 319 z "},"ª":{"ha":622,"x_min":90,"x_max":596,"o":"m 533 382 l 414 382 l 414 457 q 231 372 343 374 q 106 429 139 369 q 90 621 72 489 q 117 728 99 685 q 157 797 136 772 q 213 833 178 821 q 276 849 247 846 q 353 851 306 851 q 596 824 489 854 l 533 382 m 436 744 l 365 744 q 279 724 301 744 q 244 618 257 703 q 240 514 233 536 q 278 493 247 492 q 411 574 335 493 l 436 744 z "},"«":{"ha":713,"x_min":39,"x_max":672,"o":"m 383 574 l 214 349 l 336 114 l 232 44 l 39 331 l 42 375 l 286 646 l 383 574 m 672 574 l 503 349 l 624 114 l 519 44 l 326 331 l 329 375 l 574 646 l 672 574 z "},"¬":{"ha":804,"x_min":69,"x_max":729,"o":"m 729 496 l 685 188 l 526 188 l 549 344 l 69 344 l 92 496 l 729 496 z "},"­":{"ha":575,"x_min":63,"x_max":496,"o":"m 476 286 l 63 286 l 82 421 l 496 421 l 476 286 z "},"®":{"ha":729,"x_min":93,"x_max":708,"o":"m 433 976 q 644 891 564 976 q 708 660 725 806 q 601 440 692 521 q 371 358 511 358 q 153 447 232 358 q 93 675 75 536 q 201 894 110 813 q 433 976 292 976 m 650 675 q 599 856 661 790 q 429 921 538 921 q 238 851 310 921 q 151 664 165 781 q 201 479 139 546 q 374 413 264 413 q 565 483 492 413 q 650 675 638 553 m 240 510 l 286 833 q 431 838 333 838 q 536 816 501 838 q 563 736 571 794 q 489 661 556 675 l 488 658 q 525 607 517 650 l 544 510 l 454 510 l 439 608 q 407 633 433 633 l 344 633 l 328 510 l 240 510 m 353 690 l 410 690 q 458 699 444 692 q 475 735 471 707 q 469 767 478 760 q 432 775 461 775 l 364 775 l 353 690 z "},"¯":{"ha":556,"x_min":139,"x_max":572,"o":"m 554 831 l 139 831 l 157 963 l 572 963 l 554 831 z "},"°":{"ha":482,"x_min":106,"x_max":483,"o":"m 304 974 q 442 919 390 974 q 483 783 493 864 q 420 656 475 704 q 282 607 365 607 q 147 662 196 607 q 106 799 97 717 q 167 925 113 876 q 304 974 221 974 m 300 872 q 240 851 263 872 q 214 794 217 831 q 231 732 210 756 q 289 708 251 708 q 349 730 325 708 q 375 789 372 751 q 358 849 378 825 q 300 872 339 872 z "},"±":{"ha":793,"x_min":32,"x_max":740,"o":"m 740 593 l 718 442 l 478 442 l 454 276 l 303 276 l 326 442 l 86 442 l 108 593 l 347 593 l 371 760 l 524 760 l 500 593 l 740 593 m 54 213 l 686 213 l 664 63 l 32 63 l 54 213 z "},"²":{"ha":574,"x_min":82,"x_max":565,"o":"m 161 951 l 161 1067 q 361 1085 256 1085 q 522 1053 467 1085 q 565 935 576 1022 q 535 853 560 890 q 451 767 511 817 l 288 632 q 371 638 331 642 l 539 638 l 519 500 l 82 500 l 94 590 q 118 653 100 638 l 269 782 q 400 922 388 876 q 392 949 406 942 q 347 957 379 957 q 161 951 268 957 z "},"³":{"ha":547,"x_min":81,"x_max":547,"o":"m 163 957 l 163 1071 q 354 1086 260 1086 q 510 1052 465 1086 q 547 946 554 1018 q 515 850 542 893 q 435 803 489 807 l 433 800 q 526 653 546 783 q 460 533 515 576 q 279 489 406 490 q 81 504 207 488 l 93 619 q 264 617 260 617 q 372 688 363 622 q 364 732 378 718 q 311 746 350 746 l 188 746 l 201 850 l 321 850 q 378 866 361 850 q 397 915 394 882 q 387 951 400 942 q 326 960 374 960 q 163 957 288 960 z "},"´":{"ha":490,"x_min":133,"x_max":515,"o":"m 515 876 l 185 728 l 133 817 l 436 1025 l 515 876 z "},"¶":{"ha":821,"x_min":68,"x_max":779,"o":"m 646 0 l 511 0 l 629 849 q 547 850 599 850 l 386 -292 l 251 -292 l 331 279 q 108 384 171 297 q 68 633 44 471 q 201 899 94 822 q 538 975 308 975 q 779 951 679 975 l 646 0 z "},"·":{"ha":349,"x_min":64,"x_max":271,"o":"m 153 464 l 203 464 q 271 388 283 464 l 263 322 q 185 253 254 253 l 133 253 q 64 329 53 253 l 74 396 q 153 464 82 464 z "},"¸":{"ha":344,"x_min":-56,"x_max":242,"o":"m 29 -133 l 50 -53 q 206 -60 158 -40 q 242 -150 254 -79 q 142 -298 225 -250 q -56 -329 60 -346 l -28 -240 q 62 -221 24 -242 q 108 -160 100 -200 q 98 -138 111 -143 q 29 -133 85 -133 z "},"¹":{"ha":417,"x_min":113,"x_max":426,"o":"m 346 500 l 190 500 l 244 879 q 260 947 253 929 l 117 914 l 113 1019 l 271 1075 l 426 1075 l 346 500 z "},"º":{"ha":607,"x_min":86,"x_max":575,"o":"m 353 854 q 542 797 490 854 q 575 603 594 739 q 498 422 557 474 q 308 371 439 371 q 121 428 174 371 q 86 618 68 485 q 164 801 104 749 q 353 854 224 854 m 351 743 q 274 715 296 743 q 240 603 251 688 q 244 507 231 533 q 311 481 258 481 q 387 509 364 481 q 421 618 410 538 q 417 719 431 694 q 351 743 403 743 z "},"»":{"ha":715,"x_min":24,"x_max":657,"o":"m 24 114 l 194 339 l 72 574 l 176 643 l 369 357 l 367 313 l 122 43 l 24 114 m 313 114 l 482 339 l 360 574 l 464 643 l 657 357 l 654 313 l 410 43 l 313 114 z "},"¼":{"ha":1254,"x_min":106,"x_max":1188,"o":"m 183 383 l 236 764 q 251 833 246 818 l 110 800 l 106 901 l 264 958 l 421 958 l 340 383 l 183 383 m 1000 958 l 288 0 l 150 0 l 863 958 l 1000 958 m 1174 132 l 1101 119 l 1085 0 l 943 0 l 958 119 l 714 119 q 653 150 671 119 q 660 224 636 181 l 864 575 l 1010 575 l 828 250 q 840 228 818 228 l 974 228 l 993 369 l 1032 463 l 1150 463 l 1117 228 l 1188 228 l 1174 132 z "},"½":{"ha":1261,"x_min":106,"x_max":1194,"o":"m 340 383 l 182 383 l 236 764 q 251 833 240 801 l 110 800 l 106 901 l 264 958 l 421 958 l 340 383 m 279 0 l 143 0 l 854 958 l 992 958 l 279 0 m 772 453 l 772 567 q 975 585 872 585 q 1153 553 1099 585 q 1194 429 1208 521 q 1078 265 1183 351 l 900 129 q 985 136 932 136 l 1172 133 l 1154 0 l 692 0 l 704 86 q 729 150 708 129 l 888 278 q 1022 418 1003 368 q 1017 449 1031 440 q 967 457 1003 457 q 772 453 900 457 z "},"¾":{"ha":1361,"x_min":63,"x_max":1296,"o":"m 424 689 l 417 685 q 508 638 483 676 q 524 533 532 600 q 459 409 513 449 q 282 369 406 369 q 63 386 199 369 l 72 500 q 250 496 154 496 q 337 513 311 496 q 368 571 363 531 q 359 613 372 599 q 300 628 346 626 l 172 628 l 186 731 l 310 731 q 392 797 386 731 q 383 834 396 825 q 324 843 369 843 q 237 842 297 843 q 144 842 176 842 l 143 953 q 342 968 242 968 q 513 937 467 968 q 547 826 558 906 q 424 689 532 701 m 1124 958 l 413 0 l 275 0 l 986 958 l 1124 958 m 1282 133 l 1210 121 l 1193 1 l 1051 1 l 1068 119 l 824 119 q 763 151 781 119 q 769 225 746 182 l 972 576 l 1119 576 l 936 251 q 949 229 926 229 l 1082 229 l 1101 369 l 1140 464 l 1258 464 l 1225 229 l 1296 229 l 1282 133 z "},"¿":{"ha":707,"x_min":-28,"x_max":582,"o":"m 386 707 l 431 707 q 499 631 511 707 l 489 564 q 411 496 481 496 l 367 496 q 300 571 289 496 l 308 639 q 386 707 317 707 m 289 400 l 453 400 q 419 272 446 331 q 359 173 393 213 q 292 100 325 133 q 231 33 258 67 q 196 -29 204 0 q 208 -94 185 -74 q 297 -115 231 -115 q 582 -108 476 -115 l 582 -249 q 540 -256 571 -250 q 499 -264 508 -262 q 463 -269 489 -265 q 419 -275 436 -274 q 374 -278 401 -276 q 315 -281 346 -281 q 249 -282 285 -282 q 28 -223 99 -282 q -28 -60 -42 -164 q 10 42 -21 -4 q 81 124 40 89 q 164 197 122 160 q 240 285 206 233 q 289 400 275 338 z "},"À":{"ha":899,"x_min":-54,"x_max":843,"o":"m 578 1004 l 271 1163 l 363 1297 l 646 1092 l 578 1004 m 600 250 l 269 250 l 167 0 l -54 0 l 349 907 q 425 958 368 958 l 625 958 q 672 941 651 958 q 693 899 692 924 l 843 0 l 632 0 l 600 250 m 578 418 l 540 708 q 533 801 536 739 l 493 801 q 460 710 468 731 l 339 418 l 578 418 z "},"Á":{"ha":899,"x_min":-54,"x_max":843,"o":"m 482 1004 l 431 1092 l 733 1301 l 813 1151 l 482 1004 m 600 250 l 269 250 l 167 0 l -54 0 l 349 907 q 425 958 368 958 l 625 958 q 672 941 651 958 q 693 899 692 924 l 843 0 l 632 0 l 600 250 m 578 418 l 540 708 q 533 801 536 739 l 493 801 q 460 710 468 731 l 339 418 l 578 418 z "},"Â":{"ha":899,"x_min":-54,"x_max":843,"o":"m 335 1004 l 283 1082 l 490 1267 l 631 1267 l 807 1074 l 744 1001 l 563 1138 l 551 1138 l 335 1004 m 600 250 l 269 250 l 167 0 l -54 0 l 349 907 q 425 958 368 958 l 625 958 q 672 941 651 958 q 693 899 692 924 l 843 0 l 632 0 l 600 250 m 578 418 l 540 708 q 533 801 536 739 l 493 801 q 460 710 468 731 l 339 418 l 578 418 z "},"Ã":{"ha":899,"x_min":-54,"x_max":843,"o":"m 714 1244 l 801 1238 q 767 1092 803 1142 q 674 1046 732 1043 q 551 1081 624 1049 q 460 1115 479 1113 q 408 1103 424 1121 q 388 1047 393 1086 l 300 1056 q 337 1202 300 1153 q 431 1249 374 1251 q 547 1215 476 1246 q 640 1181 617 1185 q 714 1244 706 1169 m 600 250 l 269 250 l 167 0 l -54 0 l 349 907 q 425 958 368 958 l 625 958 q 672 941 651 958 q 693 899 692 924 l 843 0 l 632 0 l 600 250 m 578 418 l 540 708 q 533 801 536 739 l 493 801 q 460 710 468 731 l 339 418 l 578 418 z "},"Ä":{"ha":899,"x_min":-54,"x_max":843,"o":"m 458 1060 l 385 1060 q 346 1100 340 1060 l 360 1188 q 410 1231 365 1231 l 478 1231 q 518 1189 524 1231 l 504 1101 q 458 1060 499 1060 m 701 1060 l 628 1060 q 589 1100 583 1060 l 603 1188 q 651 1231 608 1231 l 721 1231 q 761 1189 767 1231 l 747 1101 q 701 1060 742 1060 m 600 250 l 269 250 l 167 0 l -54 0 l 349 907 q 425 958 368 958 l 625 958 q 672 941 651 958 q 693 899 692 924 l 843 0 l 632 0 l 600 250 m 578 418 l 540 708 q 533 801 536 739 l 493 801 q 460 710 468 731 l 339 418 l 578 418 z "},"Å":{"ha":899,"x_min":-54,"x_max":843,"o":"m 549 993 q 430 1040 475 993 q 393 1157 385 1088 q 446 1264 400 1221 q 563 1307 492 1307 q 681 1260 635 1307 q 718 1142 728 1213 q 665 1035 710 1078 q 549 993 619 993 m 486 1151 q 501 1097 483 1117 q 550 1078 519 1078 q 602 1099 582 1078 q 625 1153 622 1119 q 610 1203 628 1185 q 561 1222 592 1222 q 510 1202 531 1222 q 486 1151 489 1182 m 600 250 l 269 250 l 167 0 l -54 0 l 349 907 q 425 958 368 958 l 625 958 q 672 941 651 958 q 693 899 692 924 l 843 0 l 632 0 l 600 250 m 578 418 l 540 708 q 533 801 536 739 l 493 801 q 460 710 468 731 l 339 418 l 578 418 z "},"Æ":{"ha":1293,"x_min":-71,"x_max":1310,"o":"m 1283 793 l 946 793 q 886 776 907 793 q 860 718 865 760 l 839 571 l 1200 571 l 1182 425 l 818 425 l 792 238 q 801 181 788 197 q 854 165 814 165 l 1194 165 l 1189 10 q 779 -4 1057 -4 q 628 54 679 -4 q 592 211 578 113 l 599 258 l 317 258 l 150 0 l -71 0 l 440 779 q 593 922 507 883 q 858 960 679 960 q 1310 949 1165 960 l 1283 793 m 622 426 l 665 738 q 707 829 672 792 l 697 829 q 632 749 665 799 l 425 426 l 622 426 z "},"Ç":{"ha":810,"x_min":75,"x_max":822,"o":"m 717 179 l 725 21 q 419 -17 600 -17 q 117 101 197 -17 q 75 488 38 218 q 214 870 114 765 q 536 975 314 975 q 822 942 696 975 l 794 785 q 528 792 682 792 q 413 768 454 792 q 342 676 371 744 q 296 471 314 607 q 297 229 271 292 q 426 167 324 167 q 717 179 592 165 m 274 -161 l 294 -81 q 451 -87 404 -68 q 488 -178 499 -107 q 388 -326 471 -278 q 189 -357 304 -374 l 218 -268 q 307 -249 269 -269 q 353 -187 344 -228 q 342 -166 356 -171 q 274 -161 329 -161 z "},"È":{"ha":794,"x_min":63,"x_max":810,"o":"m 564 1021 l 257 1179 l 349 1314 l 631 1107 l 564 1021 m 783 792 l 425 792 q 367 776 385 792 q 344 717 350 760 l 324 572 l 701 572 l 682 422 l 303 422 l 278 238 q 287 183 272 199 q 340 167 301 167 l 694 167 l 689 10 q 274 -4 567 -4 q 103 58 157 -4 q 63 226 49 119 l 139 774 q 210 913 151 863 q 368 963 269 963 q 810 947 671 963 l 783 792 z "},"É":{"ha":794,"x_min":63,"x_max":810,"o":"m 468 1021 l 417 1108 l 719 1318 l 799 1168 l 468 1021 m 783 792 l 425 792 q 367 776 385 792 q 344 717 350 760 l 324 572 l 701 572 l 682 422 l 303 422 l 278 238 q 287 183 272 199 q 340 167 301 167 l 694 167 l 689 10 q 274 -4 567 -4 q 103 58 157 -4 q 63 226 49 119 l 139 774 q 210 913 151 863 q 368 963 269 963 q 810 947 671 963 l 783 792 z "},"Ê":{"ha":794,"x_min":63,"x_max":810,"o":"m 321 1019 l 269 1097 l 476 1282 l 617 1282 l 793 1090 l 731 1017 l 549 1154 l 538 1154 l 321 1019 m 783 792 l 425 792 q 367 776 385 792 q 344 717 350 760 l 324 572 l 701 572 l 682 422 l 303 422 l 278 238 q 287 183 272 199 q 340 167 301 167 l 694 167 l 689 10 q 274 -4 567 -4 q 103 58 157 -4 q 63 226 49 119 l 139 774 q 210 913 151 863 q 368 963 269 963 q 810 947 671 963 l 783 792 z "},"Ë":{"ha":794,"x_min":63,"x_max":810,"o":"m 688 1076 l 614 1076 q 575 1117 569 1076 l 589 1204 q 638 1247 594 1247 l 707 1247 q 747 1204 753 1247 l 733 1118 q 688 1076 728 1076 m 444 1076 l 371 1076 q 332 1117 326 1076 l 346 1204 q 396 1247 351 1247 l 464 1247 q 504 1204 510 1247 l 490 1117 q 444 1076 485 1076 m 783 792 l 425 792 q 367 776 385 792 q 344 717 350 760 l 324 572 l 701 572 l 682 422 l 303 422 l 278 238 q 287 183 272 199 q 340 167 301 167 l 694 167 l 689 10 q 274 -4 567 -4 q 103 58 157 -4 q 63 226 49 119 l 139 774 q 210 913 151 863 q 368 963 269 963 q 810 947 671 963 l 783 792 z "},"Ì":{"ha":406,"x_min":24,"x_max":399,"o":"m 399 1092 l 331 1004 l 24 1163 l 115 1297 l 399 1092 m 251 0 l 39 0 l 174 958 l 386 958 l 251 0 z "},"Í":{"ha":406,"x_min":39,"x_max":565,"o":"m 565 1151 l 235 1004 l 183 1092 l 488 1301 l 565 1151 m 251 0 l 39 0 l 174 958 l 386 958 l 251 0 z "},"Î":{"ha":406,"x_min":38,"x_max":560,"o":"m 560 1074 l 497 1001 l 315 1138 l 304 1138 l 89 1004 l 38 1082 l 243 1267 l 383 1267 l 560 1074 m 251 0 l 39 0 l 174 958 l 386 958 l 251 0 z "},"Ï":{"ha":406,"x_min":39,"x_max":514,"o":"m 404 1231 l 475 1231 q 514 1189 519 1231 l 500 1101 q 454 1060 496 1060 l 381 1060 q 342 1100 338 1060 l 356 1188 q 404 1231 361 1231 m 163 1231 l 232 1231 q 265 1221 257 1231 q 271 1189 274 1211 l 257 1101 q 211 1060 253 1060 l 138 1060 q 99 1100 94 1060 l 113 1188 q 163 1231 118 1231 m 251 0 l 39 0 l 174 958 l 386 958 l 251 0 z "},"Ð":{"ha":942,"x_min":26,"x_max":886,"o":"m 118 558 l 174 958 q 517 971 354 971 q 763 926 675 971 q 881 772 850 882 q 886 471 913 663 q 830 221 864 315 q 735 74 796 126 q 600 5 675 22 q 401 -12 525 -12 q 39 0 244 -12 l 103 453 l 26 453 l 40 558 l 118 558 m 314 453 l 272 156 q 339 155 296 156 q 399 154 382 154 q 505 166 465 154 q 578 213 544 178 q 630 314 611 249 q 664 488 649 379 q 680 651 679 592 q 662 747 681 711 q 608 794 643 783 q 510 806 574 806 l 364 804 l 329 558 l 499 558 l 485 453 l 314 453 z "},"Ñ":{"ha":996,"x_min":39,"x_max":978,"o":"m 438 1047 l 351 1056 q 388 1202 351 1153 q 481 1249 424 1251 q 597 1215 528 1246 q 690 1181 667 1185 q 744 1191 728 1175 q 765 1244 760 1207 l 851 1238 q 817 1092 853 1142 q 724 1046 782 1043 q 602 1081 674 1049 q 511 1115 531 1113 q 459 1103 475 1121 q 438 1047 443 1086 m 978 958 l 853 72 q 774 0 843 0 l 656 0 q 608 15 624 0 q 576 67 592 31 l 386 578 q 344 722 360 647 l 331 722 q 319 572 328 638 l 240 0 l 39 0 l 164 886 q 244 958 174 958 l 361 958 q 408 942 392 958 q 439 892 425 926 l 624 397 q 674 242 656 313 l 690 242 q 700 396 690 324 l 776 958 l 978 958 z "},"Ò":{"ha":944,"x_min":75,"x_max":890,"o":"m 668 1092 l 600 1004 l 293 1163 l 385 1297 l 668 1092 m 216 870 q 267 923 216 870 q 539 976 318 976 q 844 863 760 976 q 890 471 929 750 q 751 86 853 190 q 429 -18 649 -18 q 121 93 204 -18 q 75 488 38 204 q 216 870 114 764 m 532 806 q 374 738 421 806 q 297 471 326 671 q 299 218 271 283 q 433 153 326 153 q 592 222 543 153 q 669 488 640 290 q 669 742 697 678 q 532 806 640 806 z "},"Ó":{"ha":944,"x_min":75,"x_max":890,"o":"m 835 1151 l 506 1004 l 453 1092 l 757 1301 l 835 1151 m 216 870 q 267 923 216 870 q 539 976 318 976 q 844 863 760 976 q 890 471 929 750 q 751 86 853 190 q 429 -18 649 -18 q 121 93 204 -18 q 75 488 38 204 q 216 870 114 764 m 532 806 q 374 738 421 806 q 297 471 326 671 q 299 218 271 283 q 433 153 326 153 q 592 222 543 153 q 669 488 640 290 q 669 742 697 678 q 532 806 640 806 z "},"Ô":{"ha":944,"x_min":75,"x_max":890,"o":"m 831 1074 l 767 1001 l 585 1138 l 574 1138 l 358 1004 l 307 1082 l 513 1267 l 653 1267 l 831 1074 m 216 870 q 267 923 216 870 q 539 976 318 976 q 844 863 760 976 q 890 471 929 750 q 751 86 853 190 q 429 -18 649 -18 q 121 93 204 -18 q 75 488 38 204 q 216 870 114 764 m 532 806 q 374 738 421 806 q 297 471 326 671 q 299 218 271 283 q 433 153 326 153 q 592 222 543 153 q 669 488 640 290 q 669 742 697 678 q 532 806 640 806 z "},"Õ":{"ha":944,"x_min":75,"x_max":890,"o":"m 410 1047 l 322 1056 q 360 1202 324 1153 q 453 1249 396 1251 q 569 1215 499 1246 q 663 1181 639 1185 q 716 1191 700 1175 q 738 1244 732 1207 l 824 1238 q 790 1092 825 1142 q 696 1046 754 1043 q 574 1081 646 1049 q 483 1115 503 1113 q 431 1103 447 1121 q 410 1047 415 1086 m 216 870 q 267 923 216 870 q 539 976 318 976 q 844 863 760 976 q 890 471 929 750 q 751 86 853 190 q 429 -18 649 -18 q 121 93 204 -18 q 75 488 38 204 q 216 870 114 764 m 532 806 q 374 738 421 806 q 297 471 326 671 q 299 218 271 283 q 433 153 326 153 q 592 222 543 153 q 669 488 640 290 q 669 742 697 678 q 532 806 640 806 z "},"Ö":{"ha":944,"x_min":75,"x_max":890,"o":"m 674 1231 l 744 1231 q 783 1189 789 1231 l 769 1101 q 725 1060 765 1060 l 650 1060 q 613 1100 607 1060 l 625 1188 q 674 1231 633 1231 m 432 1231 l 501 1231 q 535 1221 526 1231 q 540 1189 543 1211 l 526 1101 q 482 1060 522 1060 l 407 1060 q 369 1100 364 1060 l 382 1188 q 432 1231 388 1231 m 216 870 q 267 923 216 870 q 539 976 318 976 q 844 863 760 976 q 890 471 929 750 q 751 86 853 190 q 429 -18 649 -18 q 121 93 204 -18 q 75 488 38 204 q 216 870 114 764 m 532 806 q 374 738 421 806 q 297 471 326 671 q 299 218 271 283 q 433 153 326 153 q 592 222 543 153 q 669 488 640 290 q 669 742 697 678 q 532 806 640 806 z "},"×":{"ha":729,"x_min":36,"x_max":693,"o":"m 478 399 l 640 233 l 531 117 l 353 300 l 119 115 l 36 242 l 247 407 l 88 572 l 197 683 l 372 506 l 611 694 l 693 569 l 478 399 z "},"Ø":{"ha":944,"x_min":64,"x_max":915,"o":"m 915 1036 l 826 886 q 890 471 933 771 q 751 86 853 190 q 429 -18 649 -18 q 294 -7 349 -18 l 211 -143 l 64 -65 l 144 67 q 75 488 33 178 q 216 870 114 764 q 539 976 318 976 q 678 964 617 976 l 768 1113 l 915 1036 m 669 488 q 669 742 697 678 q 532 806 640 806 q 374 738 421 806 q 297 471 326 671 q 299 218 271 283 q 433 153 326 153 q 592 222 543 153 q 669 488 640 290 z "},"Ù":{"ha":940,"x_min":85,"x_max":931,"o":"m 665 1092 l 597 1004 l 290 1163 l 382 1297 l 665 1092 m 931 958 l 847 378 q 722 70 815 158 q 429 -18 629 -18 q 140 76 225 -18 q 85 386 56 171 l 165 958 l 378 958 l 296 378 q 304 200 276 247 q 429 153 332 153 q 574 203 529 153 q 638 386 618 253 l 718 958 l 931 958 z "},"Ú":{"ha":940,"x_min":85,"x_max":931,"o":"m 832 1151 l 503 1004 l 450 1092 l 754 1301 l 832 1151 m 931 958 l 847 378 q 722 70 815 158 q 429 -18 629 -18 q 140 76 225 -18 q 85 386 56 171 l 165 958 l 378 958 l 296 378 q 304 200 276 247 q 429 153 332 153 q 574 203 529 153 q 638 386 618 253 l 718 958 l 931 958 z "},"Û":{"ha":940,"x_min":85,"x_max":931,"o":"m 828 1074 l 764 1001 l 582 1138 l 571 1138 l 356 1004 l 304 1082 l 510 1267 l 650 1267 l 828 1074 m 931 958 l 847 378 q 722 70 815 158 q 429 -18 629 -18 q 140 76 225 -18 q 85 386 56 171 l 165 958 l 378 958 l 296 378 q 304 200 276 247 q 429 153 332 153 q 574 203 529 153 q 638 386 618 253 l 718 958 l 931 958 z "},"Ü":{"ha":940,"x_min":85,"x_max":931,"o":"m 671 1231 l 742 1231 q 781 1189 786 1231 l 767 1101 q 722 1060 763 1060 l 647 1060 q 608 1100 604 1060 l 622 1188 q 671 1231 631 1231 m 429 1231 l 499 1231 q 532 1221 524 1231 q 538 1189 540 1211 l 524 1101 q 479 1060 519 1060 l 404 1060 q 365 1100 361 1060 l 379 1188 q 429 1231 385 1231 m 931 958 l 847 378 q 722 70 815 158 q 429 -18 629 -18 q 140 76 225 -18 q 85 386 56 171 l 165 958 l 378 958 l 296 378 q 304 200 276 247 q 429 153 332 153 q 574 203 529 153 q 638 386 618 253 l 718 958 l 931 958 z "},"Ý":{"ha":840,"x_min":76,"x_max":917,"o":"m 446 1004 l 394 1092 l 697 1301 l 775 1151 l 446 1004 m 510 313 l 467 0 l 253 0 l 299 324 l 76 958 l 289 958 l 397 603 q 415 479 413 542 l 431 479 q 481 606 444 543 l 689 958 l 917 958 l 510 313 z "},"Þ":{"ha":846,"x_min":39,"x_max":814,"o":"m 386 958 l 364 797 l 501 797 q 765 726 690 797 q 814 472 839 656 q 712 229 789 293 q 463 165 635 165 q 276 178 379 165 l 251 0 l 39 0 l 174 958 l 386 958 m 297 329 l 440 329 q 556 360 522 329 q 603 489 589 392 q 594 606 615 576 q 496 635 572 635 l 340 633 l 297 329 z "},"ß":{"ha":974,"x_min":-147,"x_max":914,"o":"m 724 433 l 822 360 q 901 269 881 313 q 914 164 922 226 q 834 24 899 63 q 628 -15 769 -15 q 397 0 525 -15 l 418 139 q 582 136 535 136 q 677 147 649 136 q 708 193 706 158 q 697 235 711 218 q 638 292 683 253 l 546 354 q 463 519 450 428 q 488 581 467 551 q 531 630 510 611 q 604 689 553 649 q 672 751 654 728 q 694 803 690 775 q 676 851 699 836 q 574 865 653 865 q 442 840 479 865 q 396 743 406 815 l 283 -62 q 208 -218 267 -165 q 36 -271 150 -271 q -147 -256 -18 -271 l -115 -119 l -26 -119 q 51 -101 28 -119 q 85 -28 75 -82 l 165 547 l 46 547 l 63 678 l 185 685 l 197 774 q 299 967 217 917 q 563 1017 382 1017 q 835 967 764 1017 q 886 800 906 918 q 774 628 871 704 q 736 599 764 619 q 697 570 708 579 q 674 546 686 561 q 658 517 661 531 q 714 442 653 488 q 724 433 719 436 z "},"à":{"ha":819,"x_min":51,"x_max":774,"o":"m 506 751 l 199 908 l 290 1044 l 574 838 l 506 751 m 681 0 l 521 0 l 522 124 q 242 -17 417 -12 q 67 67 113 -21 q 51 356 22 156 q 90 515 65 450 q 146 617 115 579 q 225 674 176 654 q 319 699 274 693 q 433 704 364 704 q 610 692 507 704 q 774 663 713 679 l 681 0 m 554 553 l 449 553 q 313 518 349 553 q 258 353 276 483 q 250 184 240 221 q 310 150 260 147 q 515 279 401 151 l 554 553 z "},"á":{"ha":819,"x_min":51,"x_max":774,"o":"m 411 751 l 360 839 l 663 1047 l 740 899 l 411 751 m 681 0 l 521 0 l 522 124 q 242 -17 417 -12 q 67 67 113 -21 q 51 356 22 156 q 90 515 65 450 q 146 617 115 579 q 225 674 176 654 q 319 699 274 693 q 433 704 364 704 q 610 692 507 704 q 774 663 713 679 l 681 0 m 554 553 l 449 553 q 313 518 349 553 q 258 353 276 483 q 250 184 240 221 q 310 150 260 147 q 515 279 401 151 l 554 553 z "},"â":{"ha":819,"x_min":51,"x_max":774,"o":"m 264 750 l 213 828 l 418 1013 l 558 1013 l 736 819 l 674 747 l 490 885 l 479 885 l 264 750 m 681 0 l 521 0 l 522 124 q 242 -17 417 -12 q 67 67 113 -21 q 51 356 22 156 q 90 515 65 450 q 146 617 115 579 q 225 674 176 654 q 319 699 274 693 q 433 704 364 704 q 610 692 507 704 q 774 663 713 679 l 681 0 m 554 553 l 449 553 q 313 518 349 553 q 258 353 276 483 q 250 184 240 221 q 310 150 260 147 q 515 279 401 151 l 554 553 z "},"ã":{"ha":819,"x_min":51,"x_max":774,"o":"m 643 992 l 729 983 q 695 839 731 888 q 601 793 660 790 q 480 827 551 796 q 389 861 408 858 q 337 850 353 867 q 315 794 321 833 l 229 801 q 265 949 229 900 q 358 994 301 997 q 474 962 404 992 q 568 928 543 932 q 622 938 606 922 q 643 992 638 953 m 681 0 l 521 0 l 522 124 q 242 -17 417 -12 q 67 67 113 -21 q 51 356 22 156 q 90 515 65 450 q 146 617 115 579 q 225 674 176 654 q 319 699 274 693 q 433 704 364 704 q 610 692 507 704 q 774 663 713 679 l 681 0 m 554 553 l 449 553 q 313 518 349 553 q 258 353 276 483 q 250 184 240 221 q 310 150 260 147 q 515 279 401 151 l 554 553 z "},"ä":{"ha":819,"x_min":51,"x_max":774,"o":"m 388 806 l 313 806 q 275 847 269 806 l 288 933 q 338 978 293 978 l 407 978 q 446 935 454 978 l 432 847 q 388 806 428 806 m 631 806 l 556 806 q 518 847 511 806 l 531 935 q 579 978 539 978 l 650 978 q 689 935 697 978 l 675 847 q 631 806 671 806 m 681 0 l 521 0 l 522 124 q 242 -17 417 -12 q 67 67 113 -21 q 51 356 22 156 q 90 515 65 450 q 146 617 115 579 q 225 674 176 654 q 319 699 274 693 q 433 704 364 704 q 610 692 507 704 q 774 663 713 679 l 681 0 m 554 553 l 449 553 q 313 518 349 553 q 258 353 276 483 q 250 184 240 221 q 310 150 260 147 q 515 279 401 151 l 554 553 z "},"å":{"ha":819,"x_min":51,"x_max":774,"o":"m 476 739 q 358 786 403 739 q 322 904 313 833 q 374 1010 329 967 q 490 1054 419 1054 q 610 1007 564 1054 q 647 889 656 960 q 593 782 639 825 q 476 739 547 739 m 415 899 q 430 844 411 864 q 479 825 449 825 q 531 846 511 825 q 554 900 551 867 q 538 949 557 931 q 489 968 519 968 q 438 949 458 968 q 415 899 418 929 m 681 0 l 521 0 l 522 124 q 242 -17 417 -12 q 67 67 113 -21 q 51 356 22 156 q 90 515 65 450 q 146 617 115 579 q 225 674 176 654 q 319 699 274 693 q 433 704 364 704 q 610 692 507 704 q 774 663 713 679 l 681 0 m 554 553 l 449 553 q 313 518 349 553 q 258 353 276 483 q 250 184 240 221 q 310 150 260 147 q 515 279 401 151 l 554 553 z "},"æ":{"ha":1238,"x_min":51,"x_max":1199,"o":"m 1111 163 l 1124 32 q 831 -17 1014 -17 q 528 133 589 -17 q 242 -17 421 -12 q 68 67 113 -21 q 51 356 24 156 q 88 515 64 450 q 140 616 113 579 q 213 673 168 653 q 300 699 258 693 q 407 704 342 704 q 707 676 565 704 q 906 704 782 704 q 1149 644 1085 704 q 1199 468 1214 585 q 1119 329 1183 371 q 919 278 1054 288 l 715 261 q 749 170 717 193 q 854 147 782 147 q 1111 163 986 147 m 726 383 l 888 399 q 968 421 943 403 q 999 488 993 439 q 982 544 1004 533 q 892 554 960 556 q 778 520 811 554 q 726 383 744 486 m 311 150 q 506 271 399 150 q 511 357 506 296 q 564 551 528 482 l 447 553 q 313 519 347 553 q 261 353 279 485 q 252 184 243 221 q 311 150 261 147 z "},"ç":{"ha":704,"x_min":46,"x_max":686,"o":"m 604 163 l 618 28 q 351 -17 513 -17 q 92 69 165 -17 q 46 351 18 156 q 157 624 74 544 q 424 704 240 704 q 686 660 586 704 l 658 535 q 451 538 497 538 q 315 498 356 538 q 260 342 274 458 q 270 185 244 221 q 388 150 296 150 q 604 163 517 150 m 211 -150 l 232 -69 q 389 -76 342 -57 q 425 -167 436 -96 q 325 -315 408 -267 q 126 -346 242 -362 l 156 -257 q 244 -237 207 -258 q 290 -176 282 -217 q 280 -155 293 -160 q 211 -150 267 -150 z "},"è":{"ha":778,"x_min":47,"x_max":738,"o":"m 496 751 l 189 908 l 281 1044 l 564 838 l 496 751 m 656 163 l 669 32 q 368 -17 554 -17 q 99 75 172 -17 q 47 357 25 167 q 161 631 72 557 q 444 704 250 704 q 690 644 625 704 q 738 468 754 585 q 658 329 724 371 q 457 278 593 288 l 254 263 q 288 171 256 194 q 392 147 321 147 q 656 163 526 147 m 267 383 l 426 399 q 508 421 482 403 q 539 488 533 439 q 522 544 543 533 q 431 554 500 556 q 317 520 350 554 q 267 383 285 486 z "},"é":{"ha":778,"x_min":47,"x_max":738,"o":"m 400 751 l 349 839 l 653 1047 l 731 899 l 400 751 m 656 163 l 669 32 q 368 -17 554 -17 q 99 75 172 -17 q 47 357 25 167 q 161 631 72 557 q 444 704 250 704 q 690 644 625 704 q 738 468 754 585 q 658 329 724 371 q 457 278 593 288 l 254 263 q 288 171 256 194 q 392 147 321 147 q 656 163 526 147 m 267 383 l 426 399 q 508 421 482 403 q 539 488 533 439 q 522 544 543 533 q 431 554 500 556 q 317 520 350 554 q 267 383 285 486 z "},"ê":{"ha":778,"x_min":47,"x_max":738,"o":"m 254 750 l 203 828 l 408 1013 l 549 1013 l 725 819 l 663 747 l 481 885 l 469 885 l 254 750 m 656 163 l 669 32 q 368 -17 554 -17 q 99 75 172 -17 q 47 357 25 167 q 161 631 72 557 q 444 704 250 704 q 690 644 625 704 q 738 468 754 585 q 658 329 724 371 q 457 278 593 288 l 254 263 q 288 171 256 194 q 392 147 321 147 q 656 163 526 147 m 267 383 l 426 399 q 508 421 482 403 q 539 488 533 439 q 522 544 543 533 q 431 554 500 556 q 317 520 350 554 q 267 383 285 486 z "},"ë":{"ha":778,"x_min":47,"x_max":738,"o":"m 376 806 l 303 806 q 264 847 260 806 l 278 933 q 328 978 283 978 l 397 978 q 436 935 442 978 l 422 847 q 376 806 418 806 m 619 806 l 546 806 q 507 847 503 806 l 521 935 q 569 978 526 978 l 640 978 q 679 935 685 978 l 665 847 q 619 806 661 806 m 656 163 l 669 32 q 368 -17 554 -17 q 99 75 172 -17 q 47 357 25 167 q 161 631 72 557 q 444 704 250 704 q 690 644 625 704 q 738 468 754 585 q 658 329 724 371 q 457 278 593 288 l 254 263 q 288 171 256 194 q 392 147 321 147 q 656 163 526 147 m 267 383 l 426 399 q 508 421 482 403 q 539 488 533 439 q 522 544 543 533 q 431 554 500 556 q 317 520 350 554 q 267 383 285 486 z "},"ì":{"ha":383,"x_min":-26,"x_max":349,"o":"m 349 838 l 281 751 l -26 908 l 65 1044 l 349 838 m 238 0 l 32 0 l 128 685 l 333 685 l 238 0 z "},"í":{"ha":383,"x_min":32,"x_max":515,"o":"m 515 899 l 186 751 l 133 839 l 438 1047 l 515 899 m 238 0 l 32 0 l 128 685 l 333 685 l 238 0 z "},"î":{"ha":383,"x_min":-12,"x_max":511,"o":"m 511 819 l 447 747 l 265 885 l 254 885 l 39 750 l -12 828 l 193 1013 l 333 1013 l 511 819 m 238 0 l 32 0 l 128 685 l 333 685 l 238 0 z "},"ï":{"ha":383,"x_min":32,"x_max":464,"o":"m 354 978 l 425 978 q 464 935 469 978 l 450 847 q 406 806 446 806 l 331 806 q 292 847 288 806 l 306 935 q 354 978 314 978 m 113 978 l 182 978 q 221 935 226 978 l 207 847 q 163 806 203 806 l 88 806 q 49 847 44 806 l 63 933 q 113 978 68 978 m 238 0 l 32 0 l 128 685 l 333 685 l 238 0 z "},"ð":{"ha":800,"x_min":42,"x_max":783,"o":"m 783 917 l 671 821 q 736 390 771 679 q 617 78 708 175 q 338 -18 525 -18 q 42 308 -1 -18 q 140 547 63 468 q 363 626 218 626 q 536 575 471 626 q 465 785 535 729 q 236 833 394 840 l 263 969 q 556 921 444 978 l 685 1033 l 783 917 m 350 136 q 467 195 431 136 q 525 408 504 254 l 529 449 q 417 478 478 478 q 305 436 340 478 q 256 301 269 394 q 263 172 242 208 q 350 136 283 136 z "},"ñ":{"ha":828,"x_min":26,"x_max":764,"o":"m 649 992 l 735 983 q 701 839 736 888 q 608 793 667 790 q 485 827 557 796 q 394 861 414 858 q 342 850 358 867 q 321 794 326 833 l 235 801 q 271 949 235 900 q 364 994 307 997 q 479 962 410 992 q 574 928 549 932 q 627 938 611 922 q 649 992 643 953 m 283 685 l 283 549 q 596 704 443 704 q 731 653 683 704 q 764 510 778 603 l 692 0 l 488 0 l 550 449 q 547 515 557 497 q 504 531 538 532 q 290 422 426 529 l 232 0 l 26 0 l 122 685 l 283 685 z "},"ò":{"ha":814,"x_min":46,"x_max":750,"o":"m 567 838 l 499 751 l 192 908 l 283 1044 l 567 838 m 438 704 q 703 618 628 704 q 750 333 778 532 q 635 61 724 140 q 361 -18 547 -18 q 95 68 172 -18 q 46 350 18 154 q 161 624 74 544 q 438 704 249 704 m 436 550 q 315 507 351 550 q 260 333 278 464 q 264 175 243 214 q 365 136 285 136 q 485 180 449 136 q 539 350 521 224 q 535 510 557 469 q 436 550 514 550 z "},"ó":{"ha":814,"x_min":46,"x_max":750,"o":"m 733 899 l 403 751 l 351 839 l 656 1047 l 733 899 m 438 704 q 703 618 628 704 q 750 333 778 532 q 635 61 724 140 q 361 -18 547 -18 q 95 68 172 -18 q 46 350 18 154 q 161 624 74 544 q 438 704 249 704 m 436 550 q 315 507 351 550 q 260 333 278 464 q 264 175 243 214 q 365 136 285 136 q 485 180 449 136 q 539 350 521 224 q 535 510 557 469 q 436 550 514 550 z "},"ô":{"ha":814,"x_min":46,"x_max":750,"o":"m 728 819 l 665 747 l 483 885 l 472 885 l 257 750 l 206 828 l 411 1013 l 551 1013 l 728 819 m 438 704 q 703 618 628 704 q 750 333 778 532 q 635 61 724 140 q 361 -18 547 -18 q 95 68 172 -18 q 46 350 18 154 q 161 624 74 544 q 438 704 249 704 m 436 550 q 315 507 351 550 q 260 333 278 464 q 264 175 243 214 q 365 136 285 136 q 485 180 449 136 q 539 350 521 224 q 535 510 557 469 q 436 550 514 550 z "},"õ":{"ha":814,"x_min":46,"x_max":750,"o":"m 308 794 l 221 801 q 258 948 221 899 q 351 994 294 997 q 467 962 397 992 q 561 928 536 932 q 614 938 597 922 q 636 992 631 954 l 722 983 q 688 839 724 888 q 594 793 653 790 q 472 827 543 796 q 381 861 400 858 q 329 850 344 867 q 308 794 314 833 m 438 704 q 703 618 628 704 q 750 333 778 532 q 635 61 724 140 q 361 -18 547 -18 q 95 68 172 -18 q 46 350 18 154 q 161 624 74 544 q 438 704 249 704 m 436 550 q 315 507 351 550 q 260 333 278 464 q 264 175 243 214 q 365 136 285 136 q 485 180 449 136 q 539 350 521 224 q 535 510 557 469 q 436 550 514 550 z "},"ö":{"ha":814,"x_min":46,"x_max":750,"o":"m 572 978 l 643 978 q 682 935 688 978 l 668 847 q 622 806 664 806 l 549 806 q 510 847 506 806 l 524 935 q 572 978 529 978 m 331 978 l 400 978 q 439 935 444 978 l 425 847 q 379 806 421 806 l 306 806 q 267 847 263 806 l 281 933 q 331 978 286 978 m 438 704 q 703 618 628 704 q 750 333 778 532 q 635 61 724 140 q 361 -18 547 -18 q 95 68 172 -18 q 46 350 18 154 q 161 624 74 544 q 438 704 249 704 m 436 550 q 315 507 351 550 q 260 333 278 464 q 264 175 243 214 q 365 136 285 136 q 485 180 449 136 q 539 350 521 224 q 535 510 557 469 q 436 550 514 550 z "},"÷":{"ha":760,"x_min":51,"x_max":710,"o":"m 404 767 l 449 767 q 510 749 493 767 q 521 688 526 731 l 515 643 q 490 585 508 601 q 429 568 471 568 l 382 568 q 321 586 338 568 q 310 647 304 604 l 317 692 q 342 750 322 733 q 404 767 361 767 m 688 332 l 51 332 l 74 483 l 710 483 l 688 332 m 329 244 l 374 244 q 435 226 418 244 q 446 165 451 208 l 439 119 q 415 62 433 78 q 354 46 396 46 l 307 46 q 246 65 263 46 q 236 126 229 83 l 242 169 q 267 228 247 211 q 329 244 288 244 z "},"ø":{"ha":814,"x_min":46,"x_max":750,"o":"m 749 754 l 678 642 q 750 333 782 557 q 635 61 724 140 q 361 -18 547 -18 q 278 -12 311 -18 l 197 -142 l 67 -71 l 132 35 q 46 350 14 115 q 161 624 74 544 q 438 704 249 704 q 538 697 486 704 l 617 826 l 749 754 m 539 350 q 535 510 557 469 q 436 550 514 550 q 315 507 351 550 q 260 333 278 464 q 264 175 243 214 q 365 136 285 136 q 485 180 449 136 q 539 350 521 224 z "},"ù":{"ha":815,"x_min":47,"x_max":771,"o":"m 503 761 l 196 919 l 288 1054 l 571 849 l 503 761 m 771 685 l 676 0 l 518 0 l 518 129 q 222 -18 365 -18 q 78 33 124 -18 q 47 175 33 85 l 118 685 l 324 685 l 258 231 q 265 172 253 189 q 310 154 276 154 q 397 178 354 154 q 510 261 439 201 l 568 685 l 771 685 z "},"ú":{"ha":815,"x_min":47,"x_max":771,"o":"m 408 761 l 356 849 l 660 1058 l 738 908 l 408 761 m 771 685 l 676 0 l 518 0 l 518 129 q 222 -18 365 -18 q 78 33 124 -18 q 47 175 33 85 l 118 685 l 324 685 l 258 231 q 265 172 253 189 q 310 154 276 154 q 397 178 354 154 q 510 261 439 201 l 568 685 l 771 685 z "},"û":{"ha":815,"x_min":47,"x_max":771,"o":"m 261 760 l 210 839 l 415 1024 l 556 1024 l 733 831 l 669 758 l 488 894 l 476 894 l 261 760 m 771 685 l 676 0 l 518 0 l 518 129 q 222 -18 365 -18 q 78 33 124 -18 q 47 175 33 85 l 118 685 l 324 685 l 258 231 q 265 172 253 189 q 310 154 276 154 q 397 178 354 154 q 510 261 439 201 l 568 685 l 771 685 z "},"ü":{"ha":815,"x_min":47,"x_max":771,"o":"m 628 817 l 553 817 q 514 857 510 817 l 528 944 q 576 988 536 988 l 647 988 q 686 946 692 988 l 672 858 q 628 817 668 817 m 385 817 l 310 817 q 271 857 267 817 l 285 944 q 335 988 290 988 l 404 988 q 443 946 449 988 l 429 857 q 385 817 425 817 m 771 685 l 676 0 l 518 0 l 518 129 q 222 -18 365 -18 q 78 33 124 -18 q 47 175 33 85 l 118 685 l 324 685 l 258 231 q 265 172 253 189 q 310 154 276 154 q 397 178 354 154 q 510 261 439 201 l 568 685 l 771 685 z "},"ý":{"ha":803,"x_min":49,"x_max":796,"o":"m 378 751 l 326 839 l 629 1047 l 707 899 l 378 751 m 579 685 l 796 685 q 709 362 767 526 q 588 79 651 197 q 365 -191 483 -110 q 82 -285 246 -272 l 57 -158 q 213 -102 153 -133 q 329 0 274 -71 l 247 0 q 191 19 214 0 q 161 69 168 39 l 49 685 l 269 685 l 335 161 q 358 139 338 139 l 414 139 l 419 151 q 579 685 529 379 z "},"þ":{"ha":822,"x_min":-10,"x_max":754,"o":"m 308 606 l 311 596 q 563 701 419 701 q 733 617 685 701 q 754 329 781 532 q 713 153 740 224 q 642 46 685 82 q 552 -4 599 10 q 442 -18 506 -18 q 229 -1 331 -18 q 217 -101 224 -68 l 194 -264 l -10 -264 l 163 972 l 368 972 l 342 781 q 308 606 326 671 m 250 128 l 357 126 q 493 162 460 126 q 544 332 526 197 q 551 496 561 456 q 492 536 542 536 q 390 503 436 536 q 288 406 343 471 l 250 128 z "},"ÿ":{"ha":803,"x_min":49,"x_max":796,"o":"m 597 806 l 522 806 q 485 847 478 806 l 499 935 q 546 978 504 978 l 617 978 q 656 935 664 978 l 643 847 q 597 806 638 806 m 354 806 l 281 806 q 242 847 236 806 l 256 933 q 306 978 261 978 l 374 978 q 413 935 421 978 l 400 847 q 354 806 394 806 m 579 685 l 796 685 q 709 362 767 526 q 588 79 651 197 q 365 -191 483 -110 q 82 -285 246 -272 l 57 -158 q 213 -102 153 -133 q 329 0 274 -71 l 247 0 q 191 19 214 0 q 161 69 168 39 l 49 685 l 269 685 l 335 161 q 358 139 338 139 l 414 139 l 419 151 q 579 685 529 379 z "},"Ā":{"ha":899,"x_min":-54,"x_max":843,"o":"m 750 1078 l 335 1078 l 354 1211 l 769 1211 l 750 1078 m 600 250 l 269 250 l 167 0 l -54 0 l 349 907 q 425 958 368 958 l 625 958 q 672 941 651 958 q 693 899 692 924 l 843 0 l 632 0 l 600 250 m 578 418 l 540 708 q 533 801 536 739 l 493 801 q 460 710 468 731 l 339 418 l 578 418 z "},"ā":{"ha":819,"x_min":51,"x_max":774,"o":"m 679 825 l 264 825 l 282 957 l 697 957 l 679 825 m 681 0 l 521 0 l 522 124 q 242 -17 417 -12 q 67 67 113 -21 q 51 356 22 156 q 90 515 65 450 q 146 617 115 579 q 225 674 176 654 q 319 699 274 693 q 433 704 364 704 q 610 692 507 704 q 774 663 713 679 l 681 0 m 554 553 l 449 553 q 313 518 349 553 q 258 353 276 483 q 250 184 240 221 q 310 150 260 147 q 515 279 401 151 l 554 553 z "},"Ă":{"ha":899,"x_min":-54,"x_max":843,"o":"m 699 1253 l 794 1235 q 724 1086 792 1144 q 546 1028 657 1028 q 372 1091 431 1028 q 339 1242 314 1154 l 438 1247 q 460 1183 431 1204 q 550 1163 489 1163 q 699 1253 688 1163 m 600 250 l 269 250 l 167 0 l -54 0 l 349 907 q 425 958 368 958 l 625 958 q 672 941 651 958 q 693 899 692 924 l 843 0 l 632 0 l 600 250 m 578 418 l 540 708 q 533 801 536 739 l 493 801 q 460 710 468 731 l 339 418 l 578 418 z "},"ă":{"ha":819,"x_min":51,"x_max":774,"o":"m 626 999 l 722 981 q 652 833 719 892 q 475 775 585 775 q 301 838 360 775 q 267 989 243 900 l 365 994 q 389 929 360 950 q 479 908 418 908 q 626 999 615 908 m 681 0 l 521 0 l 522 124 q 242 -17 417 -12 q 67 67 113 -21 q 51 356 22 156 q 90 515 65 450 q 146 617 115 579 q 225 674 176 654 q 319 699 274 693 q 433 704 364 704 q 610 692 507 704 q 774 663 713 679 l 681 0 m 554 553 l 449 553 q 313 518 349 553 q 258 353 276 483 q 250 184 240 221 q 310 150 260 147 q 515 279 401 151 l 554 553 z "},"Ą":{"ha":899,"x_min":-54,"x_max":844,"o":"m 693 899 l 844 0 q 744 -144 785 -67 q 744 -191 725 -181 q 813 -187 763 -201 l 832 -267 q 722 -294 771 -289 q 643 -287 672 -299 q 598 -253 614 -275 q 583 -203 582 -232 q 599 -144 583 -175 q 744 0 635 -72 l 632 0 l 600 250 l 269 250 l 167 0 l -54 0 l 349 907 q 425 958 368 958 l 625 958 q 672 941 651 958 q 693 899 692 924 m 578 418 l 540 708 q 533 801 536 739 l 493 801 q 460 710 468 731 l 339 418 l 578 418 z "},"ą":{"ha":819,"x_min":51,"x_max":774,"o":"m 774 663 l 681 0 q 581 -144 621 -67 q 580 -191 561 -181 q 649 -187 599 -201 l 668 -267 q 558 -294 607 -289 q 479 -287 508 -299 q 434 -253 450 -275 q 419 -203 418 -232 q 435 -144 419 -175 q 581 0 471 -72 l 521 0 l 522 124 q 242 -17 417 -12 q 67 67 113 -21 q 51 356 22 156 q 90 515 65 450 q 146 617 115 579 q 225 674 176 654 q 319 699 274 693 q 433 704 364 704 q 610 692 507 704 q 774 663 713 679 m 554 553 l 449 553 q 313 518 349 553 q 258 353 276 483 q 250 184 240 221 q 310 150 260 147 q 515 279 401 151 l 554 553 z "},"Ć":{"ha":810,"x_min":75,"x_max":822,"o":"m 817 1153 l 488 1004 l 436 1093 l 739 1301 l 817 1153 m 717 179 l 725 21 q 419 -17 600 -17 q 117 101 197 -17 q 75 488 38 218 q 214 870 114 765 q 536 975 314 975 q 822 942 696 975 l 794 785 q 528 792 682 792 q 413 768 454 792 q 342 676 371 744 q 296 471 314 607 q 297 229 271 292 q 426 167 324 167 q 717 179 592 165 z "},"ć":{"ha":704,"x_min":46,"x_max":706,"o":"m 706 899 l 376 751 l 324 839 l 628 1047 l 706 899 m 604 163 l 618 28 q 351 -17 513 -17 q 92 69 165 -17 q 46 351 18 156 q 157 624 74 544 q 424 704 240 704 q 686 660 586 704 l 658 535 q 451 538 497 538 q 315 498 356 538 q 260 342 274 458 q 270 185 244 221 q 388 150 296 150 q 604 163 517 150 z "},"Ċ":{"ha":810,"x_min":75,"x_max":822,"o":"m 535 1232 l 596 1232 q 640 1216 624 1232 q 651 1172 656 1200 l 643 1099 q 583 1046 635 1046 l 519 1046 q 465 1107 457 1046 l 474 1179 q 535 1232 482 1232 m 717 179 l 725 21 q 419 -17 600 -17 q 117 101 197 -17 q 75 488 38 218 q 214 870 114 765 q 536 975 314 975 q 822 942 696 975 l 794 785 q 528 792 682 792 q 413 768 454 792 q 342 676 371 744 q 296 471 314 607 q 297 229 271 292 q 426 167 324 167 q 717 179 592 165 z "},"ċ":{"ha":704,"x_min":46,"x_max":686,"o":"m 424 978 l 485 978 q 528 962 513 978 q 540 918 544 946 l 531 844 q 471 792 524 792 l 408 792 q 363 808 378 792 q 354 853 349 824 l 363 925 q 424 978 371 978 m 604 163 l 618 28 q 351 -17 513 -17 q 92 69 165 -17 q 46 351 18 156 q 157 624 74 544 q 424 704 240 704 q 686 660 586 704 l 658 535 q 451 538 497 538 q 315 498 356 538 q 260 342 274 458 q 270 185 244 221 q 388 150 296 150 q 604 163 517 150 z "},"Č":{"ha":810,"x_min":75,"x_max":824,"o":"m 824 1210 l 601 1028 l 490 1028 l 304 1222 l 372 1292 l 547 1164 l 558 1164 l 775 1289 l 824 1210 m 717 179 l 725 21 q 419 -17 600 -17 q 117 101 197 -17 q 75 488 38 218 q 214 870 114 765 q 536 975 314 975 q 822 942 696 975 l 794 785 q 528 792 682 792 q 413 768 454 792 q 342 676 371 744 q 296 471 314 607 q 297 229 271 292 q 426 167 324 167 q 717 179 592 165 z "},"č":{"ha":704,"x_min":46,"x_max":713,"o":"m 713 956 l 490 774 l 379 774 l 193 968 l 261 1038 l 435 910 l 446 910 l 664 1035 l 713 956 m 604 163 l 618 28 q 351 -17 513 -17 q 92 69 165 -17 q 46 351 18 156 q 157 624 74 544 q 424 704 240 704 q 686 660 586 704 l 658 535 q 451 538 497 538 q 315 498 356 538 q 260 342 274 458 q 270 185 244 221 q 388 150 296 150 q 604 163 517 150 z "},"Ď":{"ha":942,"x_min":39,"x_max":886,"o":"m 485 1026 l 297 1222 l 365 1290 l 540 1163 l 551 1163 l 768 1289 l 817 1208 l 594 1026 l 485 1026 m 39 0 l 174 958 q 517 971 354 971 q 763 926 675 971 q 881 772 850 882 q 886 471 913 663 q 830 221 864 315 q 735 74 796 126 q 600 5 675 22 q 401 -12 525 -12 q 39 0 244 -12 m 364 804 l 272 156 q 339 155 296 156 q 399 154 382 154 q 505 166 465 154 q 578 213 544 178 q 630 314 611 249 q 664 488 649 379 q 680 651 679 592 q 662 747 681 711 q 608 794 643 783 q 510 806 574 806 l 364 804 z "},"ď":{"ha":822,"x_min":50,"x_max":1051,"o":"m 614 972 l 819 972 l 682 0 l 521 0 l 521 125 q 236 -17 382 -17 q 72 71 121 -17 q 50 356 24 158 q 93 536 65 465 q 163 642 121 607 q 251 691 206 678 q 358 704 296 704 q 579 686 468 704 q 589 821 582 772 l 614 972 m 950 972 l 992 972 q 1042 958 1028 972 q 1051 911 1057 944 l 1040 840 q 947 639 1025 736 l 865 664 q 914 807 899 746 q 872 819 885 806 q 863 858 860 832 l 872 917 q 895 960 878 949 q 950 972 913 972 m 554 560 l 444 560 q 310 524 343 560 q 258 353 276 489 q 251 197 242 238 q 311 157 261 156 q 406 183 361 158 q 513 261 451 207 l 554 560 z "},"Đ":{"ha":942,"x_min":26,"x_max":886,"o":"m 118 558 l 174 958 q 517 971 354 971 q 763 926 675 971 q 881 772 850 882 q 886 471 913 663 q 830 221 864 315 q 735 74 796 126 q 600 5 675 22 q 401 -12 525 -12 q 39 0 244 -12 l 103 453 l 26 453 l 40 558 l 118 558 m 314 453 l 272 156 q 339 155 296 156 q 399 154 382 154 q 505 166 465 154 q 578 213 544 178 q 630 314 611 249 q 664 488 649 379 q 680 651 679 592 q 662 747 681 711 q 608 794 643 783 q 510 806 574 806 l 364 804 l 329 558 l 499 558 l 485 453 l 314 453 z "},"đ":{"ha":825,"x_min":50,"x_max":900,"o":"m 886 781 l 792 781 l 682 0 l 521 0 l 521 125 q 236 -17 382 -17 q 72 71 121 -17 q 50 356 24 158 q 93 536 65 465 q 163 642 121 607 q 251 691 206 678 q 358 704 296 704 q 579 686 468 704 q 585 781 583 765 l 417 781 l 429 875 l 599 875 l 614 972 l 819 972 l 806 875 l 900 875 l 886 781 m 554 560 l 444 560 q 310 524 343 560 q 258 353 276 489 q 251 197 242 238 q 311 157 261 156 q 406 183 361 158 q 513 261 451 207 l 554 560 z "},"Ē":{"ha":794,"x_min":63,"x_max":810,"o":"m 736 1094 l 321 1094 l 339 1226 l 756 1226 l 736 1094 m 783 792 l 425 792 q 367 776 385 792 q 344 717 350 760 l 324 572 l 701 572 l 682 422 l 303 422 l 278 238 q 287 183 272 199 q 340 167 301 167 l 694 167 l 689 10 q 274 -4 567 -4 q 103 58 157 -4 q 63 226 49 119 l 139 774 q 210 913 151 863 q 368 963 269 963 q 810 947 671 963 l 783 792 z "},"ē":{"ha":778,"x_min":47,"x_max":738,"o":"m 669 825 l 253 825 l 272 957 l 688 957 l 669 825 m 656 163 l 669 32 q 368 -17 554 -17 q 99 75 172 -17 q 47 357 25 167 q 161 631 72 557 q 444 704 250 704 q 690 644 625 704 q 738 468 754 585 q 658 329 724 371 q 457 278 593 288 l 254 263 q 288 171 256 194 q 392 147 321 147 q 656 163 526 147 m 267 383 l 426 399 q 508 421 482 403 q 539 488 533 439 q 522 544 543 533 q 431 554 500 556 q 317 520 350 554 q 267 383 285 486 z "},"Ė":{"ha":794,"x_min":63,"x_max":810,"o":"m 564 1061 l 501 1061 q 446 1122 438 1061 l 456 1194 q 515 1247 464 1247 l 576 1247 q 620 1231 604 1247 q 633 1188 636 1215 l 624 1115 q 564 1061 617 1061 m 783 792 l 425 792 q 367 776 385 792 q 344 717 350 760 l 324 572 l 701 572 l 682 422 l 303 422 l 278 238 q 287 183 272 199 q 340 167 301 167 l 694 167 l 689 10 q 274 -4 567 -4 q 103 58 157 -4 q 63 226 49 119 l 139 774 q 210 913 151 863 q 368 963 269 963 q 810 947 671 963 l 783 792 z "},"ė":{"ha":778,"x_min":47,"x_max":738,"o":"m 496 792 l 433 792 q 378 853 369 792 l 388 925 q 449 978 396 978 l 508 978 q 553 963 538 978 q 565 918 568 947 l 556 844 q 496 792 549 792 m 656 163 l 669 32 q 368 -17 554 -17 q 99 75 172 -17 q 47 357 25 167 q 161 631 72 557 q 444 704 250 704 q 690 644 625 704 q 738 468 754 585 q 658 329 724 371 q 457 278 593 288 l 254 263 q 288 171 256 194 q 392 147 321 147 q 656 163 526 147 m 267 383 l 426 399 q 508 421 482 403 q 539 488 533 439 q 522 544 543 533 q 431 554 500 556 q 317 520 350 554 q 267 383 285 486 z "},"Ę":{"ha":794,"x_min":63,"x_max":810,"o":"m 783 792 l 425 792 q 367 776 385 792 q 344 717 350 760 l 324 572 l 701 572 l 682 422 l 303 422 l 278 238 q 287 183 272 199 q 340 167 301 167 l 694 167 l 689 10 q 589 -136 628 -57 q 589 -182 571 -171 q 658 -178 607 -193 l 678 -257 q 567 -284 617 -279 q 488 -277 518 -289 q 442 -244 458 -265 q 427 -194 426 -222 q 443 -135 428 -165 q 578 1 481 -65 q 274 -4 478 -4 q 103 58 157 -4 q 63 226 49 119 l 139 774 q 210 913 151 863 q 368 963 269 963 q 810 947 671 963 l 783 792 z "},"ę":{"ha":778,"x_min":47,"x_max":738,"o":"m 638 -156 l 657 -235 q 547 -262 596 -257 q 467 -255 497 -267 q 422 -222 438 -243 q 406 -172 406 -200 q 422 -112 407 -143 q 515 -7 450 -60 q 368 -17 443 -17 q 99 75 172 -17 q 47 357 25 167 q 161 631 72 557 q 444 704 250 704 q 690 644 625 704 q 738 468 754 585 q 658 329 724 371 q 457 278 593 288 l 254 263 q 288 171 256 194 q 392 147 321 147 q 656 163 526 147 l 669 32 q 568 -112 617 -22 q 568 -159 550 -149 q 638 -156 586 -169 m 267 383 l 426 399 q 508 421 482 403 q 539 488 533 439 q 522 544 543 533 q 431 554 500 556 q 317 520 350 554 q 267 383 285 486 z "},"Ě":{"ha":794,"x_min":63,"x_max":810,"o":"m 472 1043 l 285 1238 l 353 1307 l 528 1179 l 539 1179 l 756 1304 l 804 1225 l 582 1043 l 472 1043 m 783 792 l 425 792 q 367 776 385 792 q 344 717 350 760 l 324 572 l 701 572 l 682 422 l 303 422 l 278 238 q 287 183 272 199 q 340 167 301 167 l 694 167 l 689 10 q 274 -4 567 -4 q 103 58 157 -4 q 63 226 49 119 l 139 774 q 210 913 151 863 q 368 963 269 963 q 810 947 671 963 l 783 792 z "},"ě":{"ha":778,"x_min":47,"x_max":738,"o":"m 404 774 l 218 968 l 285 1038 l 460 910 l 471 910 l 689 1035 l 738 956 l 515 774 l 404 774 m 656 163 l 669 32 q 368 -17 554 -17 q 99 75 172 -17 q 47 357 25 167 q 161 631 72 557 q 444 704 250 704 q 690 644 625 704 q 738 468 754 585 q 658 329 724 371 q 457 278 593 288 l 254 263 q 288 171 256 194 q 392 147 321 147 q 656 163 526 147 m 267 383 l 426 399 q 508 421 482 403 q 539 488 533 439 q 522 544 543 533 q 431 554 500 556 q 317 520 350 554 q 267 383 285 486 z "},"Ğ":{"ha":893,"x_min":76,"x_max":858,"o":"m 714 1253 l 810 1235 q 740 1087 807 1146 q 563 1028 672 1028 q 389 1090 447 1028 q 354 1242 331 1153 l 453 1247 q 476 1183 447 1204 q 567 1163 504 1163 q 714 1253 703 1163 m 639 554 l 842 554 l 764 0 l 610 0 l 604 118 q 315 -18 479 -18 q 106 103 168 -18 q 76 488 44 224 q 134 735 96 638 q 235 885 172 832 q 375 957 299 938 q 565 976 451 976 q 858 942 738 976 l 832 788 q 568 794 675 794 q 378 731 433 794 q 297 471 324 668 q 297 230 275 294 q 403 165 319 165 q 503 188 461 165 q 599 261 544 211 l 639 554 z "},"ğ":{"ha":824,"x_min":13,"x_max":778,"o":"m 626 1003 l 722 983 q 652 836 719 894 q 474 778 585 778 q 300 840 358 778 q 267 992 242 903 l 365 997 q 388 933 358 954 q 478 913 417 913 q 626 1003 615 913 m 778 663 l 693 61 q 565 -205 671 -124 q 268 -286 458 -286 q 13 -249 106 -286 l 28 -128 q 224 -129 75 -129 q 488 -3 446 -129 q 502 45 493 13 q 521 105 511 78 q 546 154 531 132 q 416 35 494 79 q 242 -11 338 -10 q 70 72 117 -14 q 53 356 24 158 q 91 515 67 450 q 143 617 115 581 q 214 674 171 654 q 296 699 257 694 q 394 704 335 704 q 778 663 608 704 m 558 553 l 447 553 q 313 517 346 553 q 261 353 281 482 q 252 185 242 222 q 313 150 263 147 q 518 279 406 154 l 558 553 z "},"Ġ":{"ha":893,"x_min":76,"x_max":858,"o":"m 593 1046 l 531 1046 q 485 1062 500 1046 q 476 1107 471 1078 l 485 1178 q 546 1232 493 1232 l 607 1232 q 651 1216 635 1232 q 663 1172 667 1200 l 653 1099 q 593 1046 647 1046 m 639 554 l 842 554 l 764 0 l 610 0 l 604 118 q 315 -18 479 -18 q 106 103 168 -18 q 76 488 44 224 q 134 735 96 638 q 235 885 172 832 q 375 957 299 938 q 565 976 451 976 q 858 942 738 976 l 832 788 q 568 794 675 794 q 378 731 433 794 q 297 471 324 668 q 297 230 275 294 q 403 165 319 165 q 503 188 461 165 q 599 261 544 211 l 639 554 z "},"ġ":{"ha":824,"x_min":13,"x_max":778,"o":"m 506 794 l 443 794 q 398 811 413 794 q 388 856 383 828 l 397 928 q 458 982 406 982 l 518 982 q 563 966 547 982 q 575 921 578 950 l 565 849 q 506 794 558 794 m 778 663 l 693 61 q 565 -205 671 -124 q 268 -286 458 -286 q 13 -249 106 -286 l 28 -128 q 224 -129 75 -129 q 488 -3 446 -129 q 502 45 493 13 q 521 105 511 78 q 546 154 531 132 q 416 35 494 79 q 242 -11 338 -10 q 70 72 117 -14 q 53 356 24 158 q 91 515 67 450 q 143 617 115 581 q 214 674 171 654 q 296 699 257 694 q 394 704 335 704 q 778 663 608 704 m 558 553 l 447 553 q 313 517 346 553 q 261 353 281 482 q 252 185 242 222 q 313 150 263 147 q 518 279 406 154 l 558 553 z "},"Ģ":{"ha":893,"x_min":76,"x_max":858,"o":"m 639 554 l 842 554 l 764 0 l 610 0 l 604 118 q 315 -18 479 -18 q 106 103 168 -18 q 76 488 44 224 q 134 735 96 638 q 235 885 172 832 q 375 957 299 938 q 565 976 451 976 q 858 942 738 976 l 832 788 q 568 794 675 794 q 378 731 433 794 q 297 471 324 668 q 297 230 275 294 q 403 165 319 165 q 503 188 461 165 q 599 261 544 211 l 639 554 m 403 -72 l 444 -72 q 495 -87 481 -72 q 504 -133 510 -101 l 493 -206 q 400 -408 478 -311 l 318 -382 q 367 -239 350 -310 q 325 -227 338 -240 q 315 -187 313 -214 l 325 -129 q 348 -84 331 -96 q 403 -72 365 -72 z "},"ģ":{"ha":824,"x_min":13,"x_max":778,"o":"m 488 765 l 446 765 q 395 780 410 765 q 386 826 381 794 l 397 899 q 490 1101 413 1001 l 572 1075 q 524 932 542 1006 q 565 920 553 933 q 575 881 578 907 l 565 822 q 542 777 560 789 q 488 765 525 765 m 778 663 l 693 61 q 565 -205 671 -124 q 268 -286 458 -286 q 13 -249 106 -286 l 28 -128 q 224 -129 75 -129 q 488 -3 446 -129 q 502 45 493 13 q 521 105 511 78 q 546 154 531 132 q 416 35 494 79 q 242 -11 338 -10 q 70 72 117 -14 q 53 356 24 158 q 91 515 67 450 q 143 617 115 581 q 214 674 171 654 q 296 699 257 694 q 394 704 335 704 q 778 663 608 704 m 558 553 l 447 553 q 313 517 346 553 q 261 353 281 482 q 252 185 242 222 q 313 150 263 147 q 518 279 406 154 l 558 553 z "},"Ħ":{"ha":950,"x_min":39,"x_max":999,"o":"m 985 714 l 896 714 l 796 0 l 585 0 l 644 426 l 313 426 l 251 0 l 39 0 l 140 714 l 58 714 l 72 813 l 154 813 l 174 958 l 386 958 l 367 813 l 699 813 l 719 958 l 931 958 l 910 813 l 999 813 l 985 714 m 685 714 l 353 714 l 335 592 l 668 592 l 685 714 z "},"ħ":{"ha":826,"x_min":24,"x_max":761,"o":"m 340 781 l 333 731 q 297 563 321 644 q 589 704 453 704 q 728 653 682 704 q 761 510 775 603 l 689 0 l 485 0 l 549 454 q 546 515 554 500 q 506 531 538 531 q 410 505 460 531 q 286 421 361 479 l 229 0 l 24 0 l 133 781 l 50 781 l 63 875 l 147 875 l 161 972 l 365 972 l 353 875 l 532 875 l 519 781 l 340 781 z "},"Ī":{"ha":406,"x_min":39,"x_max":522,"o":"m 504 1078 l 88 1078 l 107 1211 l 522 1211 l 504 1078 m 251 0 l 39 0 l 174 958 l 386 958 l 251 0 z "},"ī":{"ha":383,"x_min":32,"x_max":472,"o":"m 454 825 l 38 825 l 57 957 l 472 957 l 454 825 m 238 0 l 32 0 l 128 685 l 333 685 l 238 0 z "},"Į":{"ha":406,"x_min":-39,"x_max":386,"o":"m 251 0 l 224 0 q 124 -144 164 -67 q 123 -191 104 -181 q 193 -187 142 -201 l 211 -267 q 101 -294 150 -289 q 22 -287 51 -299 q -23 -253 -7 -275 q -38 -203 -39 -232 q -22 -144 -37 -175 q 125 0 14 -71 l 39 0 l 174 958 l 386 958 l 251 0 z "},"į":{"ha":383,"x_min":-43,"x_max":350,"o":"m 233 978 l 293 978 q 338 963 322 978 q 350 918 353 947 l 340 844 q 281 792 333 792 l 218 792 q 163 853 154 792 l 172 925 q 233 978 181 978 m 128 685 l 333 685 l 238 0 l 219 0 q 119 -144 160 -67 q 119 -191 100 -181 q 188 -187 138 -201 l 207 -267 q 97 -294 146 -289 q 18 -287 47 -299 q -27 -253 -11 -275 q -42 -203 -43 -232 q -26 -144 -42 -175 q 119 0 10 -72 l 32 0 l 128 685 z "},"İ":{"ha":406,"x_min":39,"x_max":400,"o":"m 283 1232 l 343 1232 q 388 1216 372 1232 q 400 1172 403 1200 l 390 1099 q 331 1046 385 1046 l 268 1046 q 213 1107 204 1046 l 222 1178 q 283 1232 231 1232 m 251 0 l 39 0 l 174 958 l 386 958 l 251 0 z "},"ı":{"ha":383,"x_min":32,"x_max":333,"o":"m 238 0 l 32 0 l 128 685 l 333 685 l 238 0 z "},"Ĳ":{"ha":911,"x_min":39,"x_max":896,"o":"m 251 0 l 39 0 l 174 958 l 386 958 l 251 0 m 896 958 l 789 197 q 715 38 775 93 q 558 -17 654 -17 q 382 13 447 -17 l 419 153 l 476 153 q 581 231 572 153 l 685 958 l 896 958 z "},"ĳ":{"ha":764,"x_min":32,"x_max":750,"o":"m 225 988 l 311 988 q 369 924 376 988 l 360 849 q 293 793 351 793 l 206 793 q 150 857 142 793 l 160 931 q 225 988 165 988 m 607 988 l 693 988 q 750 924 758 988 l 740 849 q 674 793 732 793 l 588 793 q 531 857 522 793 l 542 931 q 607 988 547 988 m 236 0 l 32 0 l 128 685 l 332 685 l 236 0 m 715 685 l 622 28 q 554 -150 610 -68 q 414 -275 499 -232 l 303 -181 q 418 36 400 -83 l 511 685 l 715 685 z "},"Ķ":{"ha":875,"x_min":39,"x_max":932,"o":"m 550 490 l 549 485 q 611 397 582 457 l 810 0 l 576 0 l 379 422 l 300 422 q 297 326 304 376 l 251 0 l 39 0 l 174 958 l 386 958 l 346 676 q 324 574 339 624 l 401 574 l 688 958 l 932 958 l 633 564 q 550 490 600 518 m 381 -72 l 422 -72 q 473 -87 458 -72 q 482 -133 488 -101 l 471 -206 q 378 -408 453 -314 l 296 -382 q 344 -239 326 -308 q 303 -227 315 -240 q 293 -187 290 -214 l 303 -129 q 326 -84 308 -96 q 381 -72 343 -72 z "},"ķ":{"ha":782,"x_min":26,"x_max":760,"o":"m 550 685 l 760 685 q 535 369 708 490 q 592 283 567 336 l 718 0 l 504 0 l 383 283 q 265 233 332 260 l 232 0 l 26 0 l 163 972 l 368 972 l 311 554 q 261 385 300 472 q 448 519 368 440 q 550 685 528 597 m 347 -67 l 389 -67 q 440 -81 425 -67 q 449 -128 454 -96 l 438 -200 q 344 -403 422 -306 l 263 -376 q 311 -233 294 -304 q 269 -222 282 -235 q 260 -182 257 -208 l 269 -124 q 292 -78 275 -90 q 347 -67 310 -67 z "},"Ĺ":{"ha":733,"x_min":68,"x_max":671,"o":"m 563 1144 l 233 997 l 182 1085 l 485 1294 l 563 1144 m 382 958 l 281 243 q 290 190 276 207 q 343 172 303 172 l 671 172 l 667 10 q 264 -4 531 -4 q 107 55 161 -4 q 68 217 53 114 l 169 958 l 382 958 z "},"ĺ":{"ha":451,"x_min":51,"x_max":557,"o":"m 557 1172 l 228 1025 l 176 1113 l 479 1322 l 557 1172 m 368 972 l 261 219 q 269 168 256 182 q 325 154 282 154 l 385 154 l 394 8 q 235 -17 346 -17 q 90 35 139 -17 q 51 176 40 86 l 164 972 l 368 972 z "},"Ļ":{"ha":733,"x_min":68,"x_max":671,"o":"m 382 958 l 281 243 q 290 190 276 207 q 343 172 303 172 l 671 172 l 667 10 q 264 -4 531 -4 q 107 55 161 -4 q 68 217 53 114 l 169 958 l 382 958 m 346 -72 l 386 -72 q 437 -87 422 -72 q 446 -133 451 -101 l 435 -206 q 343 -408 419 -312 l 261 -382 q 308 -239 293 -306 q 267 -227 279 -240 q 258 -187 256 -214 l 267 -129 q 290 -84 274 -96 q 346 -72 307 -72 z "},"ļ":{"ha":451,"x_min":51,"x_max":394,"o":"m 368 972 l 261 219 q 269 168 256 182 q 325 154 282 154 l 385 154 l 394 8 q 235 -17 346 -17 q 90 35 139 -17 q 51 176 40 86 l 164 972 l 368 972 m 186 -69 l 228 -69 q 286 -131 299 -69 l 276 -203 q 183 -406 258 -311 l 101 -379 q 150 -236 132 -306 q 108 -224 121 -237 q 99 -185 96 -211 l 108 -126 q 131 -81 114 -93 q 186 -69 149 -69 z "},"Ľ":{"ha":733,"x_min":68,"x_max":671,"o":"m 542 960 l 583 960 q 634 946 619 960 q 643 899 649 932 l 632 828 q 540 625 617 724 l 458 650 q 506 794 490 729 q 454 846 450 790 l 464 904 q 488 948 471 936 q 542 960 504 960 m 382 958 l 281 243 q 290 190 276 207 q 343 172 303 172 l 671 172 l 667 10 q 264 -4 531 -4 q 107 55 161 -4 q 68 217 53 114 l 169 958 l 382 958 z "},"ľ":{"ha":451,"x_min":51,"x_max":597,"o":"m 497 972 l 539 972 q 589 958 575 972 q 597 911 603 944 l 588 840 q 494 636 569 733 l 413 663 q 460 807 443 738 q 410 857 403 803 l 419 917 q 442 960 425 949 q 497 972 460 972 m 368 972 l 261 219 q 269 168 256 182 q 325 154 282 154 l 385 154 l 394 8 q 235 -17 346 -17 q 90 35 139 -17 q 51 176 40 86 l 164 972 l 368 972 z "},"Ŀ":{"ha":733,"x_min":68,"x_max":674,"o":"m 382 958 l 281 243 q 290 190 276 207 q 343 172 303 172 l 671 172 l 667 10 q 264 -4 531 -4 q 107 55 161 -4 q 68 217 53 114 l 169 958 l 382 958 m 604 475 l 543 475 q 499 491 515 475 q 486 535 483 507 l 496 608 q 556 661 503 661 l 618 661 q 674 600 682 661 l 664 528 q 604 475 656 475 z "},"ŀ":{"ha":571,"x_min":51,"x_max":585,"o":"m 368 972 l 261 219 q 269 168 256 182 q 325 154 282 154 l 385 154 l 394 8 q 235 -17 346 -17 q 90 35 139 -17 q 51 176 40 86 l 164 972 l 368 972 m 515 424 l 454 424 q 410 440 426 424 q 397 483 394 456 l 407 557 q 467 610 415 610 l 529 610 q 585 549 593 610 l 575 476 q 515 424 568 424 z "},"Ł":{"ha":735,"x_min":18,"x_max":672,"o":"m 672 172 l 668 10 q 265 -4 532 -4 q 108 55 163 -4 q 69 217 54 114 l 99 429 l 18 399 l 31 511 l 114 543 l 171 958 l 383 958 l 336 628 l 497 688 l 482 575 l 321 514 l 282 243 q 291 190 278 207 q 344 172 304 172 l 672 172 z "},"ł":{"ha":461,"x_min":7,"x_max":489,"o":"m 310 514 l 268 219 q 276 168 263 182 q 332 154 289 154 l 392 154 l 401 8 q 242 -17 353 -17 q 97 35 146 -17 q 58 176 47 86 l 94 432 l 7 399 l 22 511 l 111 544 l 171 972 l 375 972 l 326 626 l 489 688 l 472 575 l 310 514 z "},"Ń":{"ha":996,"x_min":39,"x_max":978,"o":"m 863 1151 l 533 1004 l 482 1092 l 785 1301 l 863 1151 m 978 958 l 853 72 q 774 0 843 0 l 656 0 q 608 15 624 0 q 576 67 592 31 l 386 578 q 344 722 360 647 l 331 722 q 319 572 328 638 l 240 0 l 39 0 l 164 886 q 244 958 174 958 l 361 958 q 408 942 392 958 q 439 892 425 926 l 624 397 q 674 242 656 313 l 690 242 q 700 396 690 324 l 776 958 l 978 958 z "},"ń":{"ha":828,"x_min":26,"x_max":764,"o":"m 417 751 l 365 839 l 668 1047 l 746 899 l 417 751 m 283 685 l 283 549 q 596 704 443 704 q 731 653 683 704 q 764 510 778 603 l 692 0 l 488 0 l 550 449 q 547 515 557 497 q 504 531 538 532 q 290 422 426 529 l 232 0 l 26 0 l 122 685 l 283 685 z "},"Ņ":{"ha":996,"x_min":39,"x_max":978,"o":"m 978 958 l 853 72 q 774 0 843 0 l 656 0 q 608 15 624 0 q 576 67 592 31 l 386 578 q 344 722 360 647 l 331 722 q 319 572 328 638 l 240 0 l 39 0 l 164 886 q 244 958 174 958 l 361 958 q 408 942 392 958 q 439 892 425 926 l 624 397 q 674 242 656 313 l 690 242 q 700 396 690 324 l 776 958 l 978 958 m 447 -72 l 489 -72 q 547 -133 560 -72 l 538 -206 q 444 -408 519 -314 l 363 -382 q 411 -239 393 -308 q 369 -227 382 -240 q 360 -187 357 -214 l 369 -129 q 392 -84 375 -96 q 447 -72 410 -72 z "},"ņ":{"ha":828,"x_min":26,"x_max":764,"o":"m 283 685 l 283 549 q 596 704 443 704 q 731 653 683 704 q 764 510 778 603 l 692 0 l 488 0 l 550 449 q 547 515 557 497 q 504 531 538 532 q 290 422 426 529 l 232 0 l 26 0 l 122 685 l 283 685 m 336 -67 l 378 -67 q 428 -81 414 -67 q 438 -128 443 -96 l 426 -200 q 333 -403 411 -306 l 251 -376 q 300 -233 286 -292 q 258 -222 271 -235 q 249 -182 246 -208 l 258 -124 q 281 -78 264 -90 q 336 -67 299 -67 z "},"Ň":{"ha":996,"x_min":39,"x_max":978,"o":"m 869 1208 l 647 1026 l 536 1026 l 350 1222 l 418 1290 l 593 1163 l 604 1163 l 821 1289 l 869 1208 m 978 958 l 853 72 q 774 0 843 0 l 656 0 q 608 15 624 0 q 576 67 592 31 l 386 578 q 344 722 360 647 l 331 722 q 319 572 328 638 l 240 0 l 39 0 l 164 886 q 244 958 174 958 l 361 958 q 408 942 392 958 q 439 892 425 926 l 624 397 q 674 242 656 313 l 690 242 q 700 396 690 324 l 776 958 l 978 958 z "},"ň":{"ha":828,"x_min":26,"x_max":764,"o":"m 421 774 l 233 968 l 301 1038 l 476 910 l 488 910 l 704 1035 l 753 956 l 531 774 l 421 774 m 283 685 l 283 549 q 596 704 443 704 q 731 653 683 704 q 764 510 778 603 l 692 0 l 488 0 l 550 449 q 547 515 557 497 q 504 531 538 532 q 290 422 426 529 l 232 0 l 26 0 l 122 685 l 283 685 z "},"Ŋ":{"ha":999,"x_min":39,"x_max":981,"o":"m 981 958 l 833 -82 q 762 -237 819 -182 q 621 -292 704 -293 q 456 -262 519 -292 l 492 -132 l 546 -132 q 647 -57 635 -132 l 657 8 l 632 7 q 624 8 628 7 q 617 14 621 10 q 611 22 614 18 q 606 31 608 25 q 601 42 603 38 q 596 53 599 46 q 592 64 593 61 l 386 561 q 347 707 361 618 l 332 707 q 319 553 332 631 l 242 0 l 39 0 l 164 886 q 244 958 174 958 l 354 958 q 403 942 386 958 q 432 892 419 926 l 624 414 q 675 258 661 324 l 689 258 q 701 424 689 326 l 778 958 l 981 958 z "},"ŋ":{"ha":828,"x_min":26,"x_max":764,"o":"m 281 685 l 282 550 q 588 704 446 704 q 731 654 685 704 q 764 510 776 604 l 685 -51 q 469 -278 653 -278 q 303 -249 365 -278 l 338 -118 l 386 -118 q 481 -43 469 -118 l 551 454 q 547 510 557 494 q 500 524 536 525 q 290 421 428 522 l 232 0 l 26 0 l 122 685 l 281 685 z "},"Ō":{"ha":944,"x_min":75,"x_max":890,"o":"m 774 1078 l 358 1078 l 376 1211 l 792 1211 l 774 1078 m 216 870 q 267 923 216 870 q 539 976 318 976 q 844 863 760 976 q 890 471 929 750 q 751 86 853 190 q 429 -18 649 -18 q 121 93 204 -18 q 75 488 38 204 q 216 870 114 764 m 532 806 q 374 738 421 806 q 297 471 326 671 q 299 218 271 283 q 433 153 326 153 q 592 222 543 153 q 669 488 640 290 q 669 742 697 678 q 532 806 640 806 z "},"ō":{"ha":814,"x_min":46,"x_max":750,"o":"m 672 825 l 256 825 l 275 957 l 690 957 l 672 825 m 438 704 q 703 618 628 704 q 750 333 778 532 q 635 61 724 140 q 361 -18 547 -18 q 95 68 172 -18 q 46 350 18 154 q 161 624 74 544 q 438 704 249 704 m 436 550 q 315 507 351 550 q 260 333 278 464 q 264 175 243 214 q 365 136 285 136 q 485 180 449 136 q 539 350 521 224 q 535 510 557 469 q 436 550 514 550 z "},"Ő":{"ha":944,"x_min":75,"x_max":914,"o":"m 651 1225 l 415 1000 l 332 1058 l 531 1308 l 651 1225 m 914 1225 l 678 1000 l 596 1057 l 793 1308 l 914 1225 m 216 870 q 267 923 216 870 q 539 976 318 976 q 844 863 760 976 q 890 471 929 750 q 751 86 853 190 q 429 -18 649 -18 q 121 93 204 -18 q 75 488 38 204 q 216 870 114 764 m 532 806 q 374 738 421 806 q 297 471 326 671 q 299 218 271 283 q 433 153 326 153 q 592 222 543 153 q 669 488 640 290 q 669 742 697 678 q 532 806 640 806 z "},"ő":{"ha":814,"x_min":46,"x_max":813,"o":"m 550 971 l 314 746 l 231 804 l 429 1056 l 550 971 m 813 971 l 576 746 l 494 804 l 692 1056 l 813 971 m 438 704 q 703 618 628 704 q 750 333 778 532 q 635 61 724 140 q 361 -18 547 -18 q 95 68 172 -18 q 46 350 18 154 q 161 624 74 544 q 438 704 249 704 m 436 550 q 315 507 351 550 q 260 333 278 464 q 264 175 243 214 q 365 136 285 136 q 485 180 449 136 q 539 350 521 224 q 535 510 557 469 q 436 550 514 550 z "},"Œ":{"ha":1318,"x_min":64,"x_max":1332,"o":"m 1306 792 l 951 792 q 871 717 879 792 l 850 571 l 1224 571 l 1206 425 l 831 425 l 804 233 q 812 182 799 197 q 861 167 825 167 l 1217 167 l 1213 10 q 793 -4 1088 -4 q 658 29 714 -4 q 422 -18 554 -18 q 231 6 304 -18 q 114 89 158 31 q 64 244 69 147 q 75 488 58 342 q 216 873 115 769 q 539 976 317 976 q 775 938 678 976 q 889 963 822 963 q 1332 947 1193 963 l 1306 792 m 665 774 l 669 794 q 539 806 614 806 q 376 735 428 806 q 297 471 324 664 q 297 219 271 285 q 424 153 322 153 q 585 172 519 153 q 588 211 585 183 l 665 774 z "},"œ":{"ha":1256,"x_min":46,"x_max":1217,"o":"m 1131 163 l 1143 32 q 849 -17 1031 -17 q 611 57 693 -17 q 357 -18 518 -18 q 94 68 169 -18 q 46 350 18 154 q 160 624 74 544 q 433 704 247 704 q 664 638 583 704 q 925 704 753 704 q 1169 644 1104 704 q 1217 468 1233 585 q 1138 329 1203 371 q 939 278 1074 288 l 738 263 q 771 170 739 193 q 874 147 803 147 q 1131 163 1006 147 m 750 383 l 907 399 q 988 421 963 403 q 1018 488 1013 439 q 1001 544 1022 533 q 911 554 979 556 q 800 520 832 554 q 750 383 768 486 m 361 136 q 476 180 442 136 q 529 350 511 224 q 527 510 547 469 q 431 550 507 550 q 313 507 349 550 q 260 333 278 464 q 263 175 243 214 q 361 136 283 136 z "},"Ŕ":{"ha":890,"x_min":39,"x_max":850,"o":"m 467 1004 l 415 1092 l 718 1301 l 796 1151 l 467 1004 m 39 0 l 174 958 q 528 971 301 971 q 790 905 707 971 q 850 679 872 839 q 787 520 836 578 q 635 450 738 463 l 633 442 q 749 294 729 419 l 799 0 l 582 0 l 538 297 q 514 358 532 342 q 457 374 496 374 l 299 375 l 246 0 l 39 0 m 322 538 l 472 538 q 591 568 556 538 q 639 682 626 599 q 625 781 650 754 q 524 808 600 808 l 360 807 l 322 538 z "},"ŕ":{"ha":588,"x_min":26,"x_max":660,"o":"m 329 751 l 278 839 l 581 1047 l 660 899 l 329 751 m 282 685 l 282 556 q 574 704 439 704 l 615 704 l 569 514 l 519 514 q 428 495 476 514 q 290 429 381 476 l 232 0 l 26 0 l 122 685 l 282 685 z "},"Ŗ":{"ha":890,"x_min":39,"x_max":850,"o":"m 39 0 l 174 958 q 528 971 301 971 q 790 905 707 971 q 850 679 872 839 q 787 520 836 578 q 635 450 738 463 l 633 442 q 749 294 729 419 l 799 0 l 582 0 l 538 297 q 514 358 532 342 q 457 374 496 374 l 299 375 l 246 0 l 39 0 m 322 538 l 472 538 q 591 568 556 538 q 639 682 626 599 q 625 781 650 754 q 524 808 600 808 l 360 807 l 322 538 m 410 -72 l 451 -72 q 510 -133 522 -72 l 500 -206 q 407 -408 482 -314 l 325 -382 q 374 -239 356 -308 q 332 -227 344 -240 q 322 -187 319 -214 l 332 -129 q 355 -84 338 -96 q 410 -72 372 -72 z "},"ŗ":{"ha":588,"x_min":7,"x_max":615,"o":"m 615 704 l 569 514 l 519 514 q 428 495 476 514 q 290 429 381 476 l 232 0 l 26 0 l 122 685 l 282 685 l 282 556 q 574 704 439 704 l 615 704 m 94 -67 l 136 -67 q 194 -128 204 -67 l 185 -200 q 92 -403 167 -308 l 10 -376 q 57 -233 42 -300 q 16 -222 28 -235 q 7 -182 4 -208 l 17 -124 q 40 -78 22 -90 q 94 -67 57 -67 z "},"Ř":{"ha":890,"x_min":39,"x_max":850,"o":"m 471 1026 l 283 1222 l 351 1290 l 526 1163 l 538 1163 l 754 1289 l 803 1208 l 581 1026 l 471 1026 m 39 0 l 174 958 q 528 971 301 971 q 790 905 707 971 q 850 679 872 839 q 787 520 836 578 q 635 450 738 463 l 633 442 q 749 294 729 419 l 799 0 l 582 0 l 538 297 q 514 358 532 342 q 457 374 496 374 l 299 375 l 246 0 l 39 0 m 322 538 l 472 538 q 591 568 556 538 q 639 682 626 599 q 625 781 650 754 q 524 808 600 808 l 360 807 l 322 538 z "},"ř":{"ha":588,"x_min":26,"x_max":667,"o":"m 333 774 l 147 968 l 214 1038 l 389 910 l 400 910 l 617 1035 l 667 956 l 443 774 l 333 774 m 282 685 l 282 556 q 574 704 439 704 l 615 704 l 569 514 l 519 514 q 428 495 476 514 q 290 429 381 476 l 232 0 l 26 0 l 122 685 l 282 685 z "},"Ś":{"ha":803,"x_min":21,"x_max":788,"o":"m 761 1151 l 431 1004 l 379 1092 l 682 1301 l 761 1151 m 449 364 l 267 438 q 126 549 163 481 q 103 719 90 617 q 209 924 124 872 q 475 976 294 976 q 788 938 654 976 l 767 794 q 469 799 642 799 q 354 785 385 800 q 314 707 324 771 q 322 641 307 660 q 390 601 336 622 l 563 535 q 707 427 672 492 q 728 250 742 363 q 626 37 707 92 q 350 -18 544 -18 q 21 19 189 -18 l 43 171 q 342 164 338 164 q 474 183 439 164 q 518 263 508 201 q 510 328 524 310 q 449 364 496 346 z "},"ś":{"ha":728,"x_min":13,"x_max":696,"o":"m 696 899 l 367 751 l 314 839 l 618 1047 l 696 899 m 372 246 l 207 314 q 90 399 124 347 q 67 528 57 450 q 149 664 78 622 q 374 704 221 706 q 690 676 563 701 l 671 546 q 400 550 404 550 q 293 544 319 550 q 263 514 267 538 q 276 478 260 490 q 338 449 292 467 l 506 382 q 625 301 590 349 q 650 175 660 254 q 617 75 642 114 q 547 17 593 36 q 449 -9 501 -3 q 314 -15 396 -15 q 13 10 189 -15 l 32 142 q 250 139 82 139 q 408 147 369 139 q 453 183 447 156 q 442 214 456 204 q 390 239 429 224 q 372 246 379 243 z "},"Ş":{"ha":803,"x_min":21,"x_max":788,"o":"m 449 364 l 267 438 q 126 549 163 481 q 103 719 90 617 q 209 924 124 872 q 475 976 294 976 q 788 938 654 976 l 767 794 q 469 799 642 799 q 354 785 385 800 q 314 707 324 771 q 322 641 307 660 q 390 601 336 622 l 563 535 q 707 427 672 492 q 728 250 742 363 q 626 37 707 92 q 350 -18 544 -18 q 21 19 189 -18 l 43 171 q 342 164 338 164 q 474 183 439 164 q 518 263 508 201 q 510 328 524 310 q 449 364 496 346 m 235 -162 l 256 -81 q 413 -88 365 -69 q 447 -179 460 -107 q 348 -326 431 -279 q 150 -358 265 -374 l 178 -269 q 267 -249 229 -269 q 314 -187 306 -228 q 303 -167 317 -172 q 235 -162 290 -162 z "},"ş":{"ha":728,"x_min":13,"x_max":690,"o":"m 372 246 l 207 314 q 90 399 124 347 q 67 528 57 450 q 149 664 78 622 q 374 704 221 706 q 690 676 563 701 l 671 546 q 400 550 404 550 q 293 544 319 550 q 263 514 267 538 q 276 478 260 490 q 338 449 292 467 l 506 382 q 625 301 590 349 q 650 175 660 254 q 617 75 642 114 q 547 17 593 36 q 449 -9 501 -3 q 314 -15 396 -15 q 13 10 189 -15 l 32 142 q 250 139 82 139 q 408 147 369 139 q 453 183 447 156 q 442 214 456 204 q 390 239 429 224 q 372 246 379 243 m 185 -151 l 206 -71 q 362 -78 314 -58 q 397 -168 410 -97 q 298 -316 381 -268 q 100 -347 215 -364 l 128 -258 q 217 -239 179 -260 q 264 -178 256 -218 q 253 -156 267 -161 q 185 -151 240 -151 z "},"Š":{"ha":803,"x_min":21,"x_max":788,"o":"m 767 1208 l 544 1026 l 435 1026 l 247 1222 l 315 1290 l 490 1163 l 501 1163 l 718 1289 l 767 1208 m 449 364 l 267 438 q 126 549 163 481 q 103 719 90 617 q 209 924 124 872 q 475 976 294 976 q 788 938 654 976 l 767 794 q 469 799 642 799 q 354 785 385 800 q 314 707 324 771 q 322 641 307 660 q 390 601 336 622 l 563 535 q 707 427 672 492 q 728 250 742 363 q 626 37 707 92 q 350 -18 544 -18 q 21 19 189 -18 l 43 171 q 342 164 338 164 q 474 183 439 164 q 518 263 508 201 q 510 328 524 310 q 449 364 496 346 z "},"š":{"ha":728,"x_min":13,"x_max":703,"o":"m 703 956 l 481 774 l 369 774 l 183 968 l 251 1038 l 425 910 l 436 910 l 654 1035 l 703 956 m 372 246 l 207 314 q 90 399 124 347 q 67 528 57 450 q 149 664 78 622 q 374 704 221 706 q 690 676 563 701 l 671 546 q 400 550 404 550 q 293 544 319 550 q 263 514 267 538 q 276 478 260 490 q 338 449 292 467 l 506 382 q 625 301 590 349 q 650 175 660 254 q 617 75 642 114 q 547 17 593 36 q 449 -9 501 -3 q 314 -15 396 -15 q 13 10 189 -15 l 32 142 q 250 139 82 139 q 408 147 369 139 q 453 183 447 156 q 442 214 456 204 q 390 239 429 224 q 372 246 379 243 z "},"Ţ":{"ha":825,"x_min":75,"x_max":881,"o":"m 857 786 l 571 786 l 461 0 l 249 0 l 360 786 l 75 786 l 99 958 l 881 958 l 857 786 m 238 -139 l 258 -58 q 415 -65 367 -46 q 450 -156 463 -85 q 351 -303 433 -256 q 153 -335 268 -351 l 181 -246 q 270 -226 232 -247 q 317 -165 308 -206 q 306 -144 319 -149 q 238 -139 293 -139 z "},"ţ":{"ha":569,"x_min":44,"x_max":579,"o":"m 369 547 l 324 219 q 330 167 318 181 q 383 154 342 154 l 475 154 l 485 10 q 293 -17 411 -17 q 149 37 196 -17 q 115 185 101 90 l 168 547 l 44 547 l 61 678 l 188 685 l 215 876 l 417 876 l 390 685 l 579 685 l 560 547 l 369 547 m 151 -153 l 172 -71 q 329 -78 282 -58 q 365 -169 376 -97 q 265 -317 349 -269 q 67 -349 182 -364 l 96 -260 q 185 -239 147 -260 q 231 -178 222 -218 q 220 -158 233 -162 q 151 -153 207 -153 z "},"Ť":{"ha":825,"x_min":75,"x_max":881,"o":"m 446 1026 l 260 1222 l 328 1290 l 501 1163 l 513 1163 l 731 1289 l 779 1208 l 557 1026 l 446 1026 m 857 786 l 571 786 l 461 0 l 249 0 l 360 786 l 75 786 l 99 958 l 881 958 l 857 786 z "},"ť":{"ha":569,"x_min":44,"x_max":646,"o":"m 544 1101 l 586 1101 q 637 1087 622 1101 q 646 1040 651 1072 l 635 968 q 542 765 619 863 l 460 792 q 508 935 492 864 q 467 947 479 933 q 457 986 454 960 l 467 1044 q 490 1090 472 1078 q 544 1101 507 1101 m 390 685 l 579 685 l 560 547 l 369 547 l 324 219 q 330 167 318 181 q 383 154 342 154 l 475 154 l 485 10 q 293 -17 411 -17 q 149 37 196 -17 q 115 185 101 90 l 168 547 l 44 547 l 61 678 l 188 685 l 215 876 l 417 876 l 390 685 z "},"Ŧ":{"ha":825,"x_min":75,"x_max":881,"o":"m 571 786 l 540 568 l 726 568 l 713 467 l 526 467 l 461 0 l 249 0 l 314 467 l 144 467 l 158 568 l 329 568 l 360 786 l 75 786 l 99 958 l 881 958 l 857 786 l 571 786 z "},"ŧ":{"ha":569,"x_min":44,"x_max":579,"o":"m 369 547 l 357 451 l 503 451 l 489 350 l 342 350 l 324 219 q 330 167 318 181 q 383 154 342 154 l 475 154 l 485 10 q 293 -17 411 -17 q 149 37 196 -17 q 115 185 101 90 l 139 350 l 54 350 l 68 451 l 154 451 l 168 547 l 44 547 l 61 678 l 188 685 l 215 876 l 417 876 l 390 685 l 579 685 l 560 547 l 369 547 z "},"Ū":{"ha":940,"x_min":85,"x_max":931,"o":"m 771 1078 l 354 1078 l 374 1211 l 789 1211 l 771 1078 m 931 958 l 847 378 q 722 70 815 158 q 429 -18 629 -18 q 140 76 225 -18 q 85 386 56 171 l 165 958 l 378 958 l 296 378 q 304 200 276 247 q 429 153 332 153 q 574 203 529 153 q 638 386 618 253 l 718 958 l 931 958 z "},"ū":{"ha":815,"x_min":47,"x_max":771,"o":"m 676 835 l 260 835 l 279 968 l 694 968 l 676 835 m 771 685 l 676 0 l 518 0 l 518 129 q 222 -18 365 -18 q 78 33 124 -18 q 47 175 33 85 l 118 685 l 324 685 l 258 231 q 265 172 253 189 q 310 154 276 154 q 397 178 354 154 q 510 261 439 201 l 568 685 l 771 685 z "},"Ů":{"ha":940,"x_min":85,"x_max":931,"o":"m 582 1307 q 701 1260 656 1307 q 738 1142 747 1213 q 684 1035 729 1078 q 568 993 639 993 q 449 1040 494 993 q 413 1157 404 1088 q 465 1264 419 1221 q 582 1307 511 1307 m 581 1222 q 530 1202 550 1222 q 507 1151 510 1182 q 521 1097 503 1117 q 569 1078 539 1078 q 622 1099 601 1078 q 644 1153 642 1119 q 630 1203 647 1183 q 581 1222 613 1222 m 931 958 l 847 378 q 722 70 815 158 q 429 -18 629 -18 q 140 76 225 -18 q 85 386 56 171 l 165 958 l 378 958 l 296 378 q 304 200 276 247 q 429 153 332 153 q 574 203 529 153 q 638 386 618 253 l 718 958 l 931 958 z "},"ů":{"ha":815,"x_min":47,"x_max":771,"o":"m 474 749 q 355 797 400 749 q 318 914 310 844 q 371 1021 325 978 q 488 1064 417 1064 q 607 1017 561 1064 q 643 899 653 969 q 590 792 636 835 q 474 749 544 749 m 413 908 q 426 854 408 874 q 475 835 444 835 q 527 856 507 835 q 550 910 547 876 q 535 960 553 940 q 486 979 518 979 q 435 959 456 979 q 413 908 415 939 m 771 685 l 676 0 l 518 0 l 518 129 q 222 -18 365 -18 q 78 33 124 -18 q 47 175 33 85 l 118 685 l 324 685 l 258 231 q 265 172 253 189 q 310 154 276 154 q 397 178 354 154 q 510 261 439 201 l 568 685 l 771 685 z "},"Ű":{"ha":940,"x_min":85,"x_max":931,"o":"m 649 1225 l 413 1000 l 329 1058 l 528 1308 l 649 1225 m 911 1225 l 675 1000 l 593 1057 l 790 1308 l 911 1225 m 931 958 l 847 378 q 722 70 815 158 q 429 -18 629 -18 q 140 76 225 -18 q 85 386 56 171 l 165 958 l 378 958 l 296 378 q 304 200 276 247 q 429 153 332 153 q 574 203 529 153 q 638 386 618 253 l 718 958 l 931 958 z "},"ű":{"ha":815,"x_min":47,"x_max":817,"o":"m 318 757 l 235 814 l 433 1065 l 554 981 l 318 757 m 499 814 l 696 1065 l 817 981 l 581 757 l 499 814 m 568 685 l 771 685 l 676 0 l 518 0 l 518 129 q 222 -18 365 -18 q 78 33 124 -18 q 47 175 33 85 l 118 685 l 324 685 l 258 231 q 265 172 253 189 q 310 154 276 154 q 397 178 354 154 q 510 261 439 201 l 568 685 z "},"Ų":{"ha":940,"x_min":85,"x_max":931,"o":"m 931 958 l 847 378 q 732 79 818 169 q 467 -18 646 -11 q 371 -157 415 -75 q 371 -203 353 -193 q 440 -200 389 -214 l 460 -279 q 349 -306 399 -301 q 270 -299 300 -311 q 224 -266 240 -287 q 209 -216 208 -244 q 225 -157 210 -187 q 367 -17 261 -86 q 128 93 197 -3 q 85 386 58 189 l 165 958 l 378 958 l 296 378 q 304 200 276 247 q 429 153 332 153 q 574 203 529 153 q 638 386 618 253 l 718 958 l 931 958 z "},"ų":{"ha":815,"x_min":47,"x_max":771,"o":"m 771 685 l 676 0 q 576 -144 617 -67 q 576 -191 557 -181 q 644 -187 594 -201 l 664 -267 q 553 -294 603 -289 q 475 -287 504 -299 q 430 -253 446 -275 q 415 -203 414 -232 q 431 -144 415 -175 q 576 0 467 -72 l 518 0 l 518 129 q 222 -18 365 -18 q 78 33 124 -18 q 47 175 33 85 l 118 685 l 324 685 l 258 231 q 265 172 253 189 q 310 154 276 154 q 397 178 354 154 q 510 261 439 201 l 568 685 l 771 685 z "},"Ŵ":{"ha":1343,"x_min":110,"x_max":1386,"o":"m 1024 1072 l 961 1000 l 779 1136 l 768 1136 l 551 1003 l 500 1081 l 707 1265 l 847 1265 l 1024 1072 m 1386 958 l 1106 54 q 1028 0 1089 0 l 828 0 q 779 19 800 0 q 757 64 758 38 l 739 683 l 739 806 l 713 806 q 681 682 694 729 l 490 56 q 411 0 474 0 l 210 0 q 160 18 182 0 q 139 63 139 36 l 110 958 l 321 958 l 321 289 q 319 215 321 265 q 317 150 317 164 l 344 150 q 385 297 351 179 l 569 897 q 650 958 588 958 l 829 958 q 877 938 858 958 q 896 889 896 918 l 922 288 q 924 150 925 197 l 953 150 q 988 294 974 244 l 1171 958 l 1386 958 z "},"ŵ":{"ha":1233,"x_min":56,"x_max":1222,"o":"m 928 819 l 864 747 l 682 883 l 671 883 l 456 750 l 404 828 l 610 1013 l 750 1013 l 928 819 m 314 142 l 329 142 q 396 211 369 142 q 442 371 419 267 q 485 635 460 450 q 543 685 493 685 l 736 685 q 773 671 758 685 q 789 636 788 657 l 826 142 l 840 142 q 872 160 860 142 q 896 213 883 178 q 960 390 928 281 q 1014 685 997 526 l 1222 685 q 1135 339 1188 492 q 1040 118 1088 197 q 963 26 1006 53 q 838 0 919 0 l 736 0 q 694 15 711 0 q 676 54 678 31 l 644 560 l 628 560 q 592 331 619 464 q 532 144 564 214 q 447 28 499 57 q 313 0 394 0 l 201 0 q 160 15 176 0 q 140 54 143 31 l 56 686 l 267 686 l 314 142 z "},"Ŷ":{"ha":840,"x_min":76,"x_max":917,"o":"m 299 1004 l 247 1082 l 453 1267 l 594 1267 l 771 1074 l 708 1001 l 526 1138 l 515 1138 l 299 1004 m 510 313 l 467 0 l 253 0 l 299 324 l 76 958 l 289 958 l 397 603 q 415 479 413 542 l 431 479 q 481 606 444 543 l 689 958 l 917 958 l 510 313 z "},"ŷ":{"ha":803,"x_min":49,"x_max":796,"o":"m 231 750 l 179 828 l 385 1013 l 526 1013 l 703 819 l 640 747 l 458 885 l 447 885 l 231 750 m 579 685 l 796 685 q 709 362 767 526 q 588 79 651 197 q 365 -191 483 -110 q 82 -285 246 -272 l 57 -158 q 213 -102 153 -133 q 329 0 274 -71 l 247 0 q 191 19 214 0 q 161 69 168 39 l 49 685 l 269 685 l 335 161 q 358 139 338 139 l 414 139 l 419 151 q 579 685 529 379 z "},"Ÿ":{"ha":840,"x_min":76,"x_max":917,"o":"m 665 1060 l 590 1060 q 553 1100 547 1060 l 567 1188 q 614 1231 572 1231 l 685 1231 q 724 1189 732 1231 l 711 1101 q 665 1060 706 1060 m 422 1060 l 347 1060 q 310 1100 304 1060 l 324 1188 q 374 1231 329 1231 l 442 1231 q 481 1189 489 1231 l 468 1101 q 422 1060 463 1060 m 510 313 l 467 0 l 253 0 l 299 324 l 76 958 l 289 958 l 397 603 q 415 479 413 542 l 431 479 q 481 606 444 543 l 689 958 l 917 958 l 510 313 z "},"Ź":{"ha":803,"x_min":-1,"x_max":817,"o":"m 433 1004 l 382 1092 l 685 1301 l 764 1151 l 433 1004 m 260 163 l 715 163 l 693 0 l -1 0 l 19 163 l 554 796 l 121 796 l 143 958 l 817 958 l 793 796 l 260 163 z "},"ź":{"ha":725,"x_min":-1,"x_max":701,"o":"m 356 751 l 304 839 l 608 1047 l 686 899 l 356 751 m 683 539 l 258 147 l 633 147 l 614 0 l -1 0 l 18 147 l 17 147 l 443 539 l 81 539 l 100 685 l 701 685 l 683 539 z "},"Ż":{"ha":803,"x_min":-1,"x_max":817,"o":"m 529 1046 l 467 1046 q 411 1107 403 1046 l 421 1178 q 481 1232 429 1232 l 542 1232 q 585 1216 569 1232 q 599 1172 601 1200 l 589 1099 q 529 1046 583 1046 m 260 163 l 715 163 l 693 0 l -1 0 l 19 163 l 554 796 l 121 796 l 143 958 l 817 958 l 793 796 l 260 163 z "},"ż":{"ha":725,"x_min":-1,"x_max":701,"o":"m 451 792 l 389 792 q 333 853 325 792 l 343 925 q 404 978 351 978 l 464 978 q 508 963 493 978 q 521 918 524 947 l 511 844 q 451 792 504 792 m 683 539 l 258 147 l 633 147 l 614 0 l -1 0 l 18 147 l 17 147 l 443 539 l 81 539 l 100 685 l 701 685 l 683 539 z "},"Ž":{"ha":803,"x_min":-1,"x_max":817,"o":"m 438 1026 l 250 1222 l 318 1290 l 493 1163 l 504 1163 l 721 1289 l 769 1208 l 547 1026 l 438 1026 m 260 163 l 715 163 l 693 0 l -1 0 l 19 163 l 554 796 l 121 796 l 143 958 l 817 958 l 793 796 l 260 163 z "},"ž":{"ha":725,"x_min":-1,"x_max":701,"o":"m 360 774 l 174 968 l 242 1038 l 415 910 l 426 910 l 644 1035 l 693 956 l 471 774 l 360 774 m 683 539 l 258 147 l 633 147 l 614 0 l -1 0 l 18 147 l 17 147 l 443 539 l 81 539 l 100 685 l 701 685 l 683 539 z "},"ƒ":{"ha":653,"x_min":-137,"x_max":713,"o":"m 671 824 l 582 824 q 509 804 535 824 q 471 733 483 785 l 432 564 l 596 564 l 565 425 l 400 425 l 299 -18 q 43 -226 251 -226 q -137 -211 -75 -226 l -97 -75 l -12 -75 q 99 17 78 -75 l 193 425 l 61 425 l 86 547 l 224 563 l 271 767 q 531 975 321 975 q 713 960 640 975 l 671 824 z "},"Ș":{"ha":803,"x_min":21,"x_max":788,"o":"m 449 364 l 267 438 q 126 549 163 481 q 103 719 90 617 q 209 924 124 872 q 475 976 294 976 q 788 938 654 976 l 767 794 q 469 799 642 799 q 354 785 385 800 q 314 707 324 771 q 322 641 307 660 q 390 601 336 622 l 563 535 q 707 427 672 492 q 728 250 742 363 q 626 37 707 92 q 350 -18 544 -18 q 21 19 189 -18 l 43 171 q 342 164 338 164 q 474 183 439 164 q 518 263 508 201 q 510 328 524 310 q 449 364 496 346 m 342 -72 l 383 -72 q 434 -87 419 -72 q 443 -133 449 -101 l 432 -206 q 339 -408 417 -311 l 257 -382 q 306 -239 292 -297 q 264 -227 276 -240 q 254 -187 251 -214 l 264 -129 q 287 -84 269 -96 q 342 -72 304 -72 z "},"ș":{"ha":728,"x_min":13,"x_max":690,"o":"m 372 246 l 207 314 q 90 399 124 347 q 67 528 57 450 q 149 664 78 622 q 374 704 221 706 q 690 676 563 701 l 671 546 q 400 550 404 550 q 293 544 319 550 q 263 514 267 538 q 276 478 260 490 q 338 449 292 467 l 506 382 q 625 301 590 349 q 650 175 660 254 q 617 75 642 114 q 547 17 593 36 q 449 -9 501 -3 q 314 -15 396 -15 q 13 10 189 -15 l 32 142 q 250 139 82 139 q 408 147 369 139 q 453 183 447 156 q 442 214 456 204 q 390 239 429 224 q 372 246 379 243 m 282 -69 l 324 -69 q 374 -84 360 -69 q 383 -131 389 -99 l 372 -203 q 281 -406 357 -307 l 199 -379 q 246 -236 231 -303 q 204 -224 217 -237 q 194 -185 192 -211 l 204 -126 q 228 -81 211 -93 q 282 -69 244 -69 z "},"Ț":{"ha":825,"x_min":75,"x_max":881,"o":"m 857 786 l 571 786 l 461 0 l 249 0 l 360 786 l 75 786 l 99 958 l 881 958 l 857 786 m 321 -67 l 363 -67 q 413 -81 399 -67 q 422 -128 428 -96 l 411 -200 q 318 -403 396 -306 l 236 -376 q 285 -233 268 -304 q 243 -222 256 -235 q 233 -182 231 -208 l 243 -124 q 266 -78 249 -90 q 321 -67 283 -67 z "},"ț":{"ha":569,"x_min":44,"x_max":579,"o":"m 369 547 l 324 219 q 330 167 318 181 q 383 154 342 154 l 475 154 l 485 10 q 293 -17 411 -17 q 149 37 196 -17 q 115 185 101 90 l 168 547 l 44 547 l 61 678 l 188 685 l 215 876 l 417 876 l 390 685 l 579 685 l 560 547 l 369 547 m 246 -69 l 288 -69 q 338 -84 324 -69 q 347 -131 353 -99 l 336 -203 q 243 -406 321 -308 l 161 -379 q 210 -236 193 -307 q 168 -224 181 -237 q 158 -185 156 -211 l 168 -126 q 191 -81 174 -93 q 246 -69 208 -69 z "},"ˆ":{"ha":622,"x_min":119,"x_max":643,"o":"m 643 815 l 581 743 l 399 879 l 388 879 l 171 746 l 119 824 l 325 1008 l 467 1008 l 643 815 z "},"ˇ":{"ha":622,"x_min":132,"x_max":651,"o":"m 651 949 l 429 767 l 319 767 l 132 961 l 200 1031 l 375 903 l 386 903 l 603 1028 l 651 949 z "},"˘":{"ha":546,"x_min":132,"x_max":588,"o":"m 492 983 l 588 965 q 519 817 586 876 q 340 758 451 758 q 167 821 226 758 q 132 972 108 883 l 232 979 q 254 914 225 935 q 344 893 283 893 q 449 917 411 893 q 492 983 488 942 z "},"˙":{"ha":328,"x_min":146,"x_max":333,"o":"m 215 976 l 276 976 q 320 960 304 976 q 333 917 336 944 l 324 843 q 264 789 315 789 l 201 789 q 156 806 171 789 q 146 850 142 822 l 156 922 q 215 976 161 976 z "},"˚":{"ha":429,"x_min":129,"x_max":456,"o":"m 299 1051 q 418 1004 372 1051 q 456 886 464 957 q 401 779 447 822 q 285 736 356 736 q 166 784 211 736 q 129 901 121 832 q 182 1008 136 965 q 299 1051 228 1051 m 346 947 q 337 957 346 947 q 297 967 328 967 q 247 947 267 967 q 224 896 226 926 q 238 842 219 861 q 288 822 257 822 q 339 843 319 822 q 361 897 358 864 q 346 947 364 928 z "},"˛":{"ha":349,"x_min":-32,"x_max":231,"o":"m 142 7 l 231 0 q 131 -144 171 -67 q 130 -191 111 -181 q 199 -187 149 -201 l 218 -267 q 108 -294 157 -289 q 29 -287 58 -299 q -16 -253 0 -275 q -31 -203 -32 -232 q -15 -144 -31 -175 q 142 7 25 -65 z "},"˜":{"ha":610,"x_min":131,"x_max":632,"o":"m 218 788 l 131 796 q 168 942 132 893 q 261 989 204 992 q 376 956 307 986 q 471 922 446 926 q 524 931 508 915 q 546 986 540 947 l 632 978 q 598 833 633 882 q 504 786 563 783 q 383 821 454 789 q 292 856 313 853 q 240 844 256 861 q 218 788 224 828 z "},"˝":{"ha":696,"x_min":128,"x_max":710,"o":"m 447 947 l 211 722 l 128 781 l 326 1032 l 447 947 m 710 947 l 474 722 l 392 779 l 589 1032 l 710 947 z "},"Δ":{"ha":921,"x_min":-24,"x_max":846,"o":"m 846 74 l 838 0 l -24 0 l -15 74 l 435 958 l 644 958 l 846 74 m 624 158 l 529 636 q 517 757 518 696 q 472 635 490 672 l 242 158 l 624 158 z "},"Ω":{"ha":996,"x_min":6,"x_max":931,"o":"m 28 171 l 139 171 q 238 154 190 171 q 118 331 151 243 q 103 549 85 419 q 241 872 132 767 q 567 976 350 976 q 931 529 993 976 q 858 313 911 393 q 686 153 804 233 q 786 171 735 171 l 900 171 l 878 0 l 493 0 l 511 160 q 647 304 604 228 q 707 511 689 381 q 698 742 731 678 q 558 807 665 807 q 394 742 446 807 q 318 510 342 676 q 318 303 299 379 q 407 158 338 228 l 389 0 l 6 0 l 28 171 z "},"μ":{"ha":858,"x_min":6,"x_max":794,"o":"m 794 685 l 697 0 l 538 0 l 535 104 q 265 -18 394 -18 q 207 -12 231 -18 q 207 -96 213 -62 l 183 -264 l 6 -264 l 69 193 l 139 685 l 344 685 l 279 231 q 288 178 274 193 q 342 164 303 164 q 525 225 418 164 l 588 685 l 794 685 z "},"π":{"ha":899,"x_min":47,"x_max":910,"o":"m 889 539 l 781 539 l 704 0 l 500 0 l 575 539 l 361 539 l 286 0 l 81 0 l 157 539 l 47 539 l 68 686 l 910 686 l 889 539 z "},"Ё":{"ha":794,"x_min":63,"x_max":810,"o":"m 688 1076 l 614 1076 q 575 1117 569 1076 l 589 1204 q 638 1247 594 1247 l 707 1247 q 747 1204 753 1247 l 733 1118 q 688 1076 728 1076 m 444 1076 l 371 1076 q 332 1117 326 1076 l 346 1204 q 396 1247 351 1247 l 464 1247 q 504 1204 510 1247 l 490 1117 q 444 1076 485 1076 m 783 792 l 425 792 q 367 776 385 792 q 344 717 350 760 l 324 572 l 701 572 l 682 422 l 303 422 l 278 238 q 287 183 272 199 q 340 167 301 167 l 694 167 l 689 10 q 274 -4 567 -4 q 103 58 157 -4 q 63 226 49 119 l 139 774 q 210 913 151 863 q 368 963 269 963 q 810 947 671 963 l 783 792 z "},"Ђ":{"ha":1054,"x_min":76,"x_max":1004,"o":"m 572 786 l 538 546 q 801 624 661 624 q 974 556 918 624 q 1004 321 1029 488 q 872 58 975 133 q 594 -14 769 -17 l 583 136 q 731 189 686 150 q 793 322 776 228 q 785 427 807 403 q 713 451 763 451 q 515 385 617 451 l 461 0 l 249 0 l 360 786 l 76 786 l 100 958 l 881 958 l 858 786 l 572 786 z "},"Ѓ":{"ha":732,"x_min":39,"x_max":786,"o":"m 768 1151 l 439 1004 l 388 1092 l 690 1301 l 768 1151 m 39 0 l 144 761 q 217 910 158 857 q 361 963 275 963 q 786 946 656 963 l 761 792 l 440 792 q 375 776 393 792 q 350 711 357 760 l 250 0 l 39 0 z "},"Є":{"ha":814,"x_min":75,"x_max":833,"o":"m 833 942 l 804 785 q 558 792 654 792 q 385 749 436 792 q 307 572 333 706 l 693 572 l 675 422 l 285 422 q 299 224 268 274 q 436 167 329 174 q 714 181 572 161 l 722 21 q 424 -17 589 -22 q 116 103 193 -10 q 75 488 39 215 q 220 869 113 764 q 556 975 328 975 q 833 942 713 975 z "},"Ѕ":{"ha":803,"x_min":21,"x_max":788,"o":"m 449 364 l 267 438 q 126 549 163 481 q 103 719 90 617 q 209 924 124 872 q 475 976 294 976 q 788 938 654 976 l 767 794 q 469 799 642 799 q 354 785 385 800 q 314 707 324 771 q 322 641 307 660 q 390 601 336 622 l 563 535 q 707 427 672 492 q 728 250 742 363 q 626 37 707 92 q 350 -18 544 -18 q 21 19 189 -18 l 43 171 q 342 164 338 164 q 474 183 439 164 q 518 263 508 201 q 510 328 524 310 q 449 364 496 346 z "},"І":{"ha":408,"x_min":42,"x_max":388,"o":"m 253 0 l 42 0 l 176 958 l 388 958 l 253 0 z "},"Ї":{"ha":406,"x_min":39,"x_max":514,"o":"m 404 1231 l 475 1231 q 514 1189 519 1231 l 500 1101 q 454 1060 496 1060 l 381 1060 q 342 1100 338 1060 l 356 1188 q 404 1231 361 1231 m 163 1231 l 232 1231 q 265 1221 257 1231 q 271 1189 274 1211 l 257 1101 q 211 1060 253 1060 l 138 1060 q 99 1100 94 1060 l 113 1188 q 163 1231 118 1231 m 251 0 l 39 0 l 174 958 l 386 958 l 251 0 z "},"Ј":{"ha":508,"x_min":-22,"x_max":492,"o":"m 492 958 l 385 197 q 310 38 371 93 q 154 -17 250 -17 q -22 13 42 -17 l 14 153 l 71 153 q 176 231 165 153 l 279 958 l 492 958 z "},"Љ":{"ha":1365,"x_min":-12,"x_max":1304,"o":"m 868 603 l 997 603 q 1260 533 1190 603 q 1304 286 1331 463 q 1208 51 1281 113 q 965 -11 1136 -11 q 574 0 708 -11 l 688 806 l 593 806 q 524 786 546 806 q 490 717 501 767 q 467 613 485 690 q 442 508 449 535 q 421 422 436 481 q 395 334 406 364 q 369 265 385 304 q 338 196 354 226 q 197 38 281 83 q -6 -4 114 -7 l -12 171 q 146 267 107 190 q 210 423 183 331 q 279 707 236 515 q 292 765 288 746 q 525 958 336 958 l 918 958 l 868 603 m 806 153 l 928 153 q 1049 180 1018 153 q 1094 301 1081 207 q 1088 424 1107 393 q 983 454 1068 454 l 847 454 l 806 153 z "},"Њ":{"ha":1354,"x_min":43,"x_max":1293,"o":"m 858 594 l 993 594 q 1247 526 1175 594 q 1293 278 1318 457 q 1199 50 1271 111 q 961 -11 1126 -11 q 565 0 699 -11 l 628 439 l 317 439 l 256 0 l 43 0 l 178 958 l 390 958 l 339 593 l 649 593 l 700 958 l 910 958 l 858 594 m 796 153 l 924 153 q 1040 180 1010 153 q 1083 296 1071 207 q 1076 410 1096 381 q 974 440 1057 440 l 836 440 l 796 153 z "},"Ћ":{"ha":1079,"x_min":75,"x_max":1022,"o":"m 571 786 l 538 553 q 817 629 681 629 q 988 571 939 629 q 1022 392 1038 513 l 968 0 l 756 0 l 806 356 q 795 431 814 411 q 718 450 776 450 q 515 386 624 450 l 461 0 l 249 0 l 358 786 l 75 786 l 99 958 l 881 958 l 857 786 l 571 786 z "},"Ќ":{"ha":879,"x_min":42,"x_max":908,"o":"m 479 1004 l 428 1092 l 731 1301 l 810 1151 l 479 1004 m 542 500 l 540 494 q 627 467 593 486 q 685 419 661 449 q 726 336 710 389 q 756 217 743 283 q 788 50 769 151 q 796 0 793 17 l 582 0 q 525 303 539 254 q 440 413 499 393 q 376 422 415 422 l 303 422 q 299 326 307 376 l 253 0 l 42 0 l 176 958 l 388 958 l 349 683 q 325 574 339 617 l 388 574 q 463 590 429 574 q 522 630 497 607 q 576 710 546 653 q 627 813 607 768 q 689 958 647 858 l 908 958 q 765 653 803 714 q 608 514 700 544 q 542 500 578 504 z "},"Ѝ":{"ha":986,"x_min":42,"x_max":965,"o":"m 686 1092 l 618 1004 l 311 1163 l 403 1297 l 686 1092 m 831 0 l 628 0 l 707 550 q 740 701 718 628 l 732 701 q 661 575 683 607 l 260 0 l 42 0 l 176 958 l 381 958 l 304 415 q 267 258 294 347 l 276 258 q 351 389 307 325 l 750 958 l 965 958 l 831 0 z "},"Ў":{"ha":822,"x_min":57,"x_max":894,"o":"m 654 1253 l 750 1235 q 680 1086 747 1144 q 501 1028 613 1028 q 328 1091 386 1028 q 294 1242 269 1154 l 393 1247 q 415 1183 386 1204 q 506 1163 444 1163 q 654 1253 643 1163 m 894 958 l 561 244 q 444 56 503 118 q 292 -14 385 -6 q 57 8 190 -22 l 90 157 q 261 164 221 150 q 340 244 301 178 l 356 272 l 311 272 q 200 371 217 272 l 85 958 l 296 958 l 376 453 q 397 435 378 435 l 435 435 l 669 958 l 894 958 z "},"Џ":{"ha":963,"x_min":43,"x_max":940,"o":"m 940 958 l 806 0 l 514 0 l 476 -210 l 331 -210 l 353 0 l 43 0 l 178 958 l 390 958 l 278 153 l 615 153 l 728 958 l 940 958 z "},"А":{"ha":899,"x_min":-54,"x_max":843,"o":"m 600 250 l 269 250 l 167 0 l -54 0 l 349 907 q 425 958 368 958 l 625 958 q 672 941 651 958 q 693 899 692 924 l 843 0 l 632 0 l 600 250 m 578 418 l 540 708 q 533 801 536 739 l 493 801 q 460 710 468 731 l 339 418 l 578 418 z "},"Б":{"ha":856,"x_min":42,"x_max":826,"o":"m 333 569 l 471 569 q 740 503 668 569 q 788 272 811 438 q 688 47 764 107 q 442 -12 613 -12 q 42 0 196 -12 l 176 958 q 506 968 328 968 q 826 958 636 968 l 786 794 l 365 794 l 333 569 m 274 150 l 407 150 q 534 177 501 150 q 578 294 567 204 q 568 401 589 376 q 458 425 547 425 l 313 425 l 274 150 z "},"В":{"ha":885,"x_min":42,"x_max":833,"o":"m 42 0 l 176 958 q 525 969 299 969 q 782 914 710 969 q 833 711 854 858 q 774 558 818 608 q 640 500 731 508 l 639 492 q 803 231 839 476 q 706 38 782 88 q 454 -11 629 -11 q 42 0 182 -11 m 328 568 l 475 568 q 586 595 553 568 q 631 699 619 622 q 616 787 640 765 q 517 808 592 808 l 363 808 l 328 568 m 269 150 l 417 150 q 546 177 510 150 q 593 288 582 204 q 579 397 604 369 q 468 425 554 424 l 308 425 l 269 150 z "},"Г":{"ha":732,"x_min":39,"x_max":786,"o":"m 39 0 l 144 761 q 217 910 158 857 q 361 963 275 963 q 786 946 656 963 l 761 792 l 440 792 q 375 776 393 792 q 350 711 357 760 l 250 0 l 39 0 z "},"Д":{"ha":1025,"x_min":-62,"x_max":960,"o":"m 940 10 l 910 -210 l 751 -210 l 765 0 l 143 0 l 97 -210 l -62 -210 l -33 0 l -12 153 l 83 153 q 208 435 158 290 q 300 765 257 581 q 381 908 319 858 q 540 958 443 958 l 949 958 l 835 153 l 960 153 l 940 10 m 624 153 l 717 806 l 604 806 q 535 785 560 806 q 500 715 510 764 q 314 153 419 350 l 624 153 z "},"Е":{"ha":796,"x_min":65,"x_max":811,"o":"m 785 792 l 426 792 q 369 776 386 792 q 346 717 351 760 l 325 572 l 703 572 l 683 422 l 306 422 l 279 238 q 288 183 274 199 q 342 167 303 167 l 696 167 l 692 10 q 276 -4 568 -4 q 104 58 158 -4 q 65 226 50 119 l 140 774 q 212 913 153 863 q 369 963 271 963 q 811 947 672 963 l 785 792 z "},"Ж":{"ha":1290,"x_min":-33,"x_max":1322,"o":"m 958 501 l 957 494 q 1024 478 996 489 q 1073 443 1051 467 q 1109 391 1094 419 q 1138 313 1124 363 q 1163 213 1151 264 q 1189 79 1174 161 q 1204 0 1199 28 l 993 0 q 972 113 985 42 q 952 219 958 186 q 934 297 946 251 q 913 358 922 342 q 888 393 904 374 q 853 417 872 413 q 807 422 835 422 l 743 422 q 740 326 747 376 l 694 0 l 490 0 l 538 335 q 561 422 544 375 l 501 422 q 377 356 425 422 q 222 65 329 289 q 192 0 203 22 l -33 0 q 13 105 -1 72 q 53 192 28 138 q 91 268 79 246 q 124 328 103 290 q 158 381 146 367 q 191 419 171 396 q 227 451 211 443 q 265 472 243 460 q 310 490 288 485 q 361 499 333 494 l 363 506 q 295 526 324 513 q 246 563 267 539 q 210 617 225 588 q 183 696 196 647 q 161 796 171 744 q 138 925 151 847 q 132 958 133 947 l 342 958 q 353 894 346 936 q 371 792 365 824 q 388 714 376 760 q 408 649 399 668 q 433 609 418 631 q 467 581 449 588 q 513 574 486 574 l 585 574 q 589 692 581 632 l 626 958 l 829 958 l 789 683 q 767 574 782 626 l 814 574 q 941 641 893 574 q 1082 911 989 708 q 1104 958 1097 942 l 1322 958 q 1190 672 1213 714 q 1053 526 1129 561 q 958 501 1013 508 z "},"З":{"ha":782,"x_min":-8,"x_max":735,"o":"m 136 790 l 129 943 q 432 969 257 969 q 683 913 610 969 q 735 711 756 856 q 676 558 719 608 q 543 500 633 508 l 542 492 q 696 231 731 474 q 603 40 676 90 q 360 -11 531 -11 q -8 32 146 -11 l 17 175 q 317 150 185 150 q 439 178 403 150 q 486 288 475 207 q 473 395 499 368 q 365 422 447 422 l 179 422 l 197 571 l 374 571 q 482 598 450 571 q 524 699 514 625 q 510 788 533 767 q 408 808 486 808 q 136 790 301 808 z "},"И":{"ha":986,"x_min":42,"x_max":965,"o":"m 831 0 l 628 0 l 707 550 q 740 701 718 628 l 732 701 q 661 575 683 607 l 260 0 l 42 0 l 176 958 l 381 958 l 304 415 q 267 258 294 347 l 276 258 q 351 389 307 325 l 750 958 l 965 958 l 831 0 z "},"Й":{"ha":986,"x_min":42,"x_max":965,"o":"m 700 1242 l 835 1242 q 765 1089 832 1150 q 590 1028 697 1028 q 415 1089 474 1028 q 379 1242 356 1150 l 517 1242 q 525 1155 504 1181 q 597 1129 546 1129 q 700 1242 693 1129 m 831 0 l 628 0 l 707 550 q 740 701 718 628 l 732 701 q 661 575 683 607 l 260 0 l 42 0 l 176 958 l 381 958 l 304 415 q 267 258 294 347 l 276 258 q 351 389 307 325 l 750 958 l 965 958 l 831 0 z "},"К":{"ha":879,"x_min":42,"x_max":908,"o":"m 542 500 l 540 494 q 627 467 593 486 q 685 419 661 449 q 726 336 710 389 q 756 217 743 283 q 788 50 769 151 q 796 0 793 17 l 582 0 q 525 303 539 254 q 440 413 499 393 q 376 422 415 422 l 303 422 q 299 326 307 376 l 253 0 l 42 0 l 176 958 l 388 958 l 349 683 q 325 574 339 617 l 388 574 q 463 590 429 574 q 522 630 497 607 q 576 710 546 653 q 627 813 607 768 q 689 958 647 858 l 908 958 q 765 653 803 714 q 608 514 700 544 q 542 500 578 504 z "},"Л":{"ha":942,"x_min":-35,"x_max":919,"o":"m 919 958 l 785 0 l 574 0 l 688 806 l 575 806 q 503 786 526 806 q 469 717 481 767 q 418 496 436 568 q 373 339 400 424 q 315 196 346 254 q -26 -4 199 -31 l -35 164 q 8 174 -6 169 q 45 189 21 178 q 88 219 69 200 q 124 269 107 239 q 192 441 163 338 q 271 769 222 544 q 511 958 313 958 l 919 958 z "},"М":{"ha":1265,"x_min":24,"x_max":1214,"o":"m 936 958 l 1142 958 q 1199 936 1179 958 q 1214 876 1218 914 l 1128 0 l 929 0 l 1011 793 l 989 793 l 761 196 q 671 132 740 132 l 532 132 q 453 203 460 132 l 386 793 l 361 793 l 224 0 l 24 0 l 183 883 q 210 940 190 922 q 267 958 229 958 l 465 958 q 540 886 533 958 l 596 408 q 601 272 601 347 l 622 272 q 665 404 639 332 l 846 893 q 936 958 867 957 z "},"Н":{"ha":954,"x_min":42,"x_max":933,"o":"m 933 958 l 799 0 l 586 0 l 647 426 l 314 426 l 254 0 l 42 0 l 176 958 l 389 958 l 338 592 l 669 592 l 721 958 l 933 958 z "},"О":{"ha":944,"x_min":75,"x_max":890,"o":"m 216 870 q 267 923 216 870 q 539 976 318 976 q 844 863 760 976 q 890 471 929 750 q 751 86 853 190 q 429 -18 649 -18 q 121 93 204 -18 q 75 488 38 204 q 216 870 114 764 m 532 806 q 374 738 421 806 q 297 471 326 671 q 299 218 271 283 q 433 153 326 153 q 592 222 543 153 q 669 488 640 290 q 669 742 697 678 q 532 806 640 806 z "},"П":{"ha":956,"x_min":42,"x_max":935,"o":"m 935 958 l 800 0 l 586 0 l 700 806 l 368 806 l 254 0 l 42 0 l 176 958 l 935 958 z "},"Р":{"ha":849,"x_min":42,"x_max":842,"o":"m 42 0 l 176 958 q 529 971 304 971 q 794 899 722 971 q 842 650 867 828 q 740 406 817 467 q 481 344 664 344 q 303 357 386 344 l 253 0 l 42 0 m 324 507 l 467 507 q 585 538 553 507 q 632 665 618 568 q 621 778 644 749 q 522 808 597 808 l 365 807 l 324 507 z "},"С":{"ha":810,"x_min":75,"x_max":822,"o":"m 717 179 l 725 21 q 419 -17 600 -17 q 117 101 197 -17 q 75 488 38 218 q 214 870 114 765 q 536 975 314 975 q 822 942 696 975 l 794 785 q 528 792 682 792 q 413 768 454 792 q 342 676 371 744 q 296 471 314 607 q 297 229 271 292 q 426 167 324 167 q 717 179 592 165 z "},"Т":{"ha":825,"x_min":75,"x_max":881,"o":"m 857 786 l 571 786 l 461 0 l 249 0 l 360 786 l 75 786 l 99 958 l 881 958 l 857 786 z "},"У":{"ha":822,"x_min":57,"x_max":894,"o":"m 894 958 l 561 244 q 444 56 503 118 q 292 -14 385 -6 q 57 8 190 -22 l 90 157 q 261 164 221 150 q 340 244 301 178 l 356 272 l 311 272 q 200 371 217 272 l 85 958 l 296 958 l 376 453 q 397 435 378 435 l 435 435 l 669 958 l 894 958 z "},"Ф":{"ha":1168,"x_min":58,"x_max":1136,"o":"m 778 1003 l 761 881 q 1078 774 992 865 q 1136 475 1165 682 q 1000 182 1108 268 q 647 85 892 96 l 631 -36 l 418 -36 l 435 86 q 115 192 200 101 q 58 492 29 283 q 197 785 88 699 q 549 883 306 872 l 564 1003 l 778 1003 m 729 722 l 660 247 q 851 308 797 257 q 922 492 904 360 q 899 666 939 618 q 729 722 860 714 m 467 246 l 535 721 q 344 660 397 711 q 274 475 290 608 q 294 301 256 349 q 467 246 333 253 z "},"Х":{"ha":886,"x_min":-44,"x_max":933,"o":"m 636 492 l 815 0 l 603 0 l 464 426 l 449 426 l 189 0 l -44 0 l 275 492 l 113 958 l 322 958 l 447 563 l 465 563 l 711 958 l 933 958 l 636 492 z "},"Ц":{"ha":997,"x_min":43,"x_max":932,"o":"m 932 153 l 911 0 l 882 -210 l 724 -210 l 738 0 l 43 0 l 178 958 l 390 958 l 278 153 l 597 153 l 710 958 l 922 958 l 808 153 l 932 153 z "},"Ч":{"ha":907,"x_min":85,"x_max":886,"o":"m 886 958 l 751 0 l 539 0 l 597 407 q 306 325 442 325 q 123 383 176 325 q 85 563 69 442 l 142 958 l 353 958 l 303 599 q 314 525 293 546 q 389 504 335 504 q 619 568 497 504 l 674 958 l 886 958 z "},"Ш":{"ha":1344,"x_min":42,"x_max":1324,"o":"m 1324 958 l 1189 0 l 42 0 l 176 958 l 383 958 l 269 153 l 533 153 l 647 958 l 853 958 l 740 153 l 1004 153 l 1117 958 l 1324 958 z "},"Щ":{"ha":1396,"x_min":43,"x_max":1331,"o":"m 1331 153 l 1310 0 l 1281 -210 l 1122 -210 l 1135 0 l 43 0 l 178 958 l 385 958 l 271 153 l 533 153 l 646 958 l 853 958 l 739 153 l 1001 153 l 1114 958 l 1321 958 l 1208 153 l 1331 153 z "},"Ъ":{"ha":1054,"x_min":74,"x_max":993,"o":"m 554 603 l 685 603 q 949 533 878 603 q 993 286 1019 463 q 897 51 969 113 q 653 -11 824 -11 q 257 0 392 -11 l 368 786 l 74 786 l 97 958 l 604 958 l 554 603 m 490 153 l 615 153 q 738 180 707 153 q 783 301 769 207 q 776 424 796 393 q 669 454 757 454 l 533 454 l 490 153 z "},"Ы":{"ha":1244,"x_min":42,"x_max":1222,"o":"m 339 603 l 471 603 q 734 533 664 603 q 779 286 804 464 q 683 51 756 113 q 439 -11 610 -11 q 42 0 176 -11 l 176 958 l 389 958 l 339 603 m 1222 958 l 1088 0 l 875 0 l 1010 958 l 1222 958 m 275 153 l 401 153 q 524 180 493 153 q 569 301 556 207 q 563 424 582 393 q 457 454 543 454 l 318 454 l 275 153 z "},"Ь":{"ha":844,"x_min":42,"x_max":783,"o":"m 339 603 l 474 603 q 738 533 667 603 q 783 286 808 463 q 686 51 760 114 q 442 -11 613 -11 q 42 0 176 -11 l 176 958 l 389 958 l 339 603 m 275 153 l 403 153 q 528 180 497 153 q 572 301 560 207 q 565 424 585 393 q 458 454 546 454 l 318 454 l 275 153 z "},"Э":{"ha":815,"x_min":-3,"x_max":761,"o":"m 131 785 l 122 943 q 394 975 242 975 q 714 863 629 975 q 761 471 799 750 q 623 95 725 201 q 300 -17 521 -11 q -3 24 126 -19 l 24 181 q 297 167 143 163 q 457 226 407 172 q 535 424 507 281 l 146 424 l 164 574 l 556 574 q 556 690 563 646 q 525 756 549 733 q 470 785 501 778 q 385 792 439 792 q 131 785 279 792 z "},"Ю":{"ha":1344,"x_min":43,"x_max":1290,"o":"m 336 572 l 514 572 q 653 889 557 801 q 940 976 749 976 q 1240 861 1153 976 q 1290 471 1328 746 q 1149 85 1250 189 q 825 -18 1049 -18 q 544 79 622 -18 q 492 419 467 176 l 314 419 l 256 0 l 43 0 l 178 958 l 390 958 l 336 572 m 1068 488 q 1067 740 1094 675 q 936 806 1040 806 q 780 737 828 806 q 704 471 732 668 q 705 218 678 283 q 832 153 732 153 q 992 222 943 153 q 1068 488 1042 292 z "},"Я":{"ha":886,"x_min":-18,"x_max":865,"o":"m 272 439 l 274 444 q 142 535 179 458 q 121 714 106 613 q 228 915 140 860 q 493 971 315 971 q 865 958 729 971 l 731 0 l 518 0 l 569 368 l 439 368 q 366 349 393 368 q 321 282 339 329 l 213 0 l -18 0 l 103 299 q 272 439 160 431 m 593 531 l 632 807 l 489 808 q 376 782 410 808 q 332 683 342 756 q 345 566 321 601 q 443 531 369 531 l 593 531 z "},"а":{"ha":825,"x_min":53,"x_max":776,"o":"m 682 0 l 522 0 l 524 124 q 243 -17 418 -12 q 69 67 114 -21 q 53 356 24 156 q 92 515 67 450 q 147 617 117 579 q 226 674 178 654 q 320 699 275 693 q 435 704 365 704 q 611 692 508 704 q 776 663 714 679 l 682 0 m 556 553 l 450 553 q 314 518 350 553 q 260 353 278 483 q 251 184 242 221 q 313 150 261 147 q 517 279 403 151 l 556 553 z "},"б":{"ha":819,"x_min":61,"x_max":796,"o":"m 778 1011 l 796 840 q 610 810 714 817 q 460 792 507 803 q 347 738 382 772 q 285 646 311 704 q 244 547 258 601 l 246 551 q 349 634 293 606 q 496 663 406 663 q 717 579 661 663 q 751 331 772 496 q 641 65 728 147 q 379 -17 554 -17 q 250 -3 306 -17 q 159 30 194 10 q 102 85 124 50 q 71 154 81 121 q 61 240 61 188 q 65 333 61 293 q 78 436 69 374 q 173 784 111 669 q 389 946 235 899 q 581 980 457 967 q 778 1011 706 993 m 449 521 q 324 479 358 521 q 274 329 289 438 q 278 176 258 217 q 372 136 299 136 q 483 180 446 136 q 539 344 521 224 q 536 487 554 453 q 449 521 518 521 z "},"в":{"ha":783,"x_min":51,"x_max":722,"o":"m 533 363 l 532 357 q 676 303 635 351 q 701 163 717 254 q 610 22 686 61 q 367 -18 535 -18 q 88 63 157 -18 q 51 360 18 144 q 168 635 82 564 q 449 704 254 707 q 560 694 513 703 q 652 664 608 685 q 714 602 696 643 q 722 503 732 561 q 533 363 699 375 m 265 408 l 392 419 q 492 441 464 425 q 529 488 521 457 q 515 542 539 528 q 421 557 490 557 q 312 526 342 557 q 265 408 282 496 m 385 299 l 247 288 q 255 158 235 186 q 347 129 275 129 q 463 147 429 129 q 503 215 496 164 q 485 285 510 265 q 385 299 460 304 z "},"г":{"ha":742,"x_min":19,"x_max":696,"o":"m 97 517 l 94 653 q 401 704 233 700 q 519 699 469 706 q 614 676 569 693 q 680 619 658 658 q 696 524 701 581 q 672 442 692 479 q 632 385 653 406 q 574 344 611 364 q 524 320 538 325 q 479 306 510 315 l 303 244 q 238 215 254 228 q 219 183 221 203 q 242 148 217 156 q 332 143 267 140 q 636 185 497 149 l 647 43 q 314 -17 488 -17 q 83 33 158 -17 q 19 189 8 82 q 76 311 28 267 q 214 386 124 356 l 383 443 q 474 479 449 464 q 499 518 499 494 q 475 547 500 540 q 368 550 450 553 q 97 517 276 544 z "},"д":{"ha":810,"x_min":51,"x_max":746,"o":"m 188 861 l 217 999 q 649 824 514 967 q 746 390 785 681 q 625 78 717 174 q 346 -18 533 -18 q 51 308 8 -18 q 150 547 72 468 q 372 626 228 626 q 543 576 479 626 q 453 768 535 710 q 188 861 372 826 m 360 136 q 476 194 440 136 q 535 408 511 251 l 539 447 q 426 478 488 478 q 315 436 350 478 q 265 301 279 394 q 272 172 251 208 q 360 136 293 136 z "},"е":{"ha":778,"x_min":47,"x_max":738,"o":"m 656 163 l 669 32 q 368 -17 554 -17 q 99 75 172 -17 q 47 357 25 167 q 161 631 72 557 q 444 704 250 704 q 690 644 625 704 q 738 468 754 585 q 658 329 724 371 q 457 278 593 288 l 254 263 q 288 171 256 194 q 392 147 321 147 q 656 163 526 147 m 267 383 l 426 399 q 508 421 482 403 q 539 488 533 439 q 522 544 543 533 q 431 554 500 556 q 317 520 350 554 q 267 383 285 486 z "},"ж":{"ha":1103,"x_min":-31,"x_max":1099,"o":"m 804 358 l 803 353 q 845 343 828 349 q 878 333 863 338 q 906 315 893 329 q 928 292 918 301 q 947 258 938 283 q 963 216 957 232 q 980 158 969 200 q 997 88 990 115 q 1018 0 1004 61 l 824 0 q 761 236 779 199 q 690 286 739 282 q 675 286 683 286 l 619 286 q 619 222 621 253 l 589 0 l 408 0 l 442 228 q 456 286 443 250 l 410 286 q 309 238 347 286 q 176 0 271 189 l -31 0 q 101 251 76 215 q 213 342 147 322 q 289 357 242 351 l 290 363 q 160 428 189 376 q 92 685 131 481 l 286 685 q 341 472 319 518 q 425 425 363 425 l 478 425 q 479 511 474 468 l 504 685 l 685 685 l 658 506 q 640 425 651 458 l 674 425 q 776 472 738 425 q 894 685 814 519 l 1099 685 q 968 443 1001 488 q 843 364 919 378 q 804 358 825 360 z "},"з":{"ha":714,"x_min":-10,"x_max":650,"o":"m 94 531 l 89 674 q 342 701 196 701 q 594 662 522 701 q 650 507 665 622 q 603 397 640 433 q 482 354 567 361 l 481 349 q 603 297 568 343 q 626 163 639 251 q 540 17 611 51 q 301 -17 469 -17 q -10 13 119 -17 l 13 153 q 283 139 163 139 q 392 153 365 139 q 425 214 419 167 q 409 268 431 254 q 321 283 388 282 l 121 285 l 136 413 l 326 413 q 417 428 390 413 q 450 486 443 444 q 435 534 456 524 q 333 544 414 544 q 94 531 228 544 z "},"и":{"ha":822,"x_min":50,"x_max":774,"o":"m 774 685 l 679 0 l 521 0 l 521 129 q 225 -18 368 -18 q 81 33 126 -18 q 50 175 36 85 l 121 685 l 326 685 l 261 231 q 267 172 256 189 q 313 154 279 154 q 399 178 357 154 q 513 261 442 201 l 571 685 l 774 685 z "},"й":{"ha":822,"x_min":50,"x_max":774,"o":"m 571 989 l 706 989 q 636 835 703 896 q 461 775 569 775 q 285 835 344 775 q 250 989 226 896 l 388 989 q 468 875 364 875 q 571 989 564 875 m 774 685 l 679 0 l 521 0 l 521 129 q 225 -18 368 -18 q 81 33 126 -18 q 50 175 36 85 l 121 685 l 326 685 l 261 231 q 267 172 256 189 q 313 154 279 154 q 399 178 357 154 q 513 261 442 201 l 571 685 l 774 685 z "},"к":{"ha":778,"x_min":29,"x_max":772,"o":"m 479 357 l 478 351 q 551 336 524 346 q 598 308 578 326 q 631 255 618 290 q 655 171 643 219 q 683 43 667 122 q 692 0 689 15 l 486 0 q 431 231 447 194 q 360 282 410 276 q 333 283 349 283 l 265 283 q 265 221 269 254 l 233 0 l 29 0 l 126 685 l 329 685 l 306 506 q 286 426 300 471 l 331 426 q 447 472 410 426 q 556 685 485 518 l 772 685 q 650 446 683 490 q 528 365 606 383 q 479 357 507 361 z "},"л":{"ha":824,"x_min":-22,"x_max":775,"o":"m 775 685 l 679 0 l 475 0 l 551 542 l 469 542 q 415 525 433 542 q 385 465 396 508 q 290 156 336 279 q -10 -7 229 -35 l -22 153 q 64 174 43 160 q 106 228 89 189 q 194 519 149 332 q 264 644 215 604 q 400 685 313 685 l 775 685 z "},"м":{"ha":1085,"x_min":18,"x_max":1018,"o":"m 764 685 l 950 685 q 1018 610 1025 685 l 954 0 l 768 0 l 822 535 l 804 535 l 642 147 q 560 88 619 88 l 447 88 q 376 156 383 88 l 317 535 l 297 535 l 204 0 l 18 0 l 125 611 q 149 667 131 650 q 204 685 167 685 l 383 685 q 454 617 447 685 l 496 328 q 504 215 503 263 l 522 215 q 554 322 540 285 l 683 625 q 764 685 703 685 z "},"н":{"ha":835,"x_min":29,"x_max":788,"o":"m 788 685 l 690 0 l 489 0 l 531 290 l 272 290 l 232 0 l 29 0 l 126 685 l 328 685 l 293 433 l 550 433 l 586 685 l 788 685 z "},"о":{"ha":817,"x_min":47,"x_max":751,"o":"m 440 704 q 706 618 631 704 q 751 333 781 532 q 637 61 725 140 q 363 -18 549 -18 q 97 67 174 -18 q 47 350 21 153 q 163 624 75 544 q 440 704 251 704 m 438 550 q 317 507 353 550 q 261 333 281 464 q 265 176 244 215 q 367 136 286 136 q 486 180 450 136 q 540 350 522 224 q 537 510 558 469 q 438 550 515 550 z "},"п":{"ha":835,"x_min":29,"x_max":768,"o":"m 286 685 l 286 549 q 599 704 446 704 q 733 653 686 704 q 768 510 781 603 l 696 0 l 490 0 l 554 449 q 550 515 560 499 q 507 531 540 532 q 293 422 429 529 l 235 0 l 29 0 l 125 685 l 286 685 z "},"р":{"ha":829,"x_min":-8,"x_max":758,"o":"m 289 685 l 286 553 q 422 658 346 615 q 572 701 499 701 q 739 617 693 701 q 758 329 785 532 q 715 148 743 219 q 641 42 686 76 q 549 -6 596 7 q 433 -18 503 -18 q 229 0 332 -18 q 219 -129 229 -65 l 197 -264 l -8 -264 l 126 685 l 289 685 m 256 125 l 361 125 q 498 160 467 125 q 549 332 529 196 q 556 499 567 463 q 497 536 546 536 q 406 506 461 536 q 294 424 350 475 l 256 125 z "},"с":{"ha":707,"x_min":47,"x_max":688,"o":"m 606 163 l 621 28 q 353 -17 514 -17 q 94 69 168 -17 q 47 351 19 156 q 159 624 75 544 q 425 704 243 704 q 688 660 588 704 l 660 535 q 453 538 499 538 q 316 498 357 538 q 261 342 275 458 q 272 185 246 221 q 390 150 297 150 q 606 163 518 150 z "},"т":{"ha":1224,"x_min":29,"x_max":1156,"o":"m 285 685 l 285 561 q 560 704 426 704 q 678 671 635 704 q 728 576 721 638 q 988 704 860 704 q 1126 652 1082 704 q 1156 510 1169 600 l 1085 0 l 882 0 l 944 454 q 938 514 950 497 q 896 531 925 531 q 822 509 860 531 q 715 426 783 488 l 656 0 l 458 0 l 522 454 q 518 513 529 496 q 472 531 507 531 q 397 509 436 531 q 293 432 358 488 l 233 0 l 29 0 l 126 685 l 285 685 z "},"у":{"ha":806,"x_min":-1,"x_max":797,"o":"m 581 685 l 797 685 q 589 81 726 333 q 335 -233 478 -142 q -1 -285 192 -324 l 15 -139 q 331 0 200 -172 l 249 0 q 192 19 215 0 q 163 69 168 39 l 51 685 l 271 685 l 335 161 q 360 139 340 139 l 414 139 l 419 151 q 581 685 529 364 z "},"ф":{"ha":1035,"x_min":47,"x_max":969,"o":"m 689 972 l 653 700 q 921 599 846 685 q 969 333 996 513 q 850 76 946 157 q 550 -15 754 -4 l 517 -264 l 332 -264 l 365 -12 q 97 87 171 1 q 47 350 22 172 q 168 610 72 529 q 468 701 264 690 l 506 972 l 689 972 m 622 553 l 561 135 q 714 191 668 144 q 775 344 760 238 q 758 499 790 454 q 622 553 725 543 m 396 133 l 456 553 q 303 495 350 543 q 242 339 257 447 q 260 188 226 232 q 396 133 293 143 z "},"х":{"ha":781,"x_min":-44,"x_max":793,"o":"m 550 351 l 710 0 l 511 0 l 389 288 l 378 288 l 174 0 l -44 0 l 217 353 l 71 685 l 267 685 l 375 421 l 392 421 l 581 685 l 793 685 l 550 351 z "},"ц":{"ha":872,"x_min":50,"x_max":804,"o":"m 786 0 l 757 -207 l 586 -207 l 639 0 q 553 34 586 0 q 521 129 519 68 q 225 -18 369 -18 q 81 33 126 -18 q 50 175 36 85 l 121 685 l 326 685 l 263 231 q 268 171 257 188 q 313 154 279 154 q 399 178 357 154 q 513 261 442 201 l 571 685 l 775 685 l 703 160 q 708 140 701 149 q 726 132 715 132 l 804 132 l 786 0 z "},"ч":{"ha":789,"x_min":56,"x_max":740,"o":"m 740 685 l 644 0 l 440 0 l 476 264 q 254 215 360 215 q 91 256 140 214 q 56 390 42 299 l 99 685 l 303 685 l 268 436 q 274 384 263 397 q 326 371 286 371 q 497 418 407 371 l 535 685 l 740 685 z "},"ш":{"ha":1207,"x_min":50,"x_max":1160,"o":"m 1160 685 l 1063 0 l 904 0 l 904 124 q 636 -18 767 -18 q 521 15 564 -18 q 469 108 478 49 q 219 -18 343 -18 q 81 33 125 -18 q 50 175 36 85 l 121 685 l 325 685 l 261 231 q 268 176 256 192 q 314 161 281 161 q 383 181 349 161 q 483 260 417 201 l 543 685 l 738 685 l 675 231 q 679 176 668 192 q 726 161 690 161 q 797 181 764 161 q 896 256 831 200 l 956 685 l 1160 685 z "},"щ":{"ha":1257,"x_min":50,"x_max":1189,"o":"m 1169 0 l 1140 -207 l 971 -207 l 1026 0 l 1024 0 q 938 33 971 0 q 904 125 904 67 q 638 -18 767 -18 q 521 15 564 -18 q 469 108 478 49 q 219 -18 344 -18 q 81 33 125 -18 q 50 175 36 85 l 121 685 l 325 685 l 263 231 q 268 176 256 192 q 314 161 281 161 q 383 181 349 161 q 483 260 417 201 l 543 685 l 738 685 l 675 231 q 679 176 668 192 q 726 161 690 161 q 797 181 764 161 q 896 256 831 200 l 956 685 l 1158 685 l 1088 160 q 1092 140 1085 149 q 1111 132 1099 132 l 1189 132 l 1169 0 z "},"ъ":{"ha":894,"x_min":42,"x_max":826,"o":"m 542 685 l 476 435 q 578 447 529 447 q 792 397 738 446 q 826 211 847 347 q 740 35 808 82 q 519 -11 671 -11 q 460 -10 486 -11 q 402 -5 435 -8 q 344 7 369 -1 q 294 27 319 15 q 253 58 269 39 q 226 103 238 78 q 216 163 215 128 q 228 240 217 197 l 307 532 l 42 532 l 63 685 l 542 685 m 443 307 l 418 213 q 430 152 407 168 q 504 136 453 136 q 590 156 565 136 q 624 231 614 175 q 617 301 633 283 q 542 318 601 318 q 443 307 489 318 z "},"ы":{"ha":1069,"x_min":53,"x_max":1022,"o":"m 1022 685 l 926 0 l 719 0 l 817 685 l 1022 685 m 318 685 l 282 426 q 413 447 349 447 q 626 397 572 446 q 661 211 679 347 q 575 36 644 83 q 354 -11 506 -11 q 280 -9 310 -11 q 208 -1 250 -7 q 140 19 167 4 q 90 56 114 33 q 56 117 65 79 q 53 204 47 154 l 121 685 l 318 685 m 264 304 l 250 203 q 267 150 244 164 q 340 136 290 136 q 426 156 400 136 q 458 231 451 175 q 451 301 467 285 q 375 318 435 318 q 264 304 321 318 z "},"ь":{"ha":732,"x_min":53,"x_max":664,"o":"m 318 685 l 282 426 q 413 447 349 447 q 628 397 574 446 q 664 211 682 347 q 577 35 646 82 q 356 -11 508 -11 q 266 -9 301 -11 q 183 5 231 -7 q 108 38 135 17 q 63 102 81 60 q 53 204 46 144 l 121 685 l 318 685 m 264 304 l 250 203 q 267 150 244 164 q 342 136 290 136 q 427 156 401 136 q 461 231 453 175 q 453 301 469 283 q 376 318 436 318 q 264 304 321 318 z "},"э":{"ha":739,"x_min":-6,"x_max":671,"o":"m 90 535 l 82 667 q 339 700 186 700 q 618 618 540 700 q 671 332 696 536 q 556 56 647 131 q 261 -17 464 -19 q -6 22 96 -17 l 18 153 q 236 146 72 150 q 394 169 351 143 q 456 283 438 194 l 115 283 l 131 413 l 472 413 q 445 517 476 494 q 321 539 414 539 q 90 535 125 536 z "},"ю":{"ha":1151,"x_min":31,"x_max":1085,"o":"m 294 424 l 429 424 q 541 645 463 586 q 779 704 619 704 q 1043 625 971 704 q 1085 335 1115 546 q 974 58 1056 131 q 703 -14 892 -14 q 464 49 532 -14 q 408 279 396 113 l 274 279 l 235 0 l 31 0 l 126 685 l 331 685 l 294 424 m 874 347 q 868 504 889 465 q 769 543 847 543 q 655 502 689 543 q 604 342 621 461 q 608 185 588 224 q 704 147 628 147 q 822 188 786 147 q 874 347 857 229 z "},"я":{"ha":781,"x_min":-14,"x_max":735,"o":"m 638 0 l 438 0 l 471 233 l 360 233 q 256 176 275 233 l 194 0 l -14 0 l 54 206 q 114 278 71 256 q 204 299 157 301 l 206 306 q 79 497 57 339 q 174 661 94 624 q 449 699 253 699 q 735 689 618 699 l 638 0 m 490 368 l 515 547 l 381 547 q 301 531 322 547 q 274 465 281 515 q 284 389 267 410 q 360 368 301 368 l 490 368 z "},"ё":{"ha":778,"x_min":47,"x_max":738,"o":"m 376 806 l 303 806 q 264 847 260 806 l 278 933 q 328 978 283 978 l 397 978 q 436 935 442 978 l 422 847 q 376 806 418 806 m 619 806 l 546 806 q 507 847 503 806 l 521 935 q 569 978 526 978 l 640 978 q 679 935 685 978 l 665 847 q 619 806 661 806 m 656 163 l 669 32 q 368 -17 554 -17 q 99 75 172 -17 q 47 357 25 167 q 161 631 72 557 q 444 704 250 704 q 690 644 625 704 q 738 468 754 585 q 658 329 724 371 q 457 278 593 288 l 254 263 q 288 171 256 194 q 392 147 321 147 q 656 163 526 147 m 267 383 l 426 399 q 508 421 482 403 q 539 488 533 439 q 522 544 543 533 q 431 554 500 556 q 317 520 350 554 q 267 383 285 486 z "},"ђ":{"ha":836,"x_min":57,"x_max":776,"o":"m 357 669 l 344 578 q 318 454 335 519 q 599 574 464 574 q 744 524 699 574 q 776 379 790 474 l 724 0 l 518 0 l 565 321 q 556 380 571 364 q 497 396 542 396 q 304 313 421 396 l 263 0 l 57 0 l 151 669 l 61 669 l 74 768 l 165 768 l 194 972 l 399 972 l 371 768 l 614 768 l 600 669 l 357 669 z "},"ѓ":{"ha":742,"x_min":19,"x_max":696,"o":"m 663 899 l 332 751 l 281 839 l 583 1047 l 663 899 m 97 517 l 94 653 q 401 704 233 700 q 519 699 469 706 q 614 676 569 693 q 680 619 658 658 q 696 524 701 581 q 672 442 692 479 q 632 385 653 406 q 574 344 611 364 q 524 320 538 325 q 479 306 510 315 l 303 244 q 238 215 254 228 q 219 183 221 203 q 242 148 217 156 q 332 143 267 140 q 636 185 497 149 l 647 43 q 314 -17 488 -17 q 83 33 158 -17 q 19 189 8 82 q 76 311 28 267 q 214 386 124 356 l 383 443 q 474 479 449 464 q 499 518 499 494 q 475 547 500 540 q 368 550 450 553 q 97 517 276 544 z "},"є":{"ha":736,"x_min":47,"x_max":717,"o":"m 717 664 l 692 535 q 457 538 531 538 q 324 514 363 538 q 265 413 285 490 l 608 413 l 593 283 l 247 283 q 274 174 242 200 q 404 146 306 149 q 635 153 485 144 l 646 18 q 385 -17 538 -17 q 106 69 186 -17 q 47 349 25 156 q 167 627 72 554 q 451 700 263 700 q 717 664 614 700 z "},"ѕ":{"ha":732,"x_min":14,"x_max":692,"o":"m 374 246 l 210 314 q 92 399 126 347 q 68 528 58 451 q 152 665 81 624 q 376 704 224 706 q 692 676 564 701 l 672 546 q 403 550 406 550 q 295 544 322 550 q 265 514 268 538 q 277 478 261 490 q 339 449 293 467 l 507 382 q 627 301 593 349 q 651 175 661 254 q 619 75 643 114 q 549 17 594 36 q 450 -9 503 -3 q 315 -15 397 -15 q 14 10 190 -15 l 33 142 q 251 139 83 139 q 410 147 372 139 q 454 183 449 156 q 444 215 457 204 q 389 240 431 225 q 374 246 379 243 z "},"і":{"ha":389,"x_min":36,"x_max":372,"o":"m 228 988 l 315 988 q 372 924 381 988 l 363 849 q 297 793 354 793 l 210 793 q 153 857 144 793 l 164 931 q 228 988 168 988 m 240 0 l 36 0 l 131 685 l 335 685 l 240 0 z "},"ї":{"ha":383,"x_min":32,"x_max":464,"o":"m 354 978 l 425 978 q 464 935 469 978 l 450 847 q 406 806 446 806 l 331 806 q 292 847 288 806 l 306 935 q 354 978 314 978 m 113 978 l 182 978 q 221 935 226 978 l 207 847 q 163 806 203 806 l 88 806 q 49 847 44 806 l 63 933 q 113 978 68 978 m 238 0 l 32 0 l 128 685 l 333 685 l 238 0 z "},"ј":{"ha":389,"x_min":-76,"x_max":371,"o":"m 228 988 l 314 988 q 371 924 379 988 l 361 849 q 294 793 353 793 l 208 793 q 151 857 143 793 l 163 931 q 228 988 168 988 m 336 685 l 243 28 q 176 -150 231 -68 q 36 -275 121 -232 l -76 -181 q 39 36 24 -83 l 132 685 l 336 685 z "},"љ":{"ha":1144,"x_min":-24,"x_max":1075,"o":"m 728 685 l 692 425 q 843 447 760 447 q 1043 394 993 446 q 1075 211 1093 342 q 988 38 1057 82 q 769 -8 919 -7 q 643 -1 694 -8 q 547 27 592 6 q 484 92 503 49 q 472 204 465 136 l 521 550 l 456 550 q 403 536 421 550 q 378 490 386 522 q 367 449 375 481 q 358 408 360 417 q 349 371 356 399 q 339 333 342 343 q 329 299 336 322 q 319 264 322 275 q 309 234 315 253 q 297 203 303 215 q 285 176 292 190 q 272 149 279 161 q 151 19 222 50 q -15 -6 79 -12 l -24 143 q 99 214 56 151 q 138 294 119 243 q 165 387 156 346 q 201 539 175 428 q 264 649 219 614 q 388 685 308 685 l 728 685 m 674 301 l 660 203 q 677 150 654 164 q 753 136 700 136 q 840 156 815 136 q 872 231 865 175 q 865 301 881 283 q 796 318 849 318 q 674 301 733 318 z "},"њ":{"ha":1149,"x_min":29,"x_max":1081,"o":"m 736 685 l 699 426 q 833 447 769 447 q 1045 397 992 446 q 1081 211 1099 347 q 993 38 1063 85 q 774 -8 924 -8 q 685 -6 719 -8 q 603 8 650 -4 q 529 41 556 19 q 486 104 503 63 q 476 204 469 146 l 490 304 l 260 304 l 217 0 l 29 0 l 126 685 l 313 685 l 278 438 l 508 438 l 543 685 l 736 685 m 682 303 l 668 203 q 685 150 663 164 q 760 136 708 136 q 844 156 819 136 q 878 231 869 175 q 869 301 885 285 q 794 318 853 318 q 682 303 738 318 z "},"ћ":{"ha":836,"x_min":57,"x_max":776,"o":"m 357 669 l 346 597 q 317 454 338 525 q 599 574 464 574 q 745 524 700 574 q 776 379 790 474 l 726 28 q 659 -150 714 -68 q 521 -275 604 -232 l 410 -181 q 524 36 506 -85 l 565 325 q 556 381 571 367 q 497 396 542 396 q 304 313 421 396 l 263 0 l 57 0 l 151 669 l 61 669 l 74 768 l 165 768 l 194 972 l 399 972 l 371 768 l 614 768 l 600 669 l 357 669 z "},"ќ":{"ha":778,"x_min":29,"x_max":772,"o":"m 401 751 l 349 839 l 653 1047 l 731 899 l 401 751 m 479 357 l 478 351 q 551 336 524 346 q 598 308 578 326 q 631 255 618 290 q 655 171 643 219 q 683 43 667 122 q 692 0 689 15 l 486 0 q 431 231 447 194 q 360 282 410 276 q 333 283 349 283 l 265 283 q 265 221 269 254 l 233 0 l 29 0 l 126 685 l 329 685 l 306 506 q 286 426 300 471 l 331 426 q 447 472 410 426 q 556 685 485 518 l 772 685 q 650 446 683 490 q 528 365 606 383 q 479 357 507 361 z "},"ѝ":{"ha":822,"x_min":50,"x_max":774,"o":"m 489 751 l 182 908 l 274 1044 l 557 838 l 489 751 m 774 685 l 679 0 l 521 0 l 521 129 q 225 -18 368 -18 q 81 33 126 -18 q 50 175 36 85 l 121 685 l 326 685 l 261 231 q 267 172 256 189 q 313 154 279 154 q 399 178 357 154 q 513 261 442 201 l 571 685 l 774 685 z "},"ў":{"ha":806,"x_min":-1,"x_max":797,"o":"m 557 989 l 692 989 q 622 835 689 896 q 447 775 556 775 q 272 835 331 775 q 236 989 213 896 l 374 989 q 381 901 361 928 q 453 875 401 875 q 557 989 550 875 m 581 685 l 797 685 q 589 81 726 333 q 335 -233 478 -142 q -1 -285 192 -324 l 15 -139 q 331 0 200 -172 l 249 0 q 192 19 215 0 q 163 69 168 39 l 51 685 l 271 685 l 335 161 q 360 139 340 139 l 414 139 l 419 151 q 581 685 529 364 z "},"џ":{"ha":822,"x_min":50,"x_max":774,"o":"m 774 685 l 679 0 l 521 0 l 521 129 q 225 -18 368 -18 q 81 33 126 -18 q 50 175 36 85 l 121 685 l 326 685 l 261 231 q 267 172 256 189 q 313 154 279 154 q 399 178 357 154 q 513 261 442 201 l 571 685 l 774 685 m 308 -57 l 440 -57 l 417 -335 l 251 -335 l 308 -57 z "},"Ґ":{"ha":746,"x_min":39,"x_max":835,"o":"m 800 938 l 775 792 l 440 792 q 378 774 399 792 q 350 711 357 756 l 250 0 l 39 0 l 144 761 q 216 909 158 856 q 360 963 274 963 q 647 957 556 963 l 692 1169 l 835 1169 l 800 938 z "},"ґ":{"ha":654,"x_min":26,"x_max":701,"o":"m 701 885 l 669 675 l 646 532 l 374 532 q 296 465 304 532 l 231 0 l 26 0 l 100 531 q 158 654 113 615 q 286 693 203 693 q 518 689 442 693 l 560 885 l 701 885 z "},"Ұ":{"ha":851,"x_min":83,"x_max":926,"o":"m 574 401 l 725 401 l 708 286 l 514 286 l 475 0 l 263 0 l 301 286 l 106 286 l 122 401 l 279 401 l 83 958 l 297 958 l 406 603 q 425 479 415 569 l 440 483 q 490 606 460 549 l 700 958 l 926 958 l 574 401 z "},"ұ":{"ha":851,"x_min":42,"x_max":882,"o":"m 533 133 l 683 133 l 667 8 l 471 8 l 432 -268 l 219 -268 l 258 8 l 67 8 l 82 133 l 235 133 l 42 685 l 254 685 l 363 331 q 381 207 378 269 l 396 207 q 446 332 410 272 l 654 685 l 882 685 l 533 133 z "},"Ҷ":{"ha":971,"x_min":86,"x_max":906,"o":"m 906 142 l 888 0 l 857 -210 l 700 -210 l 718 0 l 550 0 l 607 410 q 289 331 449 331 q 86 568 56 331 l 142 958 l 354 958 l 304 604 q 315 529 296 550 q 396 508 333 508 q 631 572 503 508 l 685 958 l 896 958 l 781 142 l 906 142 z "},"ҷ":{"ha":836,"x_min":56,"x_max":767,"o":"m 749 7 l 719 -196 l 540 -196 l 597 0 l 439 0 l 476 265 q 253 215 361 215 q 91 256 140 214 q 56 390 42 299 l 97 685 l 301 685 l 267 436 q 274 384 261 397 q 326 371 286 371 q 497 418 407 371 l 536 685 l 740 685 l 663 147 l 767 147 l 749 7 z "},"Һ":{"ha":915,"x_min":42,"x_max":849,"o":"m 389 958 l 332 551 q 646 628 490 628 q 849 390 883 628 l 794 0 l 582 0 l 632 354 q 621 431 640 410 q 540 450 601 451 q 310 388 436 449 l 254 0 l 42 0 l 176 958 l 389 958 z "},"Ӏ":{"ha":411,"x_min":43,"x_max":389,"o":"m 254 0 l 43 0 l 178 958 l 389 958 l 254 0 z "},"Ẁ":{"ha":1343,"x_min":110,"x_max":1386,"o":"m 863 1090 l 794 1003 l 488 1161 l 579 1296 l 863 1090 m 1386 958 l 1106 54 q 1028 0 1089 0 l 828 0 q 779 19 800 0 q 757 64 758 38 l 739 683 l 739 806 l 713 806 q 681 682 694 729 l 490 56 q 411 0 474 0 l 210 0 q 160 18 182 0 q 139 63 139 36 l 110 958 l 321 958 l 321 289 q 319 215 321 265 q 317 150 317 164 l 344 150 q 385 297 351 179 l 569 897 q 650 958 588 958 l 829 958 q 877 938 858 958 q 896 889 896 918 l 922 288 q 924 150 925 197 l 953 150 q 988 294 974 244 l 1171 958 l 1386 958 z "},"ẁ":{"ha":1233,"x_min":56,"x_max":1222,"o":"m 765 838 l 697 750 l 390 908 l 482 1043 l 765 838 m 314 142 l 329 142 q 396 211 369 142 q 442 371 419 267 q 485 635 460 450 q 543 685 493 685 l 736 685 q 773 671 758 685 q 789 636 788 657 l 826 142 l 840 142 q 872 160 860 142 q 896 213 883 178 q 960 390 928 281 q 1014 685 997 526 l 1222 685 q 1135 339 1188 492 q 1040 118 1088 197 q 963 26 1006 53 q 838 0 919 0 l 736 0 q 694 15 711 0 q 676 54 678 31 l 644 560 l 628 560 q 592 331 619 464 q 532 144 564 214 q 447 28 499 57 q 313 0 394 0 l 201 0 q 160 15 176 0 q 140 54 143 31 l 56 686 l 267 686 l 314 142 z "},"Ẃ":{"ha":1343,"x_min":110,"x_max":1386,"o":"m 1029 1151 l 699 1003 l 647 1092 l 950 1300 l 1029 1151 m 1386 958 l 1106 54 q 1028 0 1089 0 l 828 0 q 779 19 800 0 q 757 64 758 38 l 739 683 l 739 806 l 713 806 q 681 682 694 729 l 490 56 q 411 0 474 0 l 210 0 q 160 18 182 0 q 139 63 139 36 l 110 958 l 321 958 l 321 289 q 319 215 321 265 q 317 150 317 164 l 344 150 q 385 297 351 179 l 569 897 q 650 958 588 958 l 829 958 q 877 938 858 958 q 896 889 896 918 l 922 288 q 924 150 925 197 l 953 150 q 988 294 974 244 l 1171 958 l 1386 958 z "},"ẃ":{"ha":1233,"x_min":56,"x_max":1222,"o":"m 932 899 l 603 750 l 550 839 l 854 1047 l 932 899 m 314 142 l 329 142 q 396 211 369 142 q 442 371 419 267 q 485 635 460 450 q 543 685 493 685 l 736 685 q 773 671 758 685 q 789 636 788 657 l 826 142 l 840 142 q 872 160 860 142 q 896 213 883 178 q 960 390 928 281 q 1014 685 997 526 l 1222 685 q 1135 339 1188 492 q 1040 118 1088 197 q 963 26 1006 53 q 838 0 919 0 l 736 0 q 694 15 711 0 q 676 54 678 31 l 644 560 l 628 560 q 592 331 619 464 q 532 144 564 214 q 447 28 499 57 q 313 0 394 0 l 201 0 q 160 15 176 0 q 140 54 143 31 l 56 686 l 267 686 l 314 142 z "},"Ẅ":{"ha":1343,"x_min":110,"x_max":1386,"o":"m 868 1231 l 938 1231 q 978 1188 983 1231 l 964 1100 q 918 1058 958 1058 l 844 1058 q 806 1100 800 1058 l 819 1188 q 868 1231 825 1231 m 626 1231 l 694 1231 q 735 1188 740 1231 l 721 1100 q 675 1058 715 1058 l 601 1058 q 563 1100 556 1058 l 576 1186 q 626 1231 582 1231 m 1386 958 l 1106 54 q 1028 0 1089 0 l 828 0 q 779 19 800 0 q 757 64 758 38 l 739 683 l 739 806 l 713 806 q 681 682 694 729 l 490 56 q 411 0 474 0 l 210 0 q 160 18 182 0 q 139 63 139 36 l 110 958 l 321 958 l 321 289 q 319 215 321 265 q 317 150 317 164 l 344 150 q 385 297 351 179 l 569 897 q 650 958 588 958 l 829 958 q 877 938 858 958 q 896 889 896 918 l 922 288 q 924 150 925 197 l 953 150 q 988 294 974 244 l 1171 958 l 1386 958 z "},"ẅ":{"ha":1233,"x_min":56,"x_max":1222,"o":"m 771 976 l 842 976 q 881 935 886 976 l 867 847 q 822 806 863 806 l 747 806 q 708 846 704 806 l 722 933 q 771 976 731 976 m 529 976 l 599 976 q 632 967 624 976 q 638 935 640 957 l 624 847 q 579 806 619 806 l 504 806 q 465 846 461 806 l 479 933 q 529 976 485 976 m 314 142 l 329 142 q 396 211 369 142 q 442 371 419 267 q 485 635 460 450 q 543 685 493 685 l 736 685 q 773 671 758 685 q 789 636 788 657 l 826 142 l 840 142 q 872 160 860 142 q 896 213 883 178 q 960 390 928 281 q 1014 685 997 526 l 1222 685 q 1135 339 1188 492 q 1040 118 1088 197 q 963 26 1006 53 q 838 0 919 0 l 736 0 q 694 15 711 0 q 676 54 678 31 l 644 560 l 628 560 q 592 331 619 464 q 532 144 564 214 q 447 28 499 57 q 313 0 394 0 l 201 0 q 160 15 176 0 q 140 54 143 31 l 56 686 l 267 686 l 314 142 z "},"Ỳ":{"ha":840,"x_min":76,"x_max":917,"o":"m 540 1004 l 233 1163 l 325 1297 l 608 1092 l 540 1004 m 510 313 l 467 0 l 253 0 l 299 324 l 76 958 l 289 958 l 397 603 q 415 479 413 542 l 431 479 q 481 606 444 543 l 689 958 l 917 958 l 510 313 z "},"ỳ":{"ha":803,"x_min":49,"x_max":796,"o":"m 474 751 l 165 908 l 257 1044 l 540 838 l 474 751 m 579 685 l 796 685 q 709 362 767 526 q 588 79 651 197 q 365 -191 483 -110 q 82 -285 246 -272 l 57 -158 q 213 -102 153 -133 q 329 0 274 -71 l 247 0 q 191 19 214 0 q 161 69 168 39 l 49 685 l 269 685 l 335 161 q 358 139 338 139 l 414 139 l 419 151 q 579 685 529 379 z "},"–":{"ha":779,"x_min":64,"x_max":700,"o":"m 682 286 l 64 286 l 83 421 l 700 421 l 682 286 z "},"—":{"ha":1193,"x_min":64,"x_max":1113,"o":"m 1093 286 l 64 286 l 83 421 l 1113 421 l 1093 286 z "},"‘":{"ha":311,"x_min":104,"x_max":300,"o":"m 208 618 l 165 618 q 104 688 92 618 l 114 768 q 211 999 131 886 l 297 968 q 247 807 268 893 q 290 793 278 808 q 300 749 303 778 l 290 682 q 267 632 285 646 q 208 618 249 618 z "},"’":{"ha":308,"x_min":119,"x_max":317,"o":"m 211 983 l 254 983 q 308 967 293 983 q 317 914 322 951 l 306 833 q 208 604 289 715 l 122 633 q 174 796 157 722 q 119 853 113 792 l 129 919 q 153 970 136 957 q 211 983 171 983 z "},"‚":{"ha":325,"x_min":19,"x_max":217,"o":"m 111 182 l 154 182 q 208 166 193 182 q 217 114 222 150 l 206 32 q 108 -197 189 -86 l 22 -168 q 74 -6 57 -79 q 29 8 42 -7 q 19 53 17 22 l 29 119 q 53 169 36 156 q 111 182 71 182 z "},"“":{"ha":560,"x_min":104,"x_max":550,"o":"m 208 618 l 165 618 q 104 688 92 618 l 114 768 q 211 999 131 886 l 297 968 q 247 807 268 893 q 290 793 278 808 q 300 749 303 778 l 290 682 q 267 632 285 646 q 208 618 249 618 m 458 618 l 415 618 q 362 635 376 618 q 353 688 347 651 l 364 768 q 461 999 381 886 l 547 968 q 496 807 514 885 q 540 793 528 808 q 550 749 553 778 l 540 682 q 515 632 533 646 q 458 618 497 618 z "},"”":{"ha":558,"x_min":119,"x_max":565,"o":"m 211 983 l 254 983 q 308 967 293 983 q 317 914 322 951 l 306 833 q 208 604 289 715 l 122 633 q 174 796 157 722 q 119 853 113 792 l 129 919 q 153 970 136 957 q 211 983 171 983 m 460 983 l 504 983 q 556 967 542 983 q 565 914 571 951 l 554 833 q 457 604 539 715 l 372 633 q 422 796 403 714 q 369 853 363 792 l 379 919 q 403 970 385 957 q 460 983 421 983 z "},"„":{"ha":575,"x_min":19,"x_max":465,"o":"m 111 182 l 154 182 q 208 166 193 182 q 217 113 222 150 l 206 32 q 108 -199 189 -86 l 22 -168 q 74 -7 56 -85 q 29 7 42 -8 q 19 51 17 22 l 29 118 q 53 169 36 156 q 111 182 71 182 m 361 182 l 404 182 q 456 166 442 182 q 465 113 471 150 l 454 32 q 358 -199 439 -86 l 272 -168 q 322 -7 301 -93 q 279 7 292 -8 q 269 51 267 22 l 279 118 q 303 169 285 156 q 361 182 321 182 z "},"†":{"ha":651,"x_min":61,"x_max":647,"o":"m 332 -153 l 161 -153 l 272 571 l 288 674 l 318 960 l 489 960 l 439 674 l 425 571 l 332 -153 m 61 529 l 82 685 l 261 685 l 242 551 l 61 529 m 647 685 l 626 529 l 450 551 l 468 685 l 647 685 z "},"‡":{"ha":699,"x_min":25,"x_max":669,"o":"m 463 683 l 383 129 l 354 -153 l 183 -153 l 233 129 l 311 683 l 340 960 l 511 960 l 463 683 m 264 551 l 82 529 l 104 685 l 283 685 l 264 551 m 647 529 l 471 551 l 490 685 l 669 685 l 647 529 m 224 256 l 204 122 l 25 122 l 46 278 l 224 256 m 590 122 l 411 122 l 431 256 l 613 278 l 590 122 z "},"•":{"ha":514,"x_min":96,"x_max":410,"o":"m 261 528 l 285 528 q 392 494 363 528 q 410 382 421 461 l 407 361 q 362 246 394 276 q 250 215 329 215 l 224 215 q 113 250 142 215 q 96 369 85 285 l 99 389 q 144 499 110 469 q 261 528 178 528 z "},"…":{"ha":1235,"x_min":4,"x_max":1111,"o":"m 93 210 l 144 210 q 213 135 222 210 l 203 68 q 125 0 194 0 l 74 0 q 4 76 -6 0 l 14 143 q 93 210 24 210 m 543 210 l 593 210 q 661 135 674 210 l 653 68 q 575 0 644 0 l 524 0 q 454 76 444 0 l 464 143 q 543 210 472 210 m 992 210 l 1043 210 q 1111 135 1122 210 l 1103 68 q 1024 0 1093 0 l 972 0 q 904 76 894 0 l 914 143 q 992 210 922 210 z "},"‰":{"ha":1799,"x_min":86,"x_max":1731,"o":"m 349 976 q 533 910 485 976 q 558 683 581 844 q 478 467 536 526 q 293 407 421 407 q 112 473 160 407 q 86 700 64 539 q 165 917 108 857 q 349 976 222 976 m 354 0 l 214 0 l 924 958 l 1063 958 l 354 0 m 350 863 q 271 828 292 863 q 235 683 250 793 q 233 553 221 586 q 293 521 244 521 q 373 556 351 521 q 410 700 394 590 q 410 830 422 797 q 350 863 399 863 m 985 554 q 1168 488 1119 554 q 1194 261 1217 421 q 1114 44 1171 104 q 928 -17 1057 -17 q 747 50 794 -17 q 721 276 699 117 q 801 494 744 433 q 985 554 858 554 m 1521 554 q 1704 488 1656 554 q 1731 261 1753 421 q 1651 44 1708 104 q 1464 -17 1593 -17 q 1283 50 1332 -17 q 1257 276 1235 117 q 1338 494 1281 433 q 1521 554 1394 554 m 985 439 q 907 405 928 439 q 871 261 886 371 q 868 131 857 163 q 928 99 879 99 q 1009 133 988 99 q 1044 276 1031 167 q 1046 407 1057 375 q 985 439 1035 439 m 1521 439 q 1443 405 1464 439 q 1407 261 1422 371 q 1404 131 1393 163 q 1464 99 1415 99 q 1545 133 1524 99 q 1581 276 1567 167 q 1583 407 1594 375 q 1521 439 1571 439 z "},"‹":{"ha":425,"x_min":39,"x_max":383,"o":"m 383 574 l 214 349 l 336 114 l 232 44 l 39 331 l 42 375 l 286 646 l 383 574 z "},"›":{"ha":425,"x_min":24,"x_max":369,"o":"m 369 360 l 365 315 l 121 44 l 24 115 l 193 342 l 72 576 l 176 646 l 369 360 z "},"⁄":{"ha":222,"x_min":-301,"x_max":543,"o":"m -158 0 l -301 0 l 400 958 l 543 958 l -158 0 z "},"€":{"ha":882,"x_min":42,"x_max":876,"o":"m 88 643 l 192 643 q 343 894 239 814 q 635 975 447 975 q 876 942 767 975 l 849 789 q 618 796 735 804 q 491 755 538 790 q 417 643 444 719 l 728 643 l 696 513 l 68 513 l 88 643 m 633 328 l 369 328 q 405 207 372 247 q 510 161 438 167 q 772 176 635 150 l 781 21 q 518 -17 671 -17 q 244 68 333 -17 q 150 328 154 153 l 42 328 l 61 458 l 664 458 l 633 328 z "},"™":{"ha":1356,"x_min":138,"x_max":1326,"o":"m 444 856 l 386 439 l 244 439 l 303 856 l 138 856 l 153 967 l 625 967 l 611 856 l 444 856 m 1143 967 l 1279 967 q 1316 951 1303 967 q 1326 911 1329 936 l 1279 439 l 1150 439 l 1190 860 l 1176 860 l 1056 557 q 1000 517 1042 517 l 915 517 q 878 530 893 517 q 863 564 864 543 l 824 860 l 808 860 l 733 439 l 603 439 l 690 921 q 706 956 694 946 q 740 967 717 967 l 872 967 q 922 918 919 967 l 954 685 q 957 603 957 658 l 969 603 q 992 683 979 644 l 1088 926 q 1143 967 1101 967 z "},"∂":{"ha":803,"x_min":33,"x_max":765,"o":"m 222 833 l 229 976 q 390 974 319 979 q 524 954 461 969 q 629 913 586 939 q 704 848 672 888 q 751 753 736 808 q 765 626 765 699 q 747 461 764 553 q 598 96 701 208 q 318 -17 494 -17 q 189 4 244 -17 q 102 60 133 25 q 52 142 71 96 q 34 237 33 188 q 43 336 35 286 q 150 547 68 463 q 365 631 232 632 q 554 554 489 631 q 555 722 576 660 q 458 808 533 783 q 222 833 383 833 m 333 149 q 460 222 417 149 q 533 447 503 294 q 413 475 474 475 q 244 318 278 475 q 333 149 208 149 z "},"∅":{"ha":951,"x_min":79,"x_max":892,"o":"m 199 760 q 258 820 199 760 q 486 879 318 879 q 773 760 654 879 q 892 474 892 642 q 773 186 892 306 q 486 67 654 67 q 198 186 317 67 q 79 474 79 306 q 199 760 79 642 m 443 335 l 518 335 q 538 424 518 383 q 583 489 558 465 q 628 549 608 513 q 649 628 649 586 q 486 757 649 757 q 317 742 417 757 l 321 679 q 486 692 404 692 q 578 628 578 692 q 557 566 578 599 q 510 507 536 533 q 464 435 485 481 q 443 335 443 389 m 508 238 l 454 238 q 444 226 444 238 l 444 175 q 454 165 444 165 l 508 165 q 519 175 519 165 l 519 226 q 508 238 519 238 z "},"∏":{"ha":990,"x_min":86,"x_max":1025,"o":"m 1001 803 l 882 803 l 750 -135 l 544 -135 l 676 803 l 422 803 l 292 -135 l 86 -135 l 218 803 l 97 803 l 119 958 l 1025 958 l 1001 803 z "},"∑":{"ha":825,"x_min":-26,"x_max":835,"o":"m 814 806 l 351 806 l 506 461 l 226 -36 l 710 -36 l 688 -189 l -26 -189 l -7 -36 l 282 464 l 132 806 l 151 958 l 835 958 l 814 806 z "},"−":{"ha":803,"x_min":72,"x_max":731,"o":"m 708 332 l 72 332 l 94 483 l 731 483 l 708 332 z "},"√":{"ha":801,"x_min":61,"x_max":900,"o":"m 900 1217 l 417 7 q 403 0 414 0 l 163 0 q 148 5 156 0 q 142 15 140 10 l 61 685 l 224 685 l 286 132 l 304 132 l 731 1217 l 900 1217 z "},"∞":{"ha":1064,"x_min":64,"x_max":1006,"o":"m 819 629 q 965 575 910 629 q 1006 421 1019 521 q 924 269 992 322 q 764 215 856 215 q 529 332 631 215 q 393 244 454 274 q 260 215 332 215 q 107 274 165 215 q 64 436 49 332 q 140 581 76 532 q 296 629 204 629 q 428 597 372 629 q 538 504 483 564 q 676 597 613 564 q 819 629 740 629 m 218 422 q 232 365 213 383 q 292 347 251 346 q 355 363 324 349 q 403 390 386 376 q 453 433 421 404 q 324 496 401 496 q 218 422 228 496 m 849 426 q 783 496 857 496 q 755 494 768 496 q 727 485 742 492 q 704 474 713 478 q 680 458 696 471 q 660 441 664 444 q 637 421 656 438 q 617 403 618 404 q 736 347 661 347 q 849 426 836 347 z "},"∫":{"ha":496,"x_min":-58,"x_max":536,"o":"m 124 -74 l 182 811 q 236 946 188 900 q 363 992 285 992 q 536 986 483 992 l 508 839 l 429 839 q 354 761 363 839 l 296 -128 q 247 -266 289 -224 q 104 -308 204 -308 q -58 -303 -21 -308 l -32 -156 l 44 -156 q 124 -74 118 -156 z "},"≈":{"ha":811,"x_min":58,"x_max":750,"o":"m 225 432 l 97 440 q 139 600 90 549 q 272 644 188 651 q 417 610 314 642 q 553 576 521 578 q 601 589 588 574 q 621 643 615 604 l 750 633 q 711 479 756 531 q 572 431 667 428 q 425 465 528 432 q 292 500 322 497 q 244 486 258 501 q 225 432 231 471 m 188 160 l 58 168 q 101 328 53 276 q 235 374 150 379 q 380 338 276 371 q 515 303 483 306 q 564 315 550 300 q 583 369 578 331 l 713 361 q 674 207 718 258 q 535 158 629 156 q 388 192 489 160 q 254 226 286 225 q 206 213 219 228 q 188 160 192 197 z "},"≠":{"ha":849,"x_min":75,"x_max":774,"o":"m 774 633 l 753 483 l 115 483 l 138 633 l 450 633 l 553 836 l 675 778 l 600 633 l 774 633 m 97 340 l 733 340 l 711 190 l 372 190 l 274 -4 l 154 53 l 224 190 l 75 190 l 97 340 z "},"≤":{"ha":771,"x_min":25,"x_max":732,"o":"m 707 619 l 281 522 l 682 428 l 660 272 l 94 444 l 117 604 l 732 782 l 707 619 m 635 71 l 25 71 l 47 224 l 657 224 l 635 71 z "},"≥":{"ha":769,"x_min":42,"x_max":711,"o":"m 711 604 l 689 444 l 74 272 l 99 440 l 526 533 l 125 626 l 146 782 l 711 604 m 653 71 l 42 71 l 63 224 l 675 224 l 653 71 z "},"◊":{"ha":792,"x_min":47,"x_max":765,"o":"m 47 499 l 458 961 q 482 954 471 976 l 763 490 q 765 463 771 472 l 357 -3 q 332 4 340 -19 l 49 471 q 47 499 40 488 m 208 479 l 365 201 l 607 483 l 449 760 l 208 479 z "},"ﬁ":{"ha":919,"x_min":-150,"x_max":907,"o":"m 872 685 l 775 0 l 571 0 l 647 547 l 369 547 l 281 -62 q 40 -271 251 -271 q -150 -256 -19 -271 l -118 -119 l -28 -119 q 50 -101 26 -119 q 82 -28 74 -82 l 165 547 l 47 547 l 64 678 l 185 685 l 199 781 q 272 944 215 889 q 442 1000 328 1000 q 632 986 557 1000 l 608 850 l 510 850 q 431 826 457 850 q 397 746 406 803 l 389 685 l 872 685 m 761 993 l 851 993 q 897 976 882 993 q 907 929 913 958 l 897 854 q 880 811 893 824 q 836 799 867 799 l 744 799 q 689 863 681 799 l 700 936 q 761 993 706 993 z "},"ﬂ":{"ha":990,"x_min":-147,"x_max":940,"o":"m 931 142 l 940 8 q 785 -17 892 -17 q 642 32 690 -17 q 606 164 594 81 l 703 853 l 508 853 q 430 828 456 853 q 396 746 404 804 l 388 685 l 563 685 l 544 547 l 368 547 l 283 -62 q 42 -271 254 -271 q -147 -256 -18 -271 l -115 -119 l -26 -119 q 51 -101 28 -119 q 83 -28 75 -82 l 164 547 l 46 547 l 63 678 l 183 685 l 197 781 q 269 945 213 889 q 440 1000 326 1001 q 919 975 781 1000 l 817 208 q 824 157 811 172 q 874 142 838 142 l 931 142 z "}}}
